<svg width="258" height="87" viewBox="0 0 258 87" fill="none" xmlns="http://www.w3.org/2000/svg">
<path d="M237.308 0H20.4762C19.8296 0 18.9674 0 18.1053 0C17.4586 0 16.812 0 16.1654 0C14.6566 0 13.3634 0.2175 11.8546 0.435C10.3459 0.6525 9.05263 1.0875 7.7594 1.74C6.46616 2.3925 5.38847 3.2625 4.31078 4.35C3.23308 5.4375 2.37093 6.525 1.72431 7.83C1.07769 9.135 0.646616 10.6575 0.431078 11.9625C0.215539 13.485 0 15.0075 0 16.3125C0 16.965 0 17.6175 0 18.27C0 19.14 0 19.7925 0 20.6625V66.12C0 66.99 0 67.6425 0 68.5125C0 69.165 0 69.8175 0 70.47C0 71.9925 0.215539 73.2975 0.431078 74.82C0.646616 76.3425 1.07769 77.6475 1.72431 78.9525C2.37093 80.475 3.23308 81.5625 4.31078 82.65C5.38847 83.7375 6.46616 84.6075 7.7594 85.26C9.05263 85.9125 10.3459 86.3475 11.8546 86.565C13.3634 86.7825 14.6566 87 16.1654 87C16.812 87 17.4586 87 18.1053 87C18.9674 87 19.614 87 20.4762 87H237.308C238.17 87 238.817 87 239.679 87C240.326 87 240.972 87 241.619 87C243.128 87 244.421 86.7825 245.93 86.565C247.439 86.3475 248.732 85.9125 250.025 85.26C251.318 84.6075 252.396 83.7375 253.474 82.65C254.551 81.5625 255.413 80.475 256.06 79.17C256.707 77.865 257.138 76.56 257.353 75.0375C257.569 73.515 257.784 72.21 257.784 70.6875C257.784 70.035 257.784 69.3825 257.784 68.73C257.784 67.86 257.784 67.2075 257.784 66.3375V20.6625C257.784 19.7925 257.784 19.14 257.784 18.27C257.784 17.6175 257.784 16.965 257.784 16.3125C257.784 14.79 257.569 13.485 257.353 11.9625C257.138 10.44 256.707 9.135 256.06 7.83C255.413 6.525 254.551 5.4375 253.474 4.35C252.396 3.2625 251.318 2.3925 250.025 1.74C248.732 1.0875 247.439 0.6525 245.93 0.435C244.421 0.2175 243.128 0 241.619 0C240.972 0 240.326 0 239.679 0C239.033 0 238.17 0 237.308 0Z" fill="#B7B7B7"/>
<path d="M18.1051 85.0425C17.4585 85.0425 16.8118 85.0425 16.1652 85.0425C14.872 85.0425 13.5788 85.0425 12.07 84.6075C10.7768 84.39 9.48352 83.955 8.40583 83.52C7.32813 82.8675 6.25044 82.215 5.38828 81.345C4.52613 80.475 3.66397 79.3875 3.23289 78.3C2.58628 77.2125 2.37074 76.125 2.1552 74.6025C1.93966 73.08 1.72412 71.5575 1.72412 70.47C1.72412 70.035 1.72412 68.5125 1.72412 68.5125V18.27C1.72412 18.27 1.72412 16.7475 1.72412 16.3125C1.72412 15.225 1.72412 13.7025 2.1552 12.18C2.58628 11.0925 2.80182 9.78752 3.44843 8.70002C4.09505 7.61252 4.74167 6.52502 5.60382 5.65502C6.46598 4.78502 7.54367 4.13252 8.62137 3.48002C9.69906 2.82752 10.9923 2.61002 12.2855 2.39252C13.5788 1.95752 15.0875 1.95752 16.1652 1.95752H18.1051H239.679H241.619C242.697 1.95752 244.205 1.95752 245.714 2.39252C247.007 2.61002 248.085 3.04502 249.378 3.48002C250.456 4.13252 251.534 4.78502 252.396 5.65502C253.258 6.52502 254.12 7.61252 254.551 8.70002C255.198 9.78752 255.413 11.0925 255.629 12.18C255.844 13.485 256.06 15.0075 256.06 16.3125C256.06 16.965 256.06 17.6175 256.06 18.27C256.06 19.14 256.06 19.7925 256.06 20.6625V66.12C256.06 66.99 256.06 67.6425 256.06 68.5125C256.06 69.165 256.06 69.8175 256.06 70.47C256.06 71.775 255.844 73.08 255.629 74.6025C255.413 75.9075 254.982 77.2125 254.551 78.3C253.905 79.3875 253.258 80.475 252.396 81.345C251.534 82.215 250.456 83.085 249.378 83.52C248.301 84.1725 247.223 84.39 245.714 84.6075C244.421 84.825 242.912 84.825 241.619 85.0425C240.972 85.0425 240.326 85.0425 239.679 85.0425H237.308H18.1051Z" fill="#000001"/>
<path d="M53.4537 44.1526C53.4537 38.0626 58.4111 35.2351 58.6266 35.0176C55.8246 30.8851 51.5139 30.4501 50.0051 30.2326C46.3409 29.7976 42.8923 32.4076 40.9525 32.4076C39.0126 32.4076 36.2106 30.2326 33.1931 30.2326C29.3134 30.2326 25.6492 32.6251 23.4938 36.1051C19.3986 43.2826 22.4161 54.1576 26.5114 60.0301C28.4512 62.8576 30.8221 66.1201 33.8397 66.1201C36.8572 65.9026 37.9349 64.1626 41.5991 64.1626C45.2632 64.1626 46.1254 66.1201 49.3585 66.1201C52.5916 66.1201 54.5314 63.2926 56.4713 60.2476C58.8422 56.9851 59.7043 53.7226 59.7043 53.5051C59.7043 53.7226 53.4537 51.3301 53.4537 44.1526Z" fill="white"/>
<path d="M47.4188 26.5351C48.9276 24.5776 50.2208 21.7501 49.7897 18.9226C47.4188 18.9226 44.6168 20.4451 42.8925 22.6201C41.3837 24.3601 40.0905 27.1876 40.5215 30.0151C43.108 30.0151 45.91 28.4926 47.4188 26.5351Z" fill="white"/>
<path d="M91.1734 58.9426H81.043L78.6721 66.3376H74.3613L84.0606 39.3676H88.3714L98.0706 66.3376H93.7598L91.1734 58.9426ZM82.1207 55.6801H90.3112L86.216 43.7176H86.0004L82.1207 55.6801Z" fill="white"/>
<path d="M118.978 56.5499C118.978 62.6399 115.745 66.5549 110.788 66.5549C107.986 66.5549 105.83 65.2499 104.752 63.0749V72.8624H100.657V46.7624H104.537V50.0249C105.615 47.8499 107.986 46.5449 110.788 46.5449C115.529 46.3274 118.978 50.4599 118.978 56.5499ZM114.667 56.5499C114.667 52.6349 112.727 50.0249 109.494 50.0249C106.477 50.0249 104.321 52.6349 104.321 56.5499C104.321 60.4649 106.477 63.0749 109.494 63.0749C112.727 63.0749 114.667 60.4649 114.667 56.5499Z" fill="white"/>
<path d="M140.316 56.5499C140.316 62.6399 137.083 66.5549 132.126 66.5549C129.324 66.5549 127.169 65.2499 126.091 63.0749V72.8624H121.996V46.7624H125.875V50.0249C126.953 47.8499 129.324 46.5449 132.126 46.5449C137.083 46.3274 140.316 50.4599 140.316 56.5499ZM136.221 56.5499C136.221 52.6349 134.281 50.0249 131.048 50.0249C128.031 50.0249 125.875 52.6349 125.875 56.5499C125.875 60.4649 128.031 63.0749 131.048 63.0749C134.281 63.0749 136.221 60.4649 136.221 56.5499Z" fill="white"/>
<path d="M154.542 58.725C154.758 61.335 157.344 63.075 161.008 63.075C164.457 63.075 166.828 61.335 166.828 58.9425C166.828 56.7675 165.319 55.68 161.87 54.81L158.422 53.94C153.464 52.635 151.309 50.46 151.309 46.7625C151.309 42.195 155.404 38.9325 161.008 38.9325C166.612 38.9325 170.492 42.195 170.708 46.7625H166.612C166.397 44.1525 164.241 42.4125 161.008 42.4125C157.775 42.4125 155.62 44.1525 155.62 46.545C155.62 48.5025 157.129 49.59 160.577 50.46L163.595 51.1125C168.983 52.4175 171.354 54.5925 171.354 58.5075C171.354 63.51 167.259 66.7725 161.008 66.7725C154.973 66.7725 151.093 63.7275 150.878 58.725H154.542Z" fill="white"/>
<path d="M179.545 41.9775V46.545H183.209V49.8075H179.545V60.6825C179.545 62.4225 180.191 63.075 181.915 63.075C182.347 63.075 182.993 63.075 183.209 63.075V66.3375C182.778 66.555 181.915 66.555 181.053 66.555C177.174 66.555 175.665 65.0325 175.665 61.335V50.025H172.863V46.7625H175.665V42.195H179.545V41.9775Z" fill="white"/>
<path d="M185.579 56.5499C185.579 50.4599 189.243 46.5449 194.847 46.5449C200.451 46.5449 204.115 50.4599 204.115 56.5499C204.115 62.8574 200.451 66.5549 194.847 66.5549C189.028 66.5549 185.579 62.6399 185.579 56.5499ZM200.02 56.5499C200.02 52.1999 198.08 49.8074 194.847 49.8074C191.614 49.8074 189.674 52.1999 189.674 56.5499C189.674 60.8999 191.614 63.2924 194.847 63.2924C198.08 63.2924 200.02 60.6824 200.02 56.5499Z" fill="white"/>
<path d="M207.349 46.5449H211.229V50.0249C211.875 47.8499 213.6 46.5449 215.971 46.5449C216.617 46.5449 217.048 46.5449 217.264 46.7624V50.4599C217.048 50.2424 216.186 50.2424 215.54 50.2424C212.953 50.2424 211.444 51.9824 211.444 54.8099V66.5549H207.349V46.5449Z" fill="white"/>
<path d="M235.8 60.465C235.153 63.945 231.704 66.555 227.394 66.555C221.79 66.555 218.125 62.64 218.125 56.55C218.125 50.46 221.574 46.3275 227.178 46.3275C232.567 46.3275 236.015 50.025 236.015 56.115V57.42H222.221V57.6375C222.221 60.9 224.376 63.2925 227.394 63.2925C229.549 63.2925 231.273 62.205 231.92 60.465H235.8ZM222.221 54.5925H231.92C231.92 51.5475 229.98 49.59 227.178 49.59C224.376 49.59 222.436 51.765 222.221 54.5925Z" fill="white"/>
<path d="M81.4738 18.9225C85.3535 18.9225 87.5089 21.315 87.5089 25.4475C87.5089 29.58 85.3535 31.9725 81.4738 31.9725H76.7319V18.9225H81.4738ZM78.8873 30.2325H81.2583C83.8447 30.2325 85.569 28.4925 85.569 25.665C85.569 22.8375 84.0603 21.0975 81.2583 21.0975H78.8873V30.2325Z" fill="white"/>
<path d="M89.8799 26.9699C89.8799 23.7074 91.6042 21.9674 94.4062 21.9674C97.2082 21.9674 98.9325 23.9249 98.9325 26.9699C98.9325 30.2324 97.2082 31.9724 94.4062 31.9724C91.6042 32.1899 89.8799 30.2324 89.8799 26.9699ZM96.9927 26.9699C96.9927 24.7949 96.1305 23.7074 94.4062 23.7074C92.6819 23.7074 91.8197 25.0124 91.8197 26.9699C91.8197 29.1449 92.6819 30.4499 94.4062 30.4499C96.1305 30.4499 96.9927 29.1449 96.9927 26.9699Z" fill="white"/>
<path d="M111.218 31.9726H109.278L107.338 24.7951H107.123L105.183 31.9726H103.243L100.657 22.1851H102.597L104.321 29.5801H104.536L106.476 22.1851H108.416L110.356 29.5801H110.572L112.296 22.1851H114.236L111.218 31.9726Z" fill="white"/>
<path d="M116.176 22.1849H118.116V23.7074H118.331C118.762 22.6199 119.84 21.9674 121.133 21.9674C123.289 21.9674 124.582 23.2724 124.582 25.6649V31.9724H122.642V26.0999C122.642 24.5774 121.995 23.7074 120.487 23.7074C118.978 23.7074 118.116 24.5774 118.116 26.0999V31.7549H116.176V22.1849Z" fill="white"/>
<path d="M127.384 18.27H129.324V31.9725H127.384V18.27Z" fill="white"/>
<path d="M131.91 26.9699C131.91 23.7074 133.634 21.9674 136.436 21.9674C139.238 21.9674 140.962 23.9249 140.962 26.9699C140.962 30.2324 139.238 31.9724 136.436 31.9724C133.634 32.1899 131.91 30.2324 131.91 26.9699ZM139.238 26.9699C139.238 24.7949 138.376 23.7074 136.652 23.7074C134.927 23.7074 134.065 25.0124 134.065 26.9699C134.065 29.1449 134.927 30.4499 136.652 30.4499C138.16 30.4499 139.238 29.1449 139.238 26.9699Z" fill="white"/>
<path d="M143.118 29.1449C143.118 27.4049 144.411 26.3174 146.782 26.3174L149.368 26.0999V25.2299C149.368 24.1424 148.722 23.7074 147.428 23.7074C146.351 23.7074 145.704 24.1424 145.489 24.7949H143.549C143.764 23.0549 145.273 21.9674 147.428 21.9674C149.799 21.9674 151.308 23.2724 151.308 25.2299V31.9724H149.368V30.6674H149.153C148.506 31.7549 147.428 32.1899 146.135 32.1899C144.411 32.1899 143.118 30.8849 143.118 29.1449ZM149.368 28.2749V27.4049L146.997 27.6224C145.704 27.6224 145.058 28.2749 145.058 28.9274C145.058 29.7974 145.92 30.2324 146.782 30.2324C148.291 30.4499 149.368 29.5799 149.368 28.2749Z" fill="white"/>
<path d="M153.679 26.97C153.679 23.925 155.188 21.9675 157.774 21.9675C159.068 21.9675 160.145 22.62 160.792 23.7075H161.008V18.27H162.947V31.9725H161.008V30.45H160.792C160.145 31.5375 159.068 32.19 157.774 32.19C155.403 32.19 153.679 30.2325 153.679 26.97ZM155.835 26.97C155.835 29.145 156.912 30.2325 158.421 30.2325C159.93 30.2325 161.008 28.9275 161.008 26.97C161.008 25.0125 159.93 23.7075 158.421 23.7075C156.697 23.7075 155.835 25.0125 155.835 26.97Z" fill="white"/>
<path d="M170.707 26.9699C170.707 23.7074 172.431 21.9674 175.233 21.9674C178.035 21.9674 179.76 23.9249 179.76 26.9699C179.76 30.2324 178.035 31.9724 175.233 31.9724C172.431 32.1899 170.707 30.2324 170.707 26.9699ZM178.035 26.9699C178.035 24.7949 177.173 23.7074 175.449 23.7074C173.725 23.7074 172.862 25.0124 172.862 26.9699C172.862 29.1449 173.725 30.4499 175.449 30.4499C176.958 30.4499 178.035 29.1449 178.035 26.9699Z" fill="white"/>
<path d="M182.562 22.1849H184.501V23.7074H184.717C185.148 22.6199 186.226 21.9674 187.519 21.9674C189.674 21.9674 190.968 23.2724 190.968 25.6649V31.9724H189.028V26.0999C189.028 24.5774 188.381 23.7074 186.872 23.7074C185.364 23.7074 184.501 24.5774 184.501 26.0999V31.7549H182.562V22.1849Z" fill="white"/>
<path d="M201.529 19.7925V22.185H203.684V23.925H201.529V28.9275C201.529 30.015 201.96 30.45 202.822 30.45C203.038 30.45 203.253 30.45 203.469 30.45V31.9725C203.253 31.9725 202.822 31.9725 202.391 31.9725C200.236 31.9725 199.374 31.32 199.374 29.3625V23.925H197.865V22.4025H199.374V19.7925H201.529Z" fill="white"/>
<path d="M206.271 18.27H208.21V23.7075H208.426C208.857 22.62 209.935 21.9675 211.443 21.9675C213.599 21.9675 214.892 23.2725 214.892 25.665V31.9725H212.952V26.1C212.952 24.5775 212.306 23.7075 210.797 23.7075C209.288 23.7075 208.426 24.795 208.426 26.1V31.755H206.486V18.27H206.271Z" fill="white"/>
<path d="M225.885 29.3624C225.454 31.1024 223.945 32.1899 221.574 32.1899C218.772 32.1899 217.048 30.2324 217.048 27.1874C217.048 24.1424 218.772 21.9674 221.574 21.9674C224.376 21.9674 225.885 23.9249 225.885 26.9699V27.6224H218.988C218.988 29.3624 220.065 30.4499 221.574 30.4499C222.652 30.4499 223.514 30.0149 223.945 29.3624H225.885ZM218.988 26.0999H223.945C223.945 24.5774 222.867 23.4899 221.574 23.4899C220.065 23.7074 219.203 24.5774 218.988 26.0999Z" fill="white"/>
</svg>
