<svg width="62" height="63" viewBox="0 0 62 63" fill="none" xmlns="http://www.w3.org/2000/svg">
<path d="M4.72355 57.5519V9.8144C4.71885 9.30356 4.81617 8.79692 5.00982 8.32419C5.20346 7.85145 5.48953 7.42212 5.85125 7.06138C6.21297 6.70064 6.64307 6.41573 7.11633 6.22337C7.58959 6.031 8.09649 5.93505 8.60731 5.94113H4.67106C4.16024 5.93505 3.65334 6.031 3.18008 6.22337C2.70682 6.41573 2.27672 6.70064 1.915 7.06138C1.55328 7.42212 1.26721 7.85145 1.07357 8.32419C0.879923 8.79692 0.782597 9.30356 0.787296 9.8144V57.5519C0.782259 58.0637 0.879228 58.5713 1.07254 59.0451C1.26585 59.5189 1.55163 59.9495 1.91319 60.3117C2.27475 60.6739 2.70485 60.9604 3.17837 61.1545C3.65188 61.3486 4.15932 61.4464 4.67106 61.4423H8.60731C8.09557 61.4464 7.58813 61.3486 7.11461 61.1545C6.6411 60.9604 6.211 60.6739 5.84944 60.3117C5.48788 59.9495 5.2021 59.5189 5.00879 59.0451C4.81548 58.5713 4.71851 58.0637 4.72355 57.5519Z" fill="#D4E1F4"/>
<path d="M57.2594 5.15392H53.1395V3.13987C53.1427 2.83431 53.0847 2.53121 52.969 2.24837C52.8534 1.96554 52.6823 1.70869 52.4659 1.49292C52.2496 1.27716 51.9922 1.10683 51.7091 0.991964C51.4259 0.877095 51.1226 0.820002 50.8171 0.824042H46.5909C46.2826 0.819009 45.9765 0.87505 45.69 0.988934C45.4035 1.10282 45.1424 1.27229 44.9218 1.48758C44.7011 1.70287 44.5252 1.95971 44.4043 2.2433C44.2834 2.52688 44.2199 2.8316 44.2173 3.13987V5.15392H17.7132V3.13987C17.7107 2.8316 17.6471 2.52688 17.5262 2.2433C17.4053 1.95971 17.2295 1.70287 17.0088 1.48758C16.7882 1.27229 16.5271 1.10282 16.2406 0.988934C15.9541 0.87505 15.6479 0.819009 15.3397 0.824042H11.1135C10.8079 0.820002 10.5046 0.877095 10.2215 0.991964C9.93833 1.10683 9.68099 1.27716 9.46462 1.49292C9.24824 1.70869 9.07719 1.96554 8.96152 2.24837C8.84585 2.53121 8.7879 2.83431 8.79107 3.13987V5.15392H4.67113C4.05712 5.14854 3.44816 5.26535 2.87971 5.49753C2.31126 5.72971 1.79466 6.07263 1.35998 6.50633C0.925296 6.94003 0.581214 7.45586 0.347756 8.02379C0.114298 8.59172 -0.00387407 9.20041 0.000116367 9.81444V57.552C-0.00423637 58.1669 0.113563 58.7766 0.34668 59.3456C0.579798 59.9147 0.923593 60.4317 1.35812 60.8669C1.79265 61.302 2.30925 61.6465 2.87797 61.8805C3.44669 62.1144 4.0562 62.233 4.67113 62.2295H51.9363C52.0516 62.2338 52.1663 62.2121 52.272 62.1658C52.3776 62.1196 52.4715 62.0501 52.5466 61.9625L61.7798 50.6101C61.8863 50.4714 61.9397 50.2993 61.9304 50.1247V9.81444C61.9344 9.20041 61.8163 8.59172 61.5828 8.02379C61.3493 7.45586 61.0053 6.94003 60.5706 6.50633C60.1359 6.07263 59.6193 5.72971 59.0509 5.49753C58.4824 5.26535 57.8734 5.14854 57.2594 5.15392ZM45.7918 3.13987C45.7943 3.03832 45.8171 2.93829 45.8589 2.84569C45.9007 2.75309 45.9605 2.66979 46.035 2.6007C46.1095 2.53161 46.197 2.47812 46.2925 2.44341C46.388 2.40869 46.4894 2.39343 46.5909 2.39854H50.8171C50.9159 2.39425 51.0145 2.41044 51.1068 2.44609C51.199 2.48173 51.2829 2.53608 51.3531 2.6057C51.4234 2.67531 51.4784 2.75871 51.5149 2.85063C51.5514 2.94256 51.5684 3.04103 51.565 3.13987V9.35258H45.7918V3.13987ZM10.3656 3.13987C10.3622 3.04103 10.3792 2.94256 10.4157 2.85063C10.4521 2.75871 10.5072 2.67531 10.5774 2.6057C10.6477 2.53608 10.7316 2.48173 10.8238 2.44609C10.916 2.41044 11.0147 2.39425 11.1135 2.39854H15.3397C15.4411 2.39343 15.5426 2.40869 15.6381 2.44341C15.7335 2.47812 15.8211 2.53161 15.8955 2.6007C15.97 2.66979 16.0299 2.75309 16.0717 2.84569C16.1134 2.93829 16.1362 3.03832 16.1387 3.13987V9.35258H10.3656V3.13987ZM1.57462 57.552V17.6187H8.95049C9.15928 17.6187 9.35952 17.5358 9.50716 17.3881C9.6548 17.2405 9.73774 17.0402 9.73774 16.8315C9.73774 16.6227 9.6548 16.4224 9.50716 16.2748C9.35952 16.1271 9.15928 16.0442 8.95049 16.0442H1.57462V9.81444C1.5704 9.40711 1.64769 9.00306 1.80194 8.62606C1.95619 8.24905 2.18429 7.9067 2.47281 7.61915C2.76134 7.33161 3.10446 7.10467 3.48199 6.9517C3.85952 6.79873 4.26383 6.72281 4.67113 6.72842H8.79107V10.1897C8.78763 10.2884 8.80471 10.3867 8.84121 10.4784C8.87772 10.5701 8.93287 10.6532 9.00316 10.7225C9.07346 10.7919 9.15738 10.8458 9.2496 10.881C9.34183 10.9162 9.44036 10.9319 9.53896 10.9271H16.9142C17.349 10.9271 17.7132 10.6244 17.7132 10.1897V6.72842H44.2173V10.1897C44.2173 10.6244 44.5816 10.9271 45.0164 10.9271H52.3916C52.4902 10.9319 52.5887 10.9162 52.681 10.881C52.7732 10.8458 52.8571 10.7919 52.9274 10.7225C52.9977 10.6532 53.0528 10.5701 53.0894 10.4784C53.1259 10.3867 53.1429 10.2884 53.1395 10.1897V6.72842H57.2594C57.6667 6.72281 58.071 6.79873 58.4486 6.9517C58.8261 7.10467 59.1692 7.33161 59.4578 7.61915C59.7463 7.9067 59.9744 8.24905 60.1286 8.62606C60.2829 9.00306 60.3602 9.40711 60.3559 9.81444V16.0442H13.2867C13.0779 16.0442 12.8776 16.1271 12.73 16.2748C12.5824 16.4224 12.4994 16.6227 12.4994 16.8315C12.4994 17.0402 12.5824 17.2405 12.73 17.3881C12.8776 17.5358 13.0779 17.6187 13.2867 17.6187H60.3559V49.1087H51.9363C51.5016 49.1087 51.1714 49.5155 51.1714 49.9498V60.655H4.67113C4.26292 60.6587 3.85807 60.5809 3.48029 60.4262C3.10252 60.2715 2.75941 60.0429 2.47105 59.7539C2.18269 59.465 1.95488 59.1214 1.80095 58.7433C1.64703 58.3652 1.57008 57.9602 1.57462 57.552ZM59.6809 50.6832L52.7459 59.2758V50.6832H59.6809Z" fill="#023E8A"/>
<path d="M4.98598 20.2219C4.77719 20.2219 4.57695 20.3048 4.42931 20.4524C4.28167 20.6001 4.19873 20.8003 4.19873 21.0091V21.4815C4.19873 21.6903 4.28167 21.8905 4.42931 22.0381C4.57695 22.1858 4.77719 22.2687 4.98598 22.2687C5.19477 22.2687 5.39501 22.1858 5.54265 22.0381C5.69029 21.8905 5.77323 21.6903 5.77323 21.4815V21.0091C5.77323 20.8003 5.69029 20.6001 5.54265 20.4524C5.39501 20.3048 5.19477 20.2219 4.98598 20.2219Z" fill="#023E8A"/>
<path d="M4.98598 23.3289C4.77719 23.3289 4.57695 23.4119 4.42931 23.5595C4.28167 23.7071 4.19873 23.9074 4.19873 24.1162V47.9318C4.19873 48.1406 4.28167 48.3408 4.42931 48.4885C4.57695 48.6361 4.77719 48.719 4.98598 48.719C5.19477 48.719 5.39501 48.6361 5.54265 48.4885C5.69029 48.3408 5.77323 48.1406 5.77323 47.9318V24.1162C5.77323 23.9074 5.69029 23.7071 5.54265 23.5595C5.39501 23.4119 5.19477 23.3289 4.98598 23.3289Z" fill="#023E8A"/>
<path d="M20.7412 22.4446C20.2261 22.4446 19.7225 22.5973 19.2942 22.8835C18.8659 23.1697 18.5321 23.5765 18.335 24.0524C18.1378 24.5283 18.0863 25.052 18.1868 25.5572C18.2873 26.0624 18.5353 26.5265 18.8996 26.8907C19.2638 27.255 19.7279 27.503 20.2331 27.6035C20.7383 27.704 21.262 27.6524 21.7379 27.4553C22.2138 27.2582 22.6206 26.9243 22.9068 26.496C23.1929 26.0677 23.3457 25.5642 23.3457 25.0491C23.3449 24.3586 23.0702 23.6966 22.582 23.2083C22.0937 22.72 21.4317 22.4454 20.7412 22.4446ZM20.7412 26.0791C20.5375 26.0791 20.3384 26.0186 20.169 25.9055C19.9996 25.7923 19.8676 25.6314 19.7896 25.4432C19.7117 25.255 19.6913 25.0479 19.731 24.8481C19.7708 24.6483 19.8688 24.4648 20.0129 24.3208C20.1569 24.1767 20.3405 24.0786 20.5403 24.0389C20.7401 23.9991 20.9472 24.0195 21.1354 24.0975C21.3236 24.1754 21.4844 24.3075 21.5976 24.4768C21.7108 24.6462 21.7712 24.8454 21.7712 25.0491C21.7708 25.3221 21.6622 25.5839 21.4691 25.777C21.276 25.9701 21.0143 26.0787 20.7412 26.0791Z" fill="#DC79FF"/>
<path d="M30.9653 22.4446C30.4502 22.4446 29.9467 22.5973 29.5184 22.8835C29.09 23.1697 28.7562 23.5765 28.5591 24.0524C28.362 24.5283 28.3104 25.052 28.4109 25.5572C28.5114 26.0624 28.7594 26.5265 29.1237 26.8907C29.4879 27.255 29.952 27.503 30.4572 27.6035C30.9624 27.704 31.4861 27.6524 31.962 27.4553C32.4379 27.2582 32.8447 26.9243 33.1309 26.496C33.4171 26.0677 33.5698 25.5642 33.5698 25.0491C33.569 24.3586 33.2944 23.6966 32.8061 23.2083C32.3178 22.72 31.6558 22.4454 30.9653 22.4446ZM30.9653 26.0791C30.7616 26.0791 30.5625 26.0186 30.3931 25.9055C30.2237 25.7923 30.0917 25.6314 30.0137 25.4432C29.9358 25.255 29.9154 25.0479 29.9551 24.8481C29.9949 24.6483 30.093 24.4648 30.237 24.3208C30.3811 24.1767 30.5646 24.0786 30.7644 24.0389C30.9642 23.9991 31.1713 24.0195 31.3595 24.0975C31.5477 24.1754 31.7086 24.3075 31.8217 24.4768C31.9349 24.6462 31.9953 24.8454 31.9953 25.0491C31.995 25.3221 31.8863 25.5839 31.6932 25.777C31.5002 25.9701 31.2384 26.0787 30.9653 26.0791Z" fill="#DC79FF"/>
<path d="M41.189 27.6536C41.7041 27.6536 42.2076 27.5008 42.6359 27.2146C43.0642 26.9284 43.3981 26.5217 43.5952 26.0458C43.7923 25.5699 43.8439 25.0462 43.7434 24.541C43.6429 24.0357 43.3948 23.5717 43.0306 23.2074C42.6664 22.8432 42.2023 22.5951 41.6971 22.4946C41.1918 22.3941 40.6682 22.4457 40.1923 22.6428C39.7164 22.84 39.3096 23.1738 39.0234 23.6021C38.7372 24.0304 38.5845 24.5339 38.5845 25.0491C38.5853 25.7396 38.8599 26.4016 39.3482 26.8898C39.8365 27.3781 40.4985 27.6528 41.189 27.6536ZM41.189 24.0191C41.3927 24.0191 41.5918 24.0795 41.7612 24.1927C41.9306 24.3058 42.0626 24.4667 42.1405 24.6549C42.2185 24.8431 42.2389 25.0502 42.1992 25.25C42.1594 25.4498 42.0613 25.6333 41.9173 25.7774C41.7732 25.9214 41.5897 26.0195 41.3899 26.0593C41.1901 26.099 40.983 26.0786 40.7948 26.0007C40.6066 25.9227 40.4457 25.7907 40.3326 25.6213C40.2194 25.4519 40.159 25.2528 40.159 25.0491C40.1593 24.776 40.2679 24.5142 40.461 24.3211C40.6541 24.128 40.9159 24.0194 41.189 24.0191Z" fill="#DC79FF"/>
<path d="M51.4113 22.4446C50.8962 22.4448 50.3928 22.5978 49.9647 22.8842C49.5365 23.1705 49.2029 23.5774 49.006 24.0533C48.8091 24.5292 48.7577 25.0528 48.8583 25.558C48.959 26.0631 49.2071 26.5271 49.5714 26.8912C49.9357 27.2553 50.3998 27.5032 50.905 27.6036C51.4102 27.704 51.9338 27.6523 52.4096 27.4552C52.8854 27.258 53.2921 26.9242 53.5782 26.4959C53.8644 26.0676 54.0171 25.5641 54.0171 25.0491C54.0163 24.3583 53.7414 23.6961 53.2529 23.2078C52.7644 22.7195 52.102 22.445 51.4113 22.4446ZM51.4113 26.0791C51.2076 26.0788 51.0086 26.0182 50.8394 25.9048C50.6702 25.7915 50.5384 25.6305 50.4606 25.4423C50.3829 25.2541 50.3627 25.047 50.4026 24.8473C50.4425 24.6476 50.5407 24.4642 50.6847 24.3203C50.8288 24.1764 51.0124 24.0784 51.2121 24.0388C51.4119 23.9991 51.6189 24.0196 51.8071 24.0976C51.9952 24.1756 52.156 24.3076 52.2691 24.477C52.3822 24.6463 52.4426 24.8454 52.4426 25.0491C52.4422 25.3224 52.3334 25.5843 52.1401 25.7775C51.9467 25.9706 51.6846 26.0791 51.4113 26.0791Z" fill="#DC79FF"/>
<path d="M10.519 30.964C10.0039 30.964 9.50037 31.1167 9.07206 31.4029C8.64376 31.6891 8.30993 32.0959 8.11281 32.5718C7.91568 33.0477 7.8641 33.5714 7.9646 34.0766C8.06509 34.5818 8.31314 35.0459 8.67739 35.4101C9.04163 35.7744 9.50571 36.0224 10.0109 36.1229C10.5161 36.2234 11.0398 36.1718 11.5157 35.9747C11.9916 35.7776 12.3984 35.4438 12.6846 35.0154C12.9708 34.5871 13.1235 34.0836 13.1235 33.5685C13.1226 32.878 12.8478 32.2161 12.3596 31.7279C11.8714 31.2397 11.2095 30.965 10.519 30.964ZM10.519 34.5985C10.3153 34.5985 10.1162 34.5381 9.94681 34.4249C9.77743 34.3117 9.64541 34.1508 9.56746 33.9626C9.4895 33.7744 9.4691 33.5673 9.50884 33.3675C9.54858 33.1677 9.64668 32.9842 9.79073 32.8402C9.93477 32.6961 10.1183 32.598 10.3181 32.5583C10.5179 32.5185 10.725 32.5389 10.9132 32.6169C11.1014 32.6948 11.2623 32.8269 11.3754 32.9962C11.4886 33.1656 11.549 33.3648 11.549 33.5685C11.5485 33.8415 11.4399 34.1032 11.2468 34.2962C11.0538 34.4893 10.7921 34.598 10.519 34.5985Z" fill="#DC79FF"/>
<path d="M20.7412 30.964C20.2261 30.964 19.7225 31.1167 19.2942 31.4029C18.8659 31.6891 18.5321 32.0959 18.335 32.5718C18.1378 33.0477 18.0863 33.5714 18.1868 34.0766C18.2873 34.5818 18.5353 35.0459 18.8996 35.4101C19.2638 35.7744 19.7279 36.0224 20.2331 36.1229C20.7383 36.2234 21.262 36.1718 21.7379 35.9747C22.2138 35.7776 22.6206 35.4438 22.9068 35.0154C23.1929 34.5871 23.3457 34.0836 23.3457 33.5685C23.3449 32.878 23.0702 32.216 22.582 31.7277C22.0937 31.2394 21.4317 30.9648 20.7412 30.964ZM20.7412 34.5985C20.5375 34.5985 20.3384 34.5381 20.169 34.4249C19.9996 34.3117 19.8676 34.1508 19.7896 33.9626C19.7117 33.7744 19.6913 33.5673 19.731 33.3675C19.7708 33.1677 19.8688 32.9842 20.0129 32.8402C20.1569 32.6961 20.3405 32.598 20.5403 32.5583C20.7401 32.5185 20.9472 32.5389 21.1354 32.6169C21.3236 32.6948 21.4844 32.8269 21.5976 32.9962C21.7108 33.1656 21.7712 33.3648 21.7712 33.5685C21.7709 33.8415 21.6623 34.1033 21.4692 34.2964C21.2761 34.4895 21.0143 34.5981 20.7412 34.5985Z" fill="#DC79FF"/>
<path d="M30.9653 30.964C30.4502 30.964 29.9467 31.1167 29.5184 31.4029C29.09 31.6891 28.7562 32.0959 28.5591 32.5718C28.362 33.0477 28.3104 33.5714 28.4109 34.0766C28.5114 34.5818 28.7594 35.0459 29.1237 35.4101C29.4879 35.7744 29.952 36.0224 30.4572 36.1229C30.9624 36.2234 31.4861 36.1718 31.962 35.9747C32.4379 35.7776 32.8447 35.4438 33.1309 35.0154C33.4171 34.5871 33.5698 34.0836 33.5698 33.5685C33.569 32.878 33.2944 32.216 32.8061 31.7277C32.3178 31.2394 31.6558 30.9648 30.9653 30.964ZM30.9653 34.5985C30.7616 34.5985 30.5625 34.5381 30.3931 34.4249C30.2237 34.3117 30.0917 34.1508 30.0137 33.9626C29.9358 33.7744 29.9154 33.5673 29.9551 33.3675C29.9949 33.1677 30.093 32.9842 30.237 32.8402C30.3811 32.6961 30.5646 32.598 30.7644 32.5583C30.9642 32.5185 31.1713 32.5389 31.3595 32.6169C31.5477 32.6948 31.7086 32.8269 31.8217 32.9962C31.9349 33.1656 31.9953 33.3648 31.9953 33.5685C31.995 33.8415 31.8864 34.1033 31.6933 34.2964C31.5002 34.4895 31.2384 34.5981 30.9653 34.5985Z" fill="#DC79FF"/>
<path d="M41.189 30.964C40.6738 30.964 40.1703 31.1167 39.742 31.4029C39.3137 31.6891 38.9799 32.0959 38.7827 32.5718C38.5856 33.0477 38.534 33.5714 38.6345 34.0766C38.735 34.5818 38.9831 35.0459 39.3473 35.4101C39.7116 35.7744 40.1756 36.0224 40.6808 36.1229C41.1861 36.2234 41.7097 36.1718 42.1857 35.9747C42.6616 35.7776 43.0683 35.4438 43.3545 35.0154C43.6407 34.5871 43.7934 34.0836 43.7934 33.5685C43.7926 32.878 43.518 32.216 43.0297 31.7277C42.5415 31.2394 41.8795 30.9648 41.189 30.964ZM41.189 34.5985C40.9852 34.5985 40.7861 34.5381 40.6167 34.4249C40.4473 34.3117 40.3153 34.1508 40.2374 33.9626C40.1594 33.7744 40.139 33.5673 40.1788 33.3675C40.2185 33.1677 40.3166 32.9842 40.4606 32.8402C40.6047 32.6961 40.7882 32.598 40.988 32.5583C41.1878 32.5185 41.3949 32.5389 41.5831 32.6169C41.7713 32.6948 41.9322 32.8269 42.0454 32.9962C42.1585 33.1656 42.2189 33.3648 42.2189 33.5685C42.2186 33.8415 42.11 34.1033 41.9169 34.2964C41.7238 34.4895 41.462 34.5981 41.189 34.5985Z" fill="#DC79FF"/>
<path d="M51.4113 30.964C50.8962 30.9642 50.3928 31.1172 49.9647 31.4036C49.5365 31.6899 49.2029 32.0968 49.006 32.5727C48.8091 33.0486 48.7577 33.5723 48.8583 34.0774C48.959 34.5825 49.2071 35.0465 49.5714 35.4106C49.9357 35.7747 50.3998 36.0226 50.905 36.123C51.4102 36.2234 51.9338 36.1717 52.4096 35.9746C52.8854 35.7774 53.2921 35.4436 53.5782 35.0153C53.8644 34.587 54.0171 34.0835 54.0171 33.5685C54.0163 32.8777 53.7414 32.2155 53.2529 31.7272C52.7644 31.2389 52.102 30.9644 51.4113 30.964ZM51.4113 34.5985C51.2076 34.5982 51.0086 34.5376 50.8394 34.4242C50.6702 34.3109 50.5384 34.15 50.4606 33.9617C50.3829 33.7735 50.3627 33.5664 50.4026 33.3667C50.4425 33.167 50.5407 32.9836 50.6847 32.8397C50.8288 32.6958 51.0124 32.5978 51.2121 32.5582C51.4119 32.5185 51.6189 32.539 51.8071 32.617C51.9952 32.695 52.156 32.827 52.2691 32.9964C52.3822 33.1657 52.4426 33.3648 52.4426 33.5685C52.4423 33.8418 52.3335 34.1038 52.1401 34.2969C51.9467 34.49 51.6846 34.5985 51.4113 34.5985Z" fill="#DC79FF"/>
<path d="M10.5189 39.4833C10.0036 39.4831 9.49981 39.6358 9.0713 39.922C8.64278 40.2083 8.30878 40.6151 8.11152 41.0912C7.91426 41.5672 7.86261 42.0911 7.96311 42.5965C8.06361 43.1019 8.31174 43.5662 8.67612 43.9305C9.04049 44.2949 9.50474 44.543 10.0102 44.6435C10.5156 44.744 11.0394 44.6924 11.5155 44.4951C11.9915 44.2979 12.3984 43.9639 12.6846 43.5353C12.9708 43.1068 13.1235 42.6031 13.1234 42.0878C13.1224 41.3973 12.8477 40.7354 12.3595 40.2472C11.8712 39.759 11.2093 39.4842 10.5189 39.4833ZM10.5189 43.1191C10.315 43.1192 10.1157 43.0589 9.94618 42.9457C9.77662 42.8326 9.64442 42.6717 9.56629 42.4834C9.48817 42.2952 9.46762 42.0879 9.50726 41.888C9.5469 41.688 9.64495 41.5043 9.78899 41.3601C9.93304 41.2159 10.1166 41.1176 10.3165 41.0777C10.5164 41.0378 10.7237 41.0581 10.912 41.136C11.1004 41.2139 11.2615 41.3459 11.3748 41.5153C11.4882 41.6847 11.5487 41.8839 11.5489 42.0878C11.5486 42.361 11.44 42.6229 11.2469 42.8162C11.0539 43.0095 10.7921 43.1184 10.5189 43.1191Z" fill="#DC79FF"/>
<path d="M20.7415 39.4833C20.2262 39.4831 19.7225 39.6358 19.294 39.922C18.8654 40.2083 18.5314 40.6151 18.3342 41.0912C18.1369 41.5672 18.0853 42.0911 18.1858 42.5965C18.2863 43.1019 18.5344 43.5662 18.8988 43.9305C19.2631 44.2949 19.7274 44.543 20.2328 44.6435C20.7382 44.744 21.2621 44.6924 21.7381 44.4951C22.2142 44.2979 22.621 43.9639 22.9073 43.5353C23.1935 43.1068 23.3462 42.6031 23.346 42.0878C23.3452 41.3973 23.0706 40.7353 22.5823 40.247C22.094 39.7587 21.432 39.4841 20.7415 39.4833ZM20.7415 43.1191C20.5377 43.1192 20.3384 43.0589 20.1688 42.9457C19.9993 42.8326 19.8671 42.6717 19.7889 42.4834C19.7108 42.2952 19.6903 42.0879 19.7299 41.888C19.7696 41.688 19.8676 41.5043 20.0116 41.3601C20.1557 41.2159 20.3393 41.1176 20.5392 41.0777C20.7391 41.0378 20.9463 41.0581 21.1347 41.136C21.3231 41.2139 21.4841 41.3459 21.5975 41.5153C21.7108 41.6847 21.7714 41.8839 21.7715 42.0878C21.7714 42.361 21.6629 42.623 21.4698 42.8164C21.2767 43.0097 21.0148 43.1186 20.7415 43.1191Z" fill="#DC79FF"/>
<path d="M30.9652 39.4833C30.4499 39.4831 29.9461 39.6358 29.5176 39.922C29.0891 40.2083 28.7551 40.6151 28.5578 41.0912C28.3605 41.5672 28.3089 42.0911 28.4094 42.5965C28.5099 43.1019 28.758 43.5662 29.1224 43.9305C29.4868 44.2949 29.951 44.543 30.4564 44.6435C30.9618 44.744 31.4857 44.6924 31.9618 44.4951C32.4378 44.2979 32.8447 43.9639 33.1309 43.5353C33.4171 43.1068 33.5698 42.6031 33.5697 42.0878C33.5689 41.3973 33.2942 40.7353 32.8059 40.247C32.3177 39.7587 31.6557 39.4841 30.9652 39.4833ZM30.9652 43.1191C30.7613 43.1192 30.562 43.0589 30.3925 42.9457C30.2229 42.8326 30.0907 42.6717 30.0126 42.4834C29.9345 42.2952 29.9139 42.0879 29.9536 41.888C29.9932 41.688 30.0912 41.5043 30.2353 41.3601C30.3793 41.2159 30.5629 41.1176 30.7628 41.0777C30.9627 41.0378 31.1699 41.0581 31.3583 41.136C31.5467 41.2139 31.7077 41.3459 31.8211 41.5153C31.9345 41.6847 31.995 41.8839 31.9952 42.0878C31.995 42.361 31.8865 42.623 31.6934 42.8164C31.5003 43.0097 31.2384 43.1186 30.9652 43.1191Z" fill="#DC79FF"/>
<path d="M41.189 44.6936C41.7042 44.6937 42.2079 44.541 42.6364 44.2549C43.0649 43.9687 43.3989 43.5619 43.5962 43.086C43.7935 42.61 43.8452 42.0862 43.7448 41.5808C43.6444 41.0754 43.3964 40.6112 43.0322 40.2468C42.6679 39.8823 42.2038 39.6341 41.6985 39.5335C41.1932 39.4328 40.6694 39.4843 40.1933 39.6813C39.7172 39.8784 39.3102 40.2122 39.0239 40.6405C38.7375 41.0689 38.5846 41.5725 38.5845 42.0878C38.5851 42.7784 38.8597 43.4407 39.3479 43.9292C39.8362 44.4177 40.4983 44.6926 41.189 44.6936ZM41.189 41.0578C41.3929 41.0576 41.5922 41.118 41.7618 41.2312C41.9314 41.3444 42.0636 41.5054 42.1417 41.6937C42.2198 41.8821 42.2402 42.0893 42.2005 42.2893C42.1607 42.4893 42.0626 42.673 41.9184 42.8172C41.7742 42.9614 41.5905 43.0595 41.3905 43.0993C41.1905 43.139 40.9833 43.1186 40.7949 43.0405C40.6065 42.9624 40.4456 42.8302 40.3324 42.6606C40.2192 42.491 40.1588 42.2917 40.159 42.0878C40.1593 41.8147 40.2679 41.5529 40.461 41.3598C40.6541 41.1668 40.9159 41.0581 41.189 41.0578Z" fill="#DC79FF"/>
<path d="M51.4111 39.4833C50.8959 39.4834 50.3922 39.6363 49.9639 39.9227C49.5356 40.209 49.2018 40.616 49.0047 41.0921C48.8076 41.5682 48.7562 42.092 48.8568 42.5973C48.9575 43.1026 49.2057 43.5668 49.5701 43.931C49.9346 44.2952 50.3988 44.5432 50.9042 44.6436C51.4096 44.744 51.9334 44.6923 52.4093 44.495C52.8853 44.2977 53.2921 43.9637 53.5782 43.5352C53.8644 43.1067 54.0171 42.603 54.0169 42.0878C54.0161 41.397 53.7413 40.7348 53.2527 40.2465C52.7642 39.7582 52.1019 39.4837 51.4111 39.4833ZM51.4111 43.1191C51.2073 43.1189 51.0082 43.0584 50.8388 42.9451C50.6694 42.8318 50.5374 42.6708 50.4595 42.4825C50.3815 42.2942 50.3612 42.087 50.401 41.8872C50.4408 41.6873 50.5389 41.5037 50.683 41.3596C50.8271 41.2155 51.0107 41.1174 51.2106 41.0776C51.4104 41.0378 51.6176 41.0582 51.8059 41.1361C51.9942 41.214 52.1552 41.346 52.2685 41.5154C52.3818 41.6848 52.4423 41.884 52.4424 42.0878C52.4423 42.3612 52.3336 42.6235 52.1402 42.8168C51.9468 43.0102 51.6846 43.1189 51.4111 43.1191Z" fill="#DC79FF"/>
<path d="M10.5189 48.0027C10.0036 48.0026 9.49981 48.1553 9.0713 48.4415C8.64278 48.7277 8.30878 49.1345 8.11152 49.6106C7.91426 50.0866 7.86261 50.6105 7.96311 51.1159C8.06361 51.6213 8.31174 52.0856 8.67612 52.4499C9.04049 52.8143 9.50474 53.0624 10.0102 53.1629C10.5156 53.2634 11.0394 53.2118 11.5155 53.0145C11.9915 52.8173 12.3984 52.4833 12.6846 52.0548C12.9708 51.6262 13.1235 51.1225 13.1234 50.6072C13.1224 49.9167 12.8477 49.2548 12.3595 48.7666C11.8712 48.2784 11.2093 48.0037 10.5189 48.0027ZM10.5189 51.6385C10.315 51.6386 10.1157 51.5783 9.94618 51.4651C9.77662 51.352 9.64442 51.1911 9.56629 51.0028C9.48817 50.8146 9.46762 50.6073 9.50726 50.4074C9.5469 50.2074 9.64495 50.0237 9.78899 49.8795C9.93304 49.7353 10.1166 49.637 10.3165 49.5971C10.5164 49.5572 10.7237 49.5775 10.912 49.6554C11.1004 49.7333 11.2615 49.8653 11.3748 50.0347C11.4882 50.2041 11.5487 50.4033 11.5489 50.6072C11.5486 50.8804 11.44 51.1423 11.2469 51.3356C11.0539 51.5289 10.7921 51.6378 10.5189 51.6385Z" fill="#DC79FF"/>
<path d="M20.7415 48.0027C20.2262 48.0026 19.7225 48.1553 19.294 48.4415C18.8654 48.7277 18.5314 49.1345 18.3342 49.6106C18.1369 50.0866 18.0853 50.6105 18.1858 51.1159C18.2863 51.6213 18.5344 52.0856 18.8988 52.4499C19.2631 52.8143 19.7274 53.0624 20.2328 53.1629C20.7382 53.2634 21.2621 53.2118 21.7381 53.0145C22.2142 52.8173 22.621 52.4833 22.9073 52.0548C23.1935 51.6262 23.3462 51.1225 23.346 50.6072C23.3452 49.9167 23.0706 49.2547 22.5823 48.7664C22.094 48.2781 21.432 48.0035 20.7415 48.0027ZM20.7415 51.6385C20.5377 51.6386 20.3384 51.5783 20.1688 51.4651C19.9993 51.352 19.8671 51.1911 19.7889 51.0028C19.7108 50.8146 19.6903 50.6073 19.7299 50.4074C19.7696 50.2074 19.8676 50.0237 20.0116 49.8795C20.1557 49.7353 20.3393 49.637 20.5392 49.5971C20.7391 49.5572 20.9463 49.5775 21.1347 49.6554C21.3231 49.7333 21.4841 49.8653 21.5975 50.0347C21.7108 50.2041 21.7714 50.4033 21.7715 50.6072C21.7714 50.8804 21.6629 51.1425 21.4698 51.3358C21.2767 51.5291 21.0148 51.638 20.7415 51.6385Z" fill="#DC79FF"/>
<path d="M30.9652 48.0027C30.4499 48.0026 29.9461 48.1553 29.5176 48.4415C29.0891 48.7277 28.7551 49.1345 28.5578 49.6106C28.3605 50.0866 28.3089 50.6105 28.4094 51.1159C28.5099 51.6213 28.758 52.0856 29.1224 52.4499C29.4868 52.8143 29.951 53.0624 30.4564 53.1629C30.9618 53.2634 31.4857 53.2118 31.9618 53.0145C32.4378 52.8173 32.8447 52.4833 33.1309 52.0548C33.4171 51.6262 33.5698 51.1225 33.5697 50.6072C33.5689 49.9167 33.2942 49.2547 32.8059 48.7664C32.3177 48.2781 31.6557 48.0035 30.9652 48.0027ZM30.9652 51.6385C30.7613 51.6386 30.562 51.5783 30.3925 51.4651C30.2229 51.352 30.0907 51.1911 30.0126 51.0028C29.9345 50.8146 29.9139 50.6073 29.9536 50.4074C29.9932 50.2074 30.0912 50.0237 30.2353 49.8795C30.3793 49.7353 30.5629 49.637 30.7628 49.5971C30.9627 49.5572 31.1699 49.5775 31.3583 49.6554C31.5467 49.7333 31.7077 49.8653 31.8211 50.0347C31.9345 50.2041 31.995 50.4033 31.9952 50.6072C31.995 50.8804 31.8865 51.1425 31.6934 51.3358C31.5003 51.5291 31.2384 51.638 30.9652 51.6385Z" fill="#DC79FF"/>
<path d="M46.0545 38.0872C46.0545 37.8784 45.9715 37.6782 45.8239 37.5306C45.6763 37.3829 45.476 37.3 45.2672 37.3H37.0011C36.7923 37.3 36.5921 37.3829 36.4444 37.5306C36.2968 37.6782 36.2139 37.8784 36.2139 38.0872V46.3534C36.2139 46.5622 36.2968 46.7624 36.4444 46.91C36.5921 47.0577 36.7923 47.1406 37.0011 47.1406H45.2672C45.476 47.1406 45.6763 47.0577 45.8239 46.91C45.9715 46.7624 46.0545 46.5622 46.0545 46.3534V38.0872ZM44.48 45.5661H37.7884V38.8745H44.48V45.5661Z" fill="#023E8A"/>
</svg>
