<svg width="297" height="87" viewBox="0 0 297 87" fill="none" xmlns="http://www.w3.org/2000/svg">
<path d="M286 87H11C4.84 87 0 81.9975 0 76.125V10.875C0 4.785 5.06 0 11 0H286C292.16 0 297 5.0025 297 10.875V76.125C297 82.215 292.16 87 286 87Z" fill="black"/>
<path d="M286 1.74C291.06 1.74 295.24 5.8725 295.24 10.875V76.125C295.24 81.1275 291.06 85.26 286 85.26H11C5.94 85.26 1.76 81.1275 1.76 76.125V10.875C1.76 5.8725 5.94 1.74 11 1.74H286ZM286 0H11C5.06 0 0 5.0025 0 10.875V76.125C0 82.215 5.06 87 11 87H286C292.16 87 297 81.9975 297 76.125V10.875C297 5.0025 292.16 0 286 0Z" fill="#A6A6A6"/>
<path d="M104.28 22.1851C104.28 23.9251 103.84 25.4476 102.74 26.5351C101.42 27.8401 99.8801 28.4926 97.9001 28.4926C95.9201 28.4926 94.3801 27.8401 93.0601 26.5351C91.7401 25.2301 91.0801 23.7076 91.0801 21.7501C91.0801 19.7926 91.7401 18.2701 93.0601 16.9651C94.3801 15.6601 95.9201 15.0076 97.9001 15.0076C98.7801 15.0076 99.6601 15.2251 100.54 15.6601C101.42 16.0951 102.08 16.5301 102.52 17.1826L101.42 18.2701C100.54 17.1826 99.4401 16.7476 97.9001 16.7476C96.5801 16.7476 95.2601 17.1826 94.3801 18.2701C93.2801 19.1401 92.8401 20.4451 92.8401 21.9676C92.8401 23.4901 93.2801 24.7951 94.3801 25.6651C95.4801 26.5351 96.5801 27.1876 97.9001 27.1876C99.4401 27.1876 100.54 26.7526 101.64 25.6651C102.3 25.0126 102.74 24.1426 102.74 23.0551H97.9001V21.3151H104.28C104.28 21.5326 104.28 21.9676 104.28 22.1851Z" fill="white" stroke="white" stroke-width="0.2" stroke-miterlimit="10"/>
<path d="M114.4 16.7475H108.46V20.88H113.96V22.4025H108.46V26.535H114.4V28.275H106.7V15.225H114.4V16.7475Z" fill="white" stroke="white" stroke-width="0.2" stroke-miterlimit="10"/>
<path d="M121.66 28.275H119.9V16.7475H116.16V15.225H125.4V16.7475H121.66V28.275Z" fill="white" stroke="white" stroke-width="0.2" stroke-miterlimit="10"/>
<path d="M131.78 28.275V15.225H133.54V28.275H131.78Z" fill="white" stroke="white" stroke-width="0.2" stroke-miterlimit="10"/>
<path d="M141.02 28.275H139.26V16.7475H135.52V15.225H144.54V16.7475H140.8V28.275H141.02Z" fill="white" stroke="white" stroke-width="0.2" stroke-miterlimit="10"/>
<path d="M161.92 26.5351C160.6 27.8401 159.06 28.4926 157.08 28.4926C155.1 28.4926 153.56 27.8401 152.24 26.5351C150.92 25.2301 150.26 23.7076 150.26 21.7501C150.26 19.7926 150.92 18.2701 152.24 16.9651C153.56 15.6601 155.1 15.0076 157.08 15.0076C159.06 15.0076 160.6 15.6601 161.92 16.9651C163.24 18.2701 163.9 19.7926 163.9 21.7501C163.9 23.7076 163.24 25.2301 161.92 26.5351ZM153.56 25.4476C154.44 26.3176 155.76 26.9701 157.08 26.9701C158.4 26.9701 159.72 26.5351 160.6 25.4476C161.48 24.5776 162.14 23.2726 162.14 21.7501C162.14 20.2276 161.7 18.9226 160.6 18.0526C159.72 17.1826 158.4 16.5301 157.08 16.5301C155.76 16.5301 154.44 16.9651 153.56 18.0526C152.68 18.9226 152.02 20.2276 152.02 21.7501C152.02 23.2726 152.46 24.5776 153.56 25.4476Z" fill="white" stroke="white" stroke-width="0.2" stroke-miterlimit="10"/>
<path d="M166.32 28.275V15.225H168.3L174.68 25.4475V22.8375V15.225H176.44V28.275H174.68L167.86 17.6175V20.2275V28.275H166.32Z" fill="white" stroke="white" stroke-width="0.2" stroke-miterlimit="10"/>
<path d="M149.82 47.415C144.54 47.415 140.36 51.33 140.36 56.7675C140.36 61.9875 144.54 66.12 149.82 66.12C155.1 66.12 159.28 62.205 159.28 56.7675C159.28 51.1125 155.1 47.415 149.82 47.415ZM149.82 62.205C146.96 62.205 144.54 59.8125 144.54 56.55C144.54 53.2875 146.96 50.895 149.82 50.895C152.68 50.895 155.1 53.07 155.1 56.55C155.1 59.8125 152.68 62.205 149.82 62.205ZM129.36 47.415C124.08 47.415 119.9 51.33 119.9 56.7675C119.9 61.9875 124.08 66.12 129.36 66.12C134.64 66.12 138.82 62.205 138.82 56.7675C138.82 51.1125 134.64 47.415 129.36 47.415ZM129.36 62.205C126.5 62.205 124.08 59.8125 124.08 56.55C124.08 53.2875 126.5 50.895 129.36 50.895C132.22 50.895 134.64 53.07 134.64 56.55C134.64 59.8125 132.22 62.205 129.36 62.205ZM104.94 50.2425V54.1575H114.4C114.18 56.3325 113.3 58.0725 112.2 59.16C110.88 60.465 108.68 61.9875 104.94 61.9875C98.9999 61.9875 94.5999 57.42 94.5999 51.5475C94.5999 45.675 99.2199 41.1075 104.94 41.1075C108.02 41.1075 110.44 42.4125 112.2 43.935L115.06 41.1075C112.64 38.9325 109.56 37.1925 105.16 37.1925C97.2399 37.1925 90.4199 43.7175 90.4199 51.5475C90.4199 59.3775 97.2399 65.9025 105.16 65.9025C109.56 65.9025 112.64 64.5975 115.28 61.77C117.92 59.16 118.8 55.4625 118.8 52.635C118.8 51.765 118.8 50.895 118.58 50.2425H104.94ZM204.82 53.2875C203.94 51.1125 201.74 47.415 196.9 47.415C192.06 47.415 188.1 51.1125 188.1 56.7675C188.1 61.9875 192.06 66.12 197.34 66.12C201.52 66.12 204.16 63.51 205.04 61.9875L201.96 59.8125C200.86 61.335 199.54 62.4225 197.34 62.4225C195.14 62.4225 193.82 61.5525 192.72 59.595L205.26 54.375L204.82 53.2875ZM192.06 56.3325C192.06 52.8525 194.92 50.895 196.9 50.895C198.44 50.895 199.98 51.765 200.42 52.8525L192.06 56.3325ZM181.72 65.25H185.9V38.0625H181.72V65.25ZM175.12 49.3725C174.02 48.285 172.26 47.1975 170.06 47.1975C165.44 47.1975 161.04 51.33 161.04 56.55C161.04 61.77 165.22 65.685 170.06 65.685C172.26 65.685 174.02 64.5975 174.9 63.51H175.12V64.815C175.12 68.295 173.14 70.2525 170.06 70.2525C167.64 70.2525 165.88 68.5125 165.44 66.99L161.92 68.5125C163.02 70.905 165.66 73.95 170.28 73.95C175.12 73.95 179.08 71.1225 179.08 64.38V47.85H175.12V49.3725ZM170.28 62.205C167.42 62.205 165 59.8125 165 56.55C165 53.2875 167.42 50.895 170.28 50.895C173.14 50.895 175.34 53.2875 175.34 56.55C175.34 59.8125 173.14 62.205 170.28 62.205ZM223.96 38.0625H214.06V65.25H218.24V55.0275H223.96C228.58 55.0275 232.98 51.765 232.98 46.545C232.98 41.325 228.58 38.0625 223.96 38.0625ZM224.18 51.1125H218.24V41.76H224.18C227.26 41.76 229.02 44.37 229.02 46.3275C228.8 48.72 227.04 51.1125 224.18 51.1125ZM249.48 47.1975C246.4 47.1975 243.32 48.5025 242.22 51.33L245.96 52.8525C246.84 51.33 248.16 50.895 249.7 50.895C251.9 50.895 253.88 52.2 254.1 54.375V54.5925C253.44 54.1575 251.68 53.505 249.92 53.505C245.96 53.505 242 55.68 242 59.595C242 63.2925 245.3 65.685 248.82 65.685C251.68 65.685 253 64.38 254.1 63.075H254.32V65.25H258.28V54.81C257.84 50.025 254.1 47.1975 249.48 47.1975ZM249.04 62.205C247.72 62.205 245.74 61.5525 245.74 59.8125C245.74 57.6375 248.16 56.985 250.14 56.985C251.9 56.985 252.78 57.42 253.88 57.855C253.44 60.465 251.24 62.205 249.04 62.205ZM272.14 47.85L267.52 59.595H267.3L262.46 47.85H258.06L265.32 64.38L261.14 73.515H265.32L276.54 47.85H272.14ZM235.18 65.25H239.36V38.0625H235.18V65.25Z" fill="white"/>
<path d="M22.88 16.3125C22.22 16.965 22 18.0525 22 19.3575V67.425C22 68.73 22.44 69.8175 23.1 70.47L23.32 70.6875L50.6 43.7175V43.5V43.2825L22.88 16.3125Z" fill="url(#paint0_linear)"/>
<path d="M59.3999 52.8524L50.3799 43.9349V43.4999V43.2824L59.3999 34.3649L59.6199 34.5824L70.3999 40.6724C73.4799 42.4124 73.4799 45.2399 70.3999 46.9799L59.3999 52.8524Z" fill="url(#paint1_linear)"/>
<path d="M59.6199 52.635L50.3799 43.5L22.8799 70.6875C23.9799 71.775 25.5199 71.775 27.4999 70.905L59.6199 52.635Z" fill="url(#paint2_linear)"/>
<path d="M59.6199 34.3649L27.4999 16.3124C25.5199 15.2249 23.9799 15.4424 22.8799 16.5299L50.3799 43.4999L59.6199 34.3649Z" fill="url(#paint3_linear)"/>
<path opacity="0.2" d="M59.3999 52.4175L27.4999 70.2525C25.7399 71.34 24.1999 71.1225 23.0999 70.2525L22.8799 70.47L23.0999 70.6875C24.1999 71.5575 25.7399 71.775 27.4999 70.6875L59.3999 52.4175Z" fill="black"/>
<path opacity="0.12" d="M22.88 70.2525C22.22 69.6 22 68.5125 22 67.2075V67.425C22 68.73 22.44 69.8175 23.1 70.47V70.2525H22.88Z" fill="black"/>
<path opacity="0.12" d="M70.3999 46.3275L59.3999 52.4175L59.6199 52.635L70.3999 46.545C71.9399 45.675 72.5999 44.5875 72.5999 43.5C72.5999 44.5875 71.7199 45.4575 70.3999 46.3275Z" fill="black"/>
<path opacity="0.25" d="M27.5 16.5299L70.4 40.6724C71.72 41.5424 72.6 42.4124 72.6 43.4999C72.6 42.4124 71.94 41.3249 70.4 40.4549L27.5 16.3124C24.42 14.5724 22 15.8774 22 19.3574V19.5749C22 16.3124 24.42 14.7899 27.5 16.5299Z" fill="white"/>
<defs>
<linearGradient id="paint0_linear" x1="47.9591" y1="18.9438" x2="11.4598" y2="55.8627" gradientUnits="userSpaceOnUse">
<stop stop-color="#00A0FF"/>
<stop offset="0.00657445" stop-color="#00A1FF"/>
<stop offset="0.2601" stop-color="#00BEFF"/>
<stop offset="0.5122" stop-color="#00D2FF"/>
<stop offset="0.7604" stop-color="#00DFFF"/>
<stop offset="1" stop-color="#00E3FF"/>
</linearGradient>
<linearGradient id="paint1_linear" x1="74.4353" y1="43.5031" x2="21.2022" y2="43.5031" gradientUnits="userSpaceOnUse">
<stop stop-color="#FFE000"/>
<stop offset="0.4087" stop-color="#FFBD00"/>
<stop offset="0.7754" stop-color="#FFA500"/>
<stop offset="1" stop-color="#FF9C00"/>
</linearGradient>
<linearGradient id="paint2_linear" x1="54.6191" y1="48.4942" x2="5.123" y2="98.5592" gradientUnits="userSpaceOnUse">
<stop stop-color="#FF3A44"/>
<stop offset="1" stop-color="#C31162"/>
</linearGradient>
<linearGradient id="paint3_linear" x1="16.0537" y1="0.383342" x2="38.1559" y2="22.7394" gradientUnits="userSpaceOnUse">
<stop stop-color="#32A071"/>
<stop offset="0.0685" stop-color="#2DA771"/>
<stop offset="0.4762" stop-color="#15CF74"/>
<stop offset="0.8009" stop-color="#06E775"/>
<stop offset="1" stop-color="#00F076"/>
</linearGradient>
</defs>
</svg>
