<svg width="392" height="392" viewBox="0 0 392 392" fill="none" xmlns="http://www.w3.org/2000/svg">
<path d="M193.703 49.5398C193.667 47.9706 193.945 46.4099 194.522 44.95C195.099 43.4901 195.962 42.1605 197.061 41.0397C198.16 39.9189 199.472 39.0296 200.921 38.4244C202.369 37.8191 203.924 37.5102 205.494 37.5157H190.181C188.612 37.5102 187.057 37.819 185.609 38.4241C184.161 39.0291 182.849 39.918 181.75 41.0384C180.651 42.1587 179.787 43.4879 179.21 44.9473C178.634 46.4068 178.355 47.967 178.391 49.536V62.0157H193.703V49.5398Z" fill="#D4E1F4"/>
<path d="M193.703 71.2031H178.391V159.598L193.703 147.473V71.2031Z" fill="#D4E1F4"/>
<path d="M215.574 206.25L245.56 176.27C251.123 170.706 254.248 163.16 254.248 155.292C254.248 147.424 251.123 139.878 245.56 134.314L239.649 128.403C238.852 127.606 237.791 127.13 236.666 127.065C235.542 127 234.432 127.35 233.549 128.049L228.21 132.277L230.247 134.314C235.81 139.878 238.936 147.424 238.936 155.292C238.936 163.16 235.81 170.706 230.247 176.27L200.261 206.25C197.561 208.948 195.933 212.535 195.682 216.344C195.75 220.43 196.68 224.455 198.412 228.156H213.725C211.993 224.455 211.063 220.43 210.995 216.344C211.246 212.535 212.873 208.948 215.574 206.25Z" fill="#D4E1F4"/>
<path d="M216.147 237.344H200.834C201.172 240.314 201.268 243.308 201.121 246.294C200.79 253.731 199.204 261.06 196.43 267.969H211.743C214.516 261.06 216.102 253.731 216.433 246.294C216.58 243.308 216.484 240.314 216.147 237.344Z" fill="#D4E1F4"/>
<path d="M269.264 269.106C268.771 268.76 268.214 268.513 267.625 268.382C267.036 268.25 266.427 268.236 265.833 268.34C265.239 268.444 264.671 268.664 264.161 268.987C263.652 269.31 263.211 269.731 262.864 270.224L227.899 319.99C222.905 327.071 215.407 331.989 206.922 333.749C198.438 335.509 189.602 333.979 182.204 329.468C173.988 324.44 162.221 325.836 155.407 332.648L132.092 355.962C131.656 356.386 131.308 356.893 131.07 357.453C130.831 358.013 130.706 358.614 130.702 359.223C130.698 359.831 130.815 360.435 131.046 360.998C131.277 361.561 131.618 362.072 132.048 362.502C132.478 362.933 132.99 363.273 133.553 363.504C134.116 363.735 134.719 363.852 135.327 363.848C135.936 363.843 136.537 363.718 137.097 363.48C137.657 363.241 138.164 362.894 138.588 362.458L161.904 339.142C165.647 335.399 172.892 334.539 177.408 337.305C186.8 343.03 198.017 344.973 208.787 342.739C219.557 340.504 229.076 334.261 235.416 325.272L270.382 275.506C270.729 275.013 270.975 274.456 271.107 273.867C271.238 273.278 271.252 272.669 271.149 272.075C271.045 271.481 270.825 270.913 270.502 270.403C270.178 269.894 269.758 269.453 269.264 269.106Z" fill="#03045E"/>
<path d="M176.681 122.973C177.543 122.112 178.027 120.944 178.028 119.725C178.028 118.507 177.545 117.338 176.684 116.476C175.823 115.614 174.655 115.13 173.436 115.129C172.218 115.129 171.049 115.612 170.187 116.473L106.146 180.435C100.05 186.482 95.6095 193.993 93.2487 202.248C90.888 210.503 90.6864 219.226 92.6632 227.582L92.7703 228.041C93.5929 231.478 93.5193 235.069 92.5565 238.47C91.5937 241.87 89.774 244.967 87.2716 247.462C74.2675 260.448 53.1248 281.589 53.1248 281.589L59.6218 288.086C59.6218 288.086 80.7615 266.947 93.7634 253.962C97.3761 250.366 100.005 245.902 101.398 240.999C102.791 236.095 102.901 230.916 101.718 225.957L101.611 225.498C99.9937 218.664 100.158 211.529 102.089 204.777C104.019 198.025 107.651 191.881 112.636 186.935L176.681 122.973Z" fill="#03045E"/>
<path d="M303.188 228.156H191.406V237.344H303.188V256.116C303.188 262.818 297.383 267.969 290.68 267.969H189.875V277.156H290.68C302.449 277.156 312.375 267.885 312.375 256.116V227.391H303.188V228.156Z" fill="#FF8279"/>
<path d="M290.68 28.3281H190.181C187.405 28.324 184.656 28.8715 182.094 29.9389C179.532 31.0063 177.207 32.5723 175.255 34.5459C173.303 36.5196 171.763 38.8614 170.724 41.4354C169.685 44.0094 169.168 46.7642 169.203 49.5398V171.5H178.391V71.2032H246.201C247.42 71.2032 248.588 70.7192 249.449 69.8577C250.311 68.9962 250.795 67.8277 250.795 66.6094C250.795 65.3911 250.311 64.2226 249.449 63.3611C248.588 62.4996 247.42 62.0157 246.201 62.0157H178.391V49.536C178.355 47.967 178.634 46.4067 179.211 44.9473C179.788 43.4878 180.651 42.1587 181.75 41.0383C182.849 39.9179 184.161 39.029 185.609 38.424C187.057 37.819 188.612 37.5101 190.181 37.5156H290.68C297.382 37.5156 303.187 42.8367 303.187 49.5398V62.0157H288.819C287.601 62.0157 286.432 62.4996 285.571 63.3611C284.709 64.2226 284.225 65.3911 284.225 66.6094C284.225 67.8277 284.709 68.9962 285.571 69.8577C286.432 70.7192 287.601 71.2032 288.819 71.2032H303.187V75.0313H312.375V49.5398C312.375 37.7714 302.449 28.3281 290.68 28.3281Z" fill="#FF8279"/>
<path d="M270.847 71.2031C272.066 71.2031 273.234 70.7191 274.096 69.8576C274.957 68.9961 275.441 67.8277 275.441 66.6094C275.441 65.391 274.957 64.2226 274.096 63.3611C273.234 62.4996 272.066 62.0156 270.847 62.0156H263.897C262.679 62.0156 261.51 62.4996 260.649 63.3611C259.787 64.2226 259.303 65.391 259.303 66.6094C259.303 67.8277 259.787 68.9961 260.649 69.8576C261.51 70.7191 262.679 71.2031 263.897 71.2031H270.847Z" fill="#FF8279"/>
<path d="M252.47 252.766C252.471 250.386 251.765 248.058 250.442 246.078C249.119 244.099 247.239 242.556 245.04 241.644C242.84 240.733 240.42 240.495 238.084 240.959C235.749 241.423 233.604 242.57 231.921 244.253C230.237 245.937 229.09 248.082 228.626 250.417C228.161 252.752 228.4 255.173 229.311 257.372C230.222 259.572 231.765 261.452 233.744 262.775C235.724 264.098 238.052 264.804 240.432 264.804C243.624 264.8 246.684 263.531 248.94 261.274C251.197 259.017 252.467 255.958 252.47 252.766ZM237.582 252.766C237.582 252.203 237.749 251.652 238.062 251.183C238.375 250.714 238.82 250.348 239.341 250.132C239.862 249.917 240.435 249.86 240.988 249.97C241.541 250.08 242.049 250.351 242.448 250.75C242.846 251.149 243.118 251.656 243.228 252.209C243.338 252.762 243.282 253.335 243.066 253.856C242.85 254.377 242.485 254.822 242.016 255.136C241.547 255.449 240.996 255.616 240.432 255.616C239.677 255.615 238.953 255.315 238.418 254.78C237.884 254.246 237.583 253.522 237.582 252.766Z" fill="#FF8279"/>
<path d="M230.247 176.27C235.81 170.706 238.936 163.16 238.936 155.292C238.936 147.424 235.81 139.878 230.247 134.314L224.336 128.403C223.54 127.606 222.478 127.13 221.354 127.065C220.229 127 219.12 127.35 218.237 128.049L137.939 191.627C136.988 192.385 136.377 193.489 136.239 194.697C136.101 195.904 136.447 197.117 137.202 198.07C137.956 199.023 139.058 199.638 140.265 199.781C141.472 199.923 142.686 199.581 143.642 198.83L220.729 137.79L223.748 140.807C227.589 144.648 229.746 149.858 229.746 155.29C229.746 160.722 227.589 165.932 223.748 169.773L193.763 199.758C189.438 204.083 186.855 209.847 186.506 215.952C186.501 216.04 186.498 216.195 186.498 216.283C186.551 221.782 187.792 227.204 190.138 232.177C191.598 235.368 192.205 239.996 191.946 245.93C191.222 260.573 185.016 274.407 174.562 284.685C170.135 289.122 164.87 292.637 159.074 295.024C153.278 297.411 147.066 298.625 140.798 298.594H140.408C139.189 298.594 138.021 299.078 137.159 299.939C136.298 300.801 135.814 301.969 135.814 303.187C135.814 304.406 136.298 305.574 137.159 306.436C138.021 307.297 139.189 307.781 140.408 307.781H140.798C148.274 307.816 155.681 306.366 162.592 303.517C169.503 300.667 175.78 296.474 181.059 291.181C193.141 279.265 200.303 263.244 201.124 246.294C201.449 238.892 200.564 232.863 198.493 228.337C196.712 224.586 195.755 220.496 195.686 216.344C195.937 212.535 197.564 208.948 200.265 206.25L230.247 176.27Z" fill="#03045E"/>
<path d="M328.875 187.64C331.847 185.504 334.244 182.664 335.851 179.375C337.457 176.086 338.224 172.45 338.081 168.792C337.939 165.134 336.892 161.569 335.034 158.414C333.176 155.26 330.566 152.616 327.436 150.717C331.232 148.852 334.415 145.938 336.607 142.32C338.799 138.703 339.909 134.533 339.805 130.305C339.702 126.076 338.389 121.966 336.023 118.46C333.656 114.954 330.335 112.199 326.452 110.522C331.413 107.777 335.132 103.235 336.844 97.8307C338.556 92.4264 338.13 86.5713 335.655 81.4712C333.18 76.3712 328.843 72.4143 323.538 70.4155C318.233 68.4167 312.364 68.5282 307.139 70.7269L274.774 84.3428C272.093 85.4705 269.659 87.1154 267.614 89.1836C265.568 91.2518 263.949 93.7028 262.851 96.3966C261.753 99.0903 261.196 101.974 261.212 104.883C261.228 107.792 261.818 110.67 262.946 113.351C264.222 116.384 266.158 119.094 268.615 121.284C271.071 123.473 273.985 125.087 277.145 126.007C274.253 129.13 272.321 133.02 271.581 137.212C270.84 141.404 271.321 145.72 272.967 149.646C275.062 154.665 278.944 158.73 283.861 161.054C281.34 163.655 279.495 166.836 278.488 170.317C277.482 173.798 277.345 177.472 278.09 181.018C278.834 184.564 280.437 187.873 282.758 190.655C285.079 193.437 288.048 195.608 291.403 196.975C291.674 197.086 291.946 197.187 292.22 197.286C289.188 201.343 287.638 206.316 287.828 211.376C288.018 216.437 289.937 221.28 293.265 225.097C296.592 228.915 301.127 231.477 306.115 232.357C311.102 233.236 316.24 232.38 320.673 229.93L328.578 226.441L328.648 226.41C328.767 226.355 328.89 226.291 329.007 226.225C332.423 224.287 335.263 221.475 337.233 218.078C339.204 214.681 340.236 210.82 340.222 206.892C340.208 202.965 339.15 199.112 337.156 195.728C335.161 192.344 332.303 189.552 328.873 187.638L328.875 187.64ZM271.414 109.791C270.754 108.222 270.409 106.538 270.399 104.836C270.39 103.134 270.716 101.446 271.359 99.87C272.001 98.2938 272.948 96.8596 274.145 95.6494C275.342 94.4392 276.766 93.4767 278.335 92.8167L310.7 79.2001C312.269 78.54 313.952 78.1955 315.655 78.1861C317.357 78.1767 319.044 78.5027 320.62 79.1454C322.196 79.7881 323.631 80.735 324.841 81.932C326.051 83.129 327.014 84.5527 327.674 86.1217C328.334 87.6907 328.679 89.3744 328.688 91.0766C328.697 92.7788 328.371 94.4662 327.729 96.0424C327.086 97.6186 326.139 99.0528 324.942 100.263C323.745 101.473 322.321 102.436 320.752 103.096L288.388 116.713C285.219 118.041 281.652 118.059 278.47 116.761C275.288 115.464 272.75 112.957 271.414 109.791ZM288.358 129.113L312.628 118.902C315.797 117.569 319.366 117.549 322.549 118.847C325.732 120.145 328.269 122.654 329.603 125.823C330.936 128.992 330.955 132.561 329.657 135.744C328.359 138.927 325.85 141.464 322.681 142.797L298.411 153.009C295.242 154.342 291.673 154.362 288.49 153.064C285.307 151.765 282.769 149.256 281.436 146.087C280.106 142.918 280.088 139.35 281.386 136.167C282.684 132.984 285.192 130.446 288.359 129.11L288.358 129.113ZM287.822 181.495C286.493 178.326 286.475 174.759 287.772 171.577C289.07 168.394 291.577 165.857 294.743 164.521L310.925 157.713C312.498 157.027 314.192 156.66 315.908 156.634C317.624 156.608 319.328 156.923 320.921 157.561C322.515 158.199 323.965 159.147 325.189 160.35C326.414 161.552 327.387 162.986 328.052 164.568C328.718 166.15 329.062 167.849 329.066 169.565C329.07 171.281 328.733 172.981 328.075 174.566C327.417 176.151 326.451 177.59 325.232 178.798C324.013 180.007 322.567 180.961 320.977 181.606L304.795 188.413C301.626 189.746 298.058 189.766 294.875 188.468C291.692 187.17 289.154 184.661 287.821 181.492L287.822 181.495ZM324.649 218.135L316.763 221.616C316.622 221.678 316.484 221.747 316.351 221.824C313.377 223.503 309.861 223.941 306.567 223.043C303.272 222.145 300.465 219.983 298.755 217.027C297.045 214.071 296.571 210.56 297.435 207.256C298.299 203.953 300.432 201.123 303.37 199.383L311.256 195.904C311.397 195.841 311.534 195.772 311.668 195.696C314.642 194.013 318.159 193.573 321.456 194.47C324.752 195.367 327.561 197.529 329.272 200.486C330.983 203.444 331.457 206.957 330.591 210.262C329.725 213.567 327.59 216.396 324.649 218.135Z" fill="#03045E"/>
</svg>
