<svg width="62" height="62" viewBox="0 0 62 62" fill="none" xmlns="http://www.w3.org/2000/svg">
<path d="M25.3299 38.5765C25.4305 38.4562 25.5034 38.3151 25.5433 38.1634C25.5831 38.0117 25.5891 37.8531 25.5607 37.6988C25.4545 37.1158 25.4983 36.5152 25.688 35.9537C25.8777 35.3922 26.2071 34.8882 26.6451 34.489C26.9509 34.2101 27.3047 33.9888 27.6893 33.836C27.0937 33.6004 26.4439 33.5367 25.8138 33.6521C25.1837 33.7676 24.5987 34.0575 24.1253 34.489C23.6872 34.8882 23.3579 35.3922 23.1682 35.9537C22.9785 36.5152 22.9347 37.1158 23.0409 37.6988C23.0693 37.853 23.0634 38.0116 23.0236 38.1632C22.9838 38.3149 22.9111 38.4559 22.8106 38.5763C22.7118 38.6948 22.5882 38.7901 22.4484 38.8554C22.3087 38.9207 22.1562 38.9545 22.002 38.9542H24.5218C24.6759 38.9544 24.8283 38.9207 24.9679 38.8554C25.1076 38.7901 25.2312 38.6949 25.3299 38.5765Z" fill="#D4E1F4"/>
<path d="M18.347 58.0045V41.2711C18.3448 40.6599 18.5852 40.0728 19.0154 39.6386C19.4456 39.2044 20.0305 38.9586 20.6417 38.955H18.1218C17.5106 38.9586 16.9258 39.2044 16.4956 39.6386C16.0654 40.0728 15.825 40.6599 15.8272 41.2711V58.0045C15.825 58.6158 16.0654 59.2029 16.4956 59.6371C16.9258 60.0713 17.5106 60.3171 18.1218 60.3206H20.6417C20.0305 60.3171 19.4456 60.0713 19.0154 59.6371C18.5852 59.2029 18.3448 58.6158 18.347 58.0045Z" fill="#D4E1F4"/>
<path d="M41.6446 60.3308L41.6922 54.1079C41.6933 53.9522 41.6601 53.7982 41.5949 53.6568C41.5298 53.5155 41.4342 53.3902 41.3151 53.2899C41.1961 53.1897 41.0563 53.1169 40.9059 53.0768C40.7555 53.0366 40.5981 53.0301 40.4449 53.0577C40.2405 53.0944 40.0331 53.1117 39.8254 53.1095C39.3426 53.1063 38.8657 53.0026 38.4252 52.8049C37.9847 52.6072 37.5902 52.3199 37.2668 51.9612C36.9435 51.6026 36.6985 51.1806 36.5473 50.722C36.3961 50.2634 36.3422 49.7784 36.3889 49.2978C36.4356 48.8172 36.5819 48.3516 36.8185 47.9307C37.0551 47.5098 37.3768 47.1428 37.7631 46.8531C38.1494 46.5635 38.5918 46.3574 39.0621 46.2482C39.5324 46.139 40.0204 46.129 40.4948 46.2188C40.648 46.2486 40.8058 46.2444 40.9571 46.2063C41.1085 46.1683 41.2495 46.0974 41.3704 45.9986C41.4912 45.8999 41.5888 45.7757 41.6562 45.635C41.7236 45.4943 41.7592 45.3404 41.7604 45.1844L41.8081 38.9813L39.2883 38.9611L39.2404 45.1844C39.2392 45.3404 39.2036 45.4943 39.1362 45.635C39.0688 45.7757 38.9712 45.8999 38.8504 45.9986C38.7296 46.0974 38.5885 46.1683 38.4372 46.2063C38.2859 46.2444 38.128 46.2486 37.9748 46.2188C37.5021 46.1328 37.0167 46.1458 36.5493 46.2569C36.0818 46.3681 35.6426 46.575 35.2592 46.8647C34.8758 47.1543 34.5567 47.5203 34.322 47.9395C34.0873 48.3588 33.9421 48.8222 33.8957 49.3004C33.8492 49.7786 33.9025 50.2613 34.0521 50.7179C34.2017 51.1745 34.4444 51.595 34.7649 51.953C35.0853 52.311 35.4766 52.5987 35.9139 52.7977C36.3512 52.9968 36.825 53.1029 37.3055 53.1095C37.5131 53.1117 37.7205 53.0944 37.925 53.0577C38.0782 53.0301 38.2356 53.0366 38.386 53.0768C38.5364 53.1169 38.6761 53.1897 38.7952 53.2899C38.9143 53.3902 39.0098 53.5155 39.075 53.6568C39.1401 53.7982 39.1734 53.9522 39.1723 54.1079L39.1246 60.3308L58.0326 60.4781H58.0507C58.1408 60.4776 58.2307 60.4717 58.3201 60.4606L41.6446 60.3308Z" fill="#D4E1F4"/>
<path d="M41.728 16.1417C41.12 16.1461 40.5381 16.3899 40.1086 16.8203C39.6791 17.2507 39.4365 17.833 39.4333 18.4411L39.4158 20.8428C39.4158 20.8532 39.4144 20.8633 39.4139 20.8735C39.4139 20.8867 39.413 20.9 39.4118 20.9131C39.4105 20.9262 39.4085 20.9372 39.4066 20.9493C39.4047 20.9614 39.403 20.9753 39.4003 20.988C39.3977 21.0007 39.3948 21.0113 39.3919 21.0229C39.389 21.0345 39.3857 21.0481 39.3819 21.0607C39.3781 21.0733 39.374 21.0832 39.3693 21.0946C39.3647 21.1059 39.3609 21.1184 39.3567 21.1298C39.3526 21.1413 39.3466 21.1516 39.3415 21.1624C39.3363 21.1731 39.331 21.1849 39.3251 21.1959C39.3192 21.2068 39.3133 21.2162 39.3071 21.2262C39.3009 21.2363 39.2945 21.2478 39.2876 21.2581C39.2806 21.2684 39.2739 21.2768 39.267 21.2861C39.2601 21.2954 39.2522 21.3066 39.2442 21.3164C39.2363 21.3263 39.2293 21.3332 39.2218 21.3416C39.2142 21.3501 39.2047 21.361 39.1956 21.3702C39.1865 21.3794 39.1796 21.3851 39.1716 21.3924C39.1618 21.4015 39.1522 21.4107 39.142 21.4191C39.1338 21.4259 39.125 21.4317 39.1168 21.4385C39.1061 21.4467 39.0955 21.455 39.0843 21.4627C39.0755 21.4688 39.0661 21.4741 39.057 21.4797C39.0455 21.4868 39.0343 21.4941 39.0225 21.5005C39.0128 21.5058 39.0026 21.5105 38.9926 21.5154C38.98 21.5212 38.9689 21.5272 38.9568 21.5324C38.9447 21.5376 38.935 21.5407 38.9241 21.545C38.9131 21.5493 38.9001 21.5542 38.8879 21.5576C38.8757 21.561 38.8637 21.5641 38.8518 21.5673C38.8398 21.5704 38.8281 21.574 38.816 21.5765C38.8039 21.579 38.7895 21.5809 38.7763 21.5829C38.7631 21.5849 38.7532 21.5869 38.7415 21.5882C38.7275 21.5897 38.7135 21.5901 38.6994 21.5909C38.689 21.5909 38.6788 21.5926 38.6682 21.5927L37.7854 21.6021C36.8685 21.6087 35.9915 21.9773 35.3451 22.6276C34.6988 23.2778 34.3356 24.1571 34.3345 25.074C34.3334 25.9908 34.6946 26.871 35.3394 27.5228C35.9842 28.1746 36.8604 28.5452 37.7772 28.554L38.6111 28.5666C38.6237 28.5666 38.6354 28.5683 38.6476 28.569C38.6599 28.5698 38.6728 28.57 38.6854 28.5714C38.698 28.5728 38.7114 28.5756 38.7245 28.5777C38.7376 28.5798 38.7486 28.5811 38.7603 28.5837C38.772 28.5864 38.7855 28.5903 38.7981 28.5938C38.8107 28.5974 38.8209 28.5995 38.8321 28.6032C38.8433 28.6068 38.8573 28.6122 38.8691 28.6169C38.881 28.6215 38.8908 28.6247 38.9013 28.6295C38.9117 28.6343 38.9251 28.6411 38.9368 28.647C38.9485 28.6529 38.9572 28.6566 38.967 28.662C38.9769 28.6674 38.9896 28.6759 39.0009 28.683C39.0102 28.6888 39.0198 28.6942 39.0289 28.7005C39.038 28.7068 39.0499 28.7164 39.0604 28.7245C39.0709 28.7325 39.0782 28.7371 39.0866 28.7446C39.095 28.7522 39.1054 28.762 39.1148 28.7707C39.1243 28.7794 39.1318 28.786 39.14 28.7942C39.1482 28.8023 39.1567 28.8126 39.1652 28.8219C39.1738 28.8312 39.1812 28.8393 39.1887 28.8483C39.1961 28.8574 39.2029 28.8677 39.2099 28.8776C39.217 28.8874 39.2248 28.897 39.2315 28.9072C39.2382 28.9174 39.2441 28.9275 39.2496 28.9375C39.2552 28.9476 39.2622 28.9588 39.2687 28.9699C39.2751 28.981 39.2786 28.991 39.2837 29.0015C39.2887 29.0121 39.2949 29.0245 39.2998 29.0364C39.3047 29.0484 39.3076 29.058 39.3114 29.0687C39.3151 29.0794 39.3206 29.0939 39.324 29.1065C39.3271 29.1173 39.3295 29.1288 39.3323 29.1399C39.3351 29.151 39.3392 29.1651 39.3417 29.1791C39.3439 29.1903 39.3451 29.2019 39.3466 29.2133C39.3487 29.2269 39.3511 29.2404 39.3523 29.2543C39.3533 29.2654 39.3533 29.2766 39.3538 29.2878C39.3538 29.3013 39.3557 29.3145 39.3556 29.3281L39.3002 37.4495H41.82L41.8754 29.3281C41.8754 29.3145 41.8743 29.3013 41.8737 29.2878C41.8737 29.2766 41.8737 29.2654 41.8721 29.2543C41.8709 29.2404 41.8685 29.2269 41.8665 29.2133C41.865 29.2019 41.8637 29.1903 41.8616 29.1791C41.859 29.1657 41.8553 29.1529 41.8521 29.1399C41.849 29.1269 41.8469 29.1173 41.8438 29.1065C41.8399 29.0939 41.8351 29.0813 41.8312 29.0687C41.8273 29.0561 41.824 29.047 41.8196 29.0364C41.8152 29.0259 41.8089 29.0131 41.8035 29.0015C41.7981 28.9899 41.7939 28.9802 41.7885 28.9699C41.7831 28.9596 41.7759 28.9484 41.7695 28.9375C41.763 28.9267 41.7579 28.917 41.7513 28.9072C41.7448 28.8973 41.7371 28.8874 41.7298 28.8776C41.7225 28.8677 41.7159 28.8578 41.7085 28.8483C41.701 28.8389 41.6929 28.8307 41.685 28.8219C41.6772 28.8131 41.6688 28.803 41.6598 28.7942C41.6509 28.7853 41.6431 28.7785 41.6346 28.7707C41.6262 28.7629 41.6163 28.753 41.6064 28.7446C41.5966 28.7363 41.5889 28.7312 41.5802 28.7245C41.5715 28.7178 41.5596 28.7081 41.5487 28.7005C41.5379 28.693 41.5301 28.6888 41.5208 28.683C41.5094 28.6759 41.4985 28.6685 41.4869 28.662C41.4753 28.6554 41.4667 28.652 41.4566 28.647C41.4465 28.642 41.4333 28.6344 41.4211 28.6295C41.4089 28.6246 41.3997 28.6213 41.389 28.6169C41.3783 28.6125 41.3645 28.6072 41.3519 28.6032C41.3393 28.5991 41.3294 28.5969 41.3179 28.5938C41.3064 28.5908 41.2927 28.5865 41.2801 28.5837C41.2675 28.581 41.2563 28.5797 41.2443 28.5777C41.2324 28.5757 41.2191 28.5729 41.2053 28.5714C41.1914 28.5699 41.1801 28.5698 41.1675 28.569C41.1549 28.5683 41.1433 28.5667 41.1309 28.5666L40.297 28.554C39.3802 28.5452 38.504 28.1746 37.8592 27.5228C37.2144 26.871 36.8532 25.9908 36.8543 25.074C36.8554 24.1571 37.2186 23.2778 37.865 22.6276C38.5113 21.9773 39.3884 21.6087 40.3052 21.6021L41.188 21.5927C41.1986 21.5927 41.2088 21.5914 41.2193 21.5909C41.2334 21.5901 41.2474 21.5897 41.2613 21.5882C41.2731 21.5869 41.2845 21.5847 41.2961 21.5829C41.3077 21.5811 41.3228 21.5791 41.3358 21.5765C41.3488 21.5738 41.3596 21.5704 41.3716 21.5673C41.3835 21.5641 41.3959 21.5614 41.4077 21.5576C41.4196 21.5538 41.4318 21.5489 41.4439 21.545C41.456 21.5411 41.4659 21.5372 41.4767 21.5324C41.4874 21.5276 41.5005 21.5212 41.5124 21.5154C41.5224 21.5105 41.5326 21.5058 41.5423 21.5005C41.5541 21.4941 41.5654 21.4868 41.5768 21.4797C41.5859 21.4741 41.5953 21.4688 41.6042 21.4627C41.6154 21.455 41.626 21.4467 41.6367 21.4385C41.6451 21.4321 41.6539 21.4259 41.6619 21.4191C41.6721 21.4107 41.6816 21.4015 41.6915 21.3924C41.6994 21.3851 41.7077 21.3779 41.7154 21.3702C41.7231 21.3626 41.733 21.3512 41.7416 21.3416C41.7502 21.3321 41.7569 21.3251 41.764 21.3164C41.7712 21.3077 41.7793 21.2963 41.7868 21.2861C41.7944 21.2759 41.8008 21.2678 41.8074 21.2581C41.8139 21.2484 41.82 21.2369 41.8269 21.2262C41.8338 21.2155 41.8395 21.2062 41.8449 21.1959C41.8503 21.1855 41.8559 21.1736 41.8613 21.1624C41.8667 21.1511 41.8719 21.1409 41.8766 21.1298C41.8812 21.1188 41.8855 21.1064 41.8892 21.0946C41.8928 21.0827 41.8976 21.0721 41.9018 21.0607C41.9059 21.0492 41.9084 21.0355 41.9117 21.0229C41.915 21.0103 41.9179 20.9998 41.9201 20.988C41.9224 20.9761 41.9244 20.9622 41.9264 20.9493C41.9285 20.9365 41.9304 20.9254 41.9316 20.9131C41.9329 20.9009 41.9332 20.8867 41.9338 20.8735C41.9338 20.8633 41.9355 20.8532 41.9356 20.8428L41.9532 18.4411C41.9563 17.833 42.1989 17.2507 42.6284 16.8203C43.058 16.3899 43.6398 16.1461 44.2478 16.1417H41.728Z" fill="#D4E1F4"/>
<path d="M58.178 14.6298H41.728C40.7212 14.6352 39.7571 15.0371 39.0445 15.7485C38.332 16.4599 37.9285 17.4233 37.9215 18.4302L37.9089 20.0886L37.7765 20.09C36.4597 20.0977 35.1994 20.6258 34.2704 21.5591C33.3415 22.4924 32.8193 23.7552 32.8178 25.072C32.8163 26.3888 33.3356 27.6528 34.2624 28.5883C35.1891 29.5237 36.4482 30.0547 37.765 30.0655L37.8379 30.0666L37.7875 37.4426H31.3746C31.4046 37.033 31.3847 36.6212 31.3154 36.2164C31.1335 35.1442 30.6045 34.1614 29.8097 33.4191C29.0148 32.6769 27.9982 32.2162 26.9161 32.108C26.2282 32.0378 25.5332 32.1139 24.8768 32.3313C24.2204 32.5487 23.6174 32.9026 23.1075 33.3697C22.5922 33.8391 22.1805 34.4109 21.8988 35.0484C21.617 35.686 21.4714 36.3753 21.4711 37.0724C21.4711 37.1957 21.4758 37.3191 21.485 37.4426H18.121C17.109 37.4466 16.1399 37.8519 15.4262 38.5696C14.7126 39.2872 14.3128 40.2586 14.3145 41.2706V58.0044C14.3128 59.0165 14.7126 59.9879 15.4262 60.7055C16.1399 61.4232 17.109 61.8284 18.121 61.8324H37.8069L58.0209 61.9899H58.0512C59.0492 61.9919 60.0072 61.5983 60.7155 60.8953C61.0756 60.5419 61.3619 60.1204 61.5579 59.6554C61.7538 59.1904 61.8555 58.6911 61.8569 58.1865L61.9799 39.0196H61.9847V18.4578C61.9864 17.4457 61.5865 16.4743 60.8729 15.7566C60.1592 15.039 59.1901 14.6337 58.178 14.6298ZM34.3303 25.0777C34.328 24.1588 34.6906 23.2765 35.3384 22.6247C35.9862 21.973 36.8662 21.605 37.7851 21.6017L38.668 21.5924C38.6785 21.5924 38.6888 21.591 38.6992 21.5905C38.7133 21.5898 38.7273 21.5894 38.7413 21.5879C38.753 21.5866 38.7645 21.5844 38.7761 21.5826C38.7877 21.5808 38.8028 21.5788 38.8158 21.5762C38.8287 21.5735 38.8396 21.5701 38.8515 21.567C38.8635 21.5638 38.8759 21.5611 38.8877 21.5573C38.8995 21.5535 38.9118 21.5486 38.9239 21.5447C38.9359 21.5408 38.9459 21.5369 38.9566 21.5321C38.9673 21.5273 38.9804 21.5209 38.9924 21.5151C39.0023 21.5101 39.0126 21.5055 39.0223 21.5002C39.0341 21.4938 39.0453 21.4865 39.0568 21.4794C39.0658 21.4737 39.0753 21.4684 39.0841 21.4624C39.0953 21.4547 39.1059 21.4464 39.1166 21.4382C39.1251 21.4318 39.1339 21.4256 39.1418 21.4188C39.152 21.4104 39.1616 21.4012 39.1714 21.3921C39.1794 21.3848 39.1877 21.3776 39.1954 21.3699C39.2031 21.3622 39.213 21.3509 39.2216 21.3413C39.2301 21.3317 39.2368 21.3248 39.244 21.3161C39.2512 21.3074 39.2592 21.296 39.2668 21.2858C39.2744 21.2756 39.2808 21.2675 39.2873 21.2578C39.2939 21.2481 39.2999 21.2366 39.3069 21.2259C39.3138 21.2152 39.3195 21.2059 39.3249 21.1955C39.3303 21.1852 39.3358 21.1733 39.3413 21.162C39.3467 21.1508 39.3518 21.1406 39.3565 21.1295C39.3612 21.1184 39.3655 21.1061 39.3691 21.0943C39.3728 21.0824 39.3776 21.0718 39.3817 21.0604C39.3859 21.0489 39.3884 21.0352 39.3917 21.0226C39.3949 21.01 39.3978 20.9995 39.4001 20.9877C39.4024 20.9758 39.4044 20.9618 39.4064 20.949C39.4084 20.9361 39.4103 20.925 39.4116 20.9128C39.4128 20.9006 39.4132 20.8864 39.4137 20.8731C39.4137 20.8629 39.4155 20.8529 39.4156 20.8425L39.4331 18.4407C39.4362 17.8327 39.6789 17.2504 40.1084 16.82C40.5379 16.3896 41.1198 16.1458 41.7278 16.1414H58.178C58.7893 16.1449 59.3743 16.3909 59.8045 16.8252C60.2347 17.2595 60.4751 17.8468 60.4728 18.4581V37.508H55.061C54.9067 37.5078 54.7543 37.5415 54.6145 37.6068C54.4748 37.6722 54.3511 37.7675 54.2523 37.886C54.1519 38.0064 54.0792 38.1474 54.0394 38.299C53.9996 38.4506 53.9937 38.6091 54.022 38.7633C54.1282 39.3464 54.0844 39.9469 53.8947 40.5084C53.705 41.07 53.3757 41.574 52.9376 41.9733C52.5831 42.2977 52.164 42.5434 51.7078 42.6944C51.2516 42.8453 50.7686 42.8979 50.2906 42.8489C49.5388 42.7731 48.8328 42.4524 48.2811 41.9362C47.7293 41.42 47.3624 40.7369 47.2368 39.9918C47.1666 39.5851 47.1684 39.1693 47.2419 38.7632C47.2702 38.6094 47.2645 38.4513 47.2251 38.3C47.1856 38.1487 47.1135 38.0079 47.0138 37.8875C46.9155 37.7687 46.7924 37.6728 46.6531 37.6067C46.5138 37.5405 46.3616 37.5057 46.2074 37.5048L39.2993 37.4492L39.3547 29.3278C39.3547 29.3142 39.3536 29.301 39.353 29.2875C39.353 29.2763 39.353 29.265 39.3515 29.254C39.3502 29.2401 39.3478 29.2266 39.3458 29.213C39.3443 29.2015 39.343 29.19 39.3409 29.1787C39.3384 29.1654 39.3346 29.1525 39.3314 29.1396C39.3283 29.1266 39.3263 29.117 39.3231 29.1062C39.3192 29.0936 39.3144 29.081 39.3105 29.0684C39.3066 29.0558 39.3033 29.0467 39.2989 29.0361C39.2945 29.0255 39.2882 29.0128 39.2828 29.0012C39.2774 28.9896 39.2732 28.9799 39.2678 28.9696C39.2624 28.9593 39.2552 28.9481 39.2488 28.9372C39.2424 28.9264 39.2372 28.9167 39.2306 28.9069C39.2241 28.897 39.2164 28.8871 39.2091 28.8772C39.2018 28.8674 39.1952 28.8575 39.1878 28.848C39.1804 28.8386 39.1722 28.8304 39.1644 28.8216C39.1566 28.8127 39.1481 28.8027 39.1392 28.7938C39.1302 28.785 39.1224 28.7782 39.114 28.7704C39.1055 28.7626 39.0956 28.7526 39.0858 28.7443C39.0759 28.736 39.0682 28.7308 39.0595 28.7242C39.0509 28.7175 39.0389 28.7078 39.028 28.7002C39.0172 28.6927 39.0094 28.6885 39.0001 28.6827C38.9887 28.6755 38.9778 28.6682 38.9662 28.6617C38.9546 28.6551 38.946 28.6517 38.936 28.6467C38.9259 28.6416 38.9126 28.6341 38.9004 28.6292C38.8882 28.6243 38.879 28.621 38.8683 28.6166C38.8576 28.6122 38.8439 28.6069 38.8313 28.6028C38.8187 28.5988 38.8087 28.5965 38.7972 28.5935C38.7858 28.5905 38.772 28.5862 38.7594 28.5834C38.7468 28.5807 38.7356 28.5794 38.7237 28.5774C38.7117 28.5754 38.6985 28.5726 38.6846 28.5711C38.6707 28.5696 38.6594 28.5694 38.6468 28.5687C38.6342 28.5679 38.6226 28.5664 38.6103 28.5663L37.7763 28.5537C36.8588 28.5487 35.9807 28.18 35.3347 27.5284C34.6886 26.8769 34.3275 25.9953 34.3303 25.0777ZM15.8269 58.0044V41.271C15.8247 40.6598 16.0651 40.0727 16.4953 39.6385C16.9255 39.2043 17.5103 38.9585 18.1215 38.9549H22.0013C22.1556 38.9552 22.308 38.9214 22.4478 38.8561C22.5875 38.7908 22.7112 38.6955 22.8099 38.5769C22.9106 38.4566 22.9835 38.3154 23.0234 38.1636C23.0633 38.0118 23.0692 37.8531 23.0407 37.6988C22.9346 37.1157 22.9784 36.5152 23.1681 35.9537C23.3577 35.3922 23.6871 34.8881 24.1252 34.4889C24.4797 34.1646 24.8989 33.9189 25.3551 33.768C25.8113 33.617 26.2943 33.5643 26.7724 33.6131C27.5241 33.689 28.2301 34.0097 28.7818 34.5259C29.3335 35.0422 29.7004 35.7253 29.826 36.4704C29.8961 36.8762 29.8945 37.2911 29.8214 37.6964C29.793 37.8508 29.799 38.0096 29.839 38.1615C29.8789 38.3133 29.9518 38.4545 30.0524 38.5751C30.1515 38.694 30.2756 38.7897 30.4158 38.8553C30.556 38.9209 30.709 38.9548 30.8638 38.9547H37.7776L37.7337 44.6621C36.4398 44.5566 35.1562 44.9632 34.159 45.7944C33.1619 46.6257 32.5309 47.8152 32.4018 49.1069C32.3296 49.8023 32.4032 50.5051 32.6178 51.1704C32.8325 51.8357 33.1834 52.449 33.6483 52.9711C34.1081 53.4845 34.6697 53.8964 35.2975 54.1805C35.9253 54.4647 36.6054 54.6149 37.2945 54.6216C37.415 54.6223 37.5363 54.6189 37.6573 54.611L37.6135 60.3208H18.1227C17.5112 60.3176 16.926 60.0718 16.4956 59.6375C16.0652 59.2032 15.8246 58.6159 15.8269 58.0044ZM60.345 58.1769C60.3443 58.4827 60.2828 58.7854 60.1641 59.0672C60.0455 59.3491 59.872 59.6045 59.6539 59.8188C59.2278 60.242 58.6514 60.479 58.0509 60.478H58.0327L39.1249 60.3309L39.1726 54.1079C39.1737 53.9522 39.1404 53.7982 39.0753 53.6569C39.0101 53.5155 38.9146 53.3902 38.7955 53.29C38.6764 53.1897 38.5367 53.1169 38.3863 53.0768C38.2359 53.0367 38.0785 53.0302 37.9252 53.0578C37.7208 53.0944 37.5134 53.1117 37.3057 53.1095C36.8229 53.1064 36.346 53.0026 35.9055 52.8049C35.465 52.6072 35.0705 52.3199 34.7472 51.9613C34.4239 51.6027 34.1788 51.1806 34.0276 50.722C33.8765 50.2635 33.8225 49.7784 33.8692 49.2978C33.9159 48.8172 34.0622 48.3517 34.2988 47.9308C34.5354 47.5098 34.8571 47.1429 35.2434 46.8532C35.6297 46.5635 36.0721 46.3575 36.5425 46.2483C37.0128 46.139 37.5007 46.129 37.9751 46.2188C38.1283 46.2487 38.2861 46.2444 38.4375 46.2064C38.5888 46.1683 38.7299 46.0974 38.8507 45.9987C38.9715 45.8999 39.0691 45.7758 39.1365 45.635C39.2039 45.4943 39.2395 45.3405 39.2407 45.1844L39.2886 38.9611L45.6873 39.0126C45.6565 39.4246 45.6761 39.8388 45.7459 40.246C45.9278 41.3181 46.4568 42.3009 47.2516 43.0431C48.0465 43.7853 49.0631 44.246 50.1452 44.3542C50.3107 44.37 50.4753 44.378 50.6389 44.378C51.866 44.3808 53.0494 43.9221 53.9539 43.0929C54.4692 42.6234 54.8808 42.0517 55.1626 41.4141C55.4443 40.7765 55.59 40.0871 55.5901 39.3901C55.5901 39.267 55.5856 39.1433 55.5764 39.0199H60.4675L60.345 58.1769Z" fill="#023E8A"/>
<path d="M56.6803 34.237C56.8808 34.237 57.073 34.1574 57.2148 34.0156C57.3566 33.8738 57.4362 33.6816 57.4362 33.4811V31.9115C57.4362 31.711 57.3566 31.5187 57.2148 31.3769C57.073 31.2352 56.8808 31.1555 56.6803 31.1555C56.4798 31.1555 56.2875 31.2352 56.1457 31.3769C56.004 31.5187 55.9243 31.711 55.9243 31.9115V33.4811C55.9243 33.6816 56.004 33.8738 56.1457 34.0156C56.2875 34.1574 56.4798 34.237 56.6803 34.237Z" fill="#023E8A"/>
<path d="M56.6803 28.8795C56.8808 28.8795 57.073 28.7999 57.2148 28.6581C57.3566 28.5163 57.4362 28.324 57.4362 28.1235V19.9048C57.4362 19.7043 57.3566 19.512 57.2148 19.3702C57.073 19.2284 56.8808 19.1488 56.6803 19.1488C56.4798 19.1488 56.2875 19.2284 56.1457 19.3702C56.004 19.512 55.9243 19.7043 55.9243 19.9048V28.1235C55.9243 28.324 56.004 28.5163 56.1457 28.6581C56.2875 28.7999 56.4798 28.8795 56.6803 28.8795Z" fill="#023E8A"/>
<path d="M56.9693 58.0827C57.1698 58.0827 57.3621 58.0031 57.5039 57.8613C57.6456 57.7195 57.7253 57.5273 57.7253 57.3268V55.7572C57.7253 55.5567 57.6456 55.3644 57.5039 55.2226C57.3621 55.0809 57.1698 55.0012 56.9693 55.0012C56.7688 55.0012 56.5766 55.0809 56.4348 55.2226C56.293 55.3644 56.2134 55.5567 56.2134 55.7572V57.3268C56.2134 57.5273 56.293 57.7195 56.4348 57.8613C56.5766 58.0031 56.7688 58.0827 56.9693 58.0827Z" fill="#023E8A"/>
<path d="M56.9693 52.7247C57.1698 52.7247 57.3621 52.6451 57.5039 52.5033C57.6456 52.3615 57.7253 52.1692 57.7253 51.9687V43.7505C57.7253 43.55 57.6456 43.3577 57.5039 43.2159C57.3621 43.0742 57.1698 42.9945 56.9693 42.9945C56.7688 42.9945 56.5766 43.0742 56.4348 43.2159C56.293 43.3577 56.2134 43.55 56.2134 43.7505V51.9687C56.2134 52.1692 56.293 52.3615 56.4348 52.5033C56.5766 52.6451 56.7688 52.7247 56.9693 52.7247Z" fill="#023E8A"/>
<path d="M29.2443 10.0421L25.7471 7.89584C26.5017 6.83731 26.8149 5.52665 26.6202 4.24132C26.4255 2.95598 25.7383 1.79684 24.704 1.00928C24.1534 0.587364 23.5193 0.287331 22.8439 0.129069C22.1685 -0.0291925 21.4672 -0.0420662 20.7864 0.0913017C20.105 0.223407 19.4587 0.496829 18.8894 0.893945C18.3201 1.29106 17.8403 1.80306 17.4809 2.39694C17.4182 2.50051 17.3594 2.60647 17.3045 2.71482L14.4357 0.953965C14.0087 0.692021 13.534 0.517228 13.0391 0.43967C12.5442 0.362112 12.0388 0.383325 11.5521 0.502084C11.0654 0.620844 10.6071 0.8348 10.2035 1.13161C9.79993 1.42841 9.45913 1.8022 9.20076 2.23139L0.552453 16.5197C0.0291051 17.3866 -0.1312 18.4249 0.106336 19.4093C0.343871 20.3937 0.960076 21.2446 1.82119 21.7774L4.30045 23.299C4.42054 23.3726 4.55472 23.4202 4.69433 23.4387C4.83394 23.4572 4.97588 23.4463 5.11101 23.4066C5.24613 23.3669 5.37144 23.2993 5.47884 23.2082C5.58625 23.1171 5.67338 23.0046 5.73461 22.8777C5.92094 22.4915 6.18617 22.1487 6.51318 21.8713C6.84019 21.5939 7.22172 21.3882 7.63315 21.2674C8.04458 21.1465 8.47677 21.1133 8.90183 21.1698C9.3269 21.2263 9.7354 21.3713 10.101 21.5954C10.4665 21.8195 10.7811 22.1178 11.0243 22.471C11.2675 22.8241 11.4339 23.2244 11.5129 23.6458C11.5919 24.0673 11.5816 24.5006 11.4828 24.9179C11.3839 25.3352 11.1987 25.7271 10.9391 26.0683C10.8533 26.1803 10.7919 26.3091 10.759 26.4462C10.7261 26.5834 10.7224 26.726 10.748 26.8647C10.7737 27.0034 10.8282 27.1352 10.908 27.2516C10.9878 27.3679 11.0911 27.4662 11.2113 27.54L16.5207 30.7984C17.1143 31.1636 17.7976 31.3566 18.4945 31.3561C19.145 31.3569 19.7848 31.1911 20.353 30.8745C20.9212 30.5578 21.3988 30.1009 21.7403 29.5472L23.5538 26.6022C23.6323 26.4751 23.6831 26.3328 23.703 26.1848C23.7228 26.0367 23.7111 25.8861 23.6688 25.7428C23.6264 25.5996 23.5544 25.4669 23.4572 25.3533C23.3601 25.2398 23.2402 25.1481 23.1052 25.0841C22.2705 24.692 21.625 23.9854 21.3097 23.1187C20.9944 22.2521 21.0351 21.2959 21.4227 20.4591C21.8104 19.6224 22.5135 18.9731 23.3784 18.6532C24.2434 18.3333 25.1998 18.3688 26.0386 18.752C26.2827 18.8676 26.5128 19.0109 26.7243 19.1789C26.8416 19.2729 26.9775 19.3409 27.1231 19.3785C27.2686 19.416 27.4205 19.4222 27.5687 19.3967C27.7168 19.3711 27.8578 19.3144 27.9824 19.2303C28.107 19.1461 28.2123 19.0365 28.2913 18.9086L30.4978 15.3254C31.0318 14.4586 31.1997 13.4152 30.9647 12.4245C30.7296 11.4339 30.1108 10.5772 29.2443 10.0426V10.0421ZM29.2103 14.5322L27.2575 17.703C27.0741 17.5851 26.8834 17.4791 26.6865 17.3856C25.6619 16.9051 24.5041 16.7887 23.4044 17.0556C22.3047 17.3226 21.3291 17.9569 20.6389 18.8537C20.2101 19.4111 19.9031 20.0524 19.7377 20.736C19.5724 21.4196 19.5524 22.1303 19.6791 22.8221C19.8057 23.5139 20.0762 24.1714 20.473 24.7521C20.8698 25.3328 21.3841 25.8237 21.9826 26.1931C21.9939 26.2001 22.0053 26.2069 22.0166 26.2139L20.4528 28.7535C20.1356 29.2692 19.627 29.6382 19.0383 29.7799C18.4496 29.9216 17.8288 29.8243 17.3117 29.5094L12.4492 26.5254C13.0539 25.4914 13.2295 24.2616 12.9383 23.0997C12.6471 21.9377 11.9122 20.9361 10.8913 20.3096C9.87029 19.683 8.6445 19.4814 7.47664 19.7479C6.30879 20.0145 5.29183 20.7279 4.64377 21.7354L2.61203 20.488C2.09052 20.1648 1.71755 19.6489 1.5741 19.0523C1.43066 18.4558 1.52832 17.8267 1.84588 17.3017L10.4936 3.01418C10.6487 2.75554 10.8536 2.53022 11.0964 2.35124C11.3391 2.17226 11.615 2.04316 11.9079 1.9714C12.2009 1.89965 12.5051 1.88666 12.8031 1.93319C13.1011 1.97971 13.387 2.08484 13.6441 2.24248L16.9577 4.27548C17.0895 4.3568 17.2378 4.40792 17.3917 4.42515C17.5457 4.44238 17.7016 4.4253 17.8482 4.37513C17.9965 4.32465 18.1318 4.24199 18.2445 4.13309C18.3571 4.02418 18.4443 3.89172 18.4998 3.74518C18.7087 3.19464 19.0546 2.70652 19.5049 2.32702C19.9551 1.94752 20.4947 1.68919 21.0727 1.57649C21.5457 1.48412 22.033 1.49341 22.5022 1.60374C22.9714 1.71406 23.4118 1.9229 23.7941 2.2164C24.1758 2.50817 24.4932 2.87555 24.7264 3.29558C24.9597 3.71561 25.1038 4.17924 25.1497 4.65749C25.1956 5.13573 25.1423 5.61831 24.9932 6.07504C24.8441 6.53176 24.6024 6.95282 24.2832 7.31187C24.1806 7.42705 24.1046 7.56338 24.0606 7.71119C24.0166 7.85901 24.0056 8.01469 24.0284 8.16722C24.0511 8.32146 24.1073 8.46883 24.1932 8.59892C24.2791 8.72901 24.3925 8.83863 24.5255 8.92002L28.4543 11.3312C28.9788 11.6558 29.353 12.1752 29.495 12.7754C29.6369 13.3756 29.5348 14.0076 29.2112 14.5327L29.2103 14.5322Z" fill="#FF8279"/>
</svg>
