<svg width="63" height="62" viewBox="0 0 63 62" fill="none" xmlns="http://www.w3.org/2000/svg">
<path d="M53.7326 55.6673H17.6675C18.9528 54.5017 19.8573 52.9758 20.2637 51.289L26.8366 31.5209L26.8641 31.4255C26.8934 31.3008 26.9276 31.1787 26.9663 31.0583C25.3176 31.5813 24.0666 32.9333 23.6726 34.6169L23.6452 34.7123L17.0722 54.4805C16.6658 56.1672 15.7614 57.6931 14.4761 58.8587H50.5411C52.6822 58.8543 54.5772 57.4706 55.2323 55.4323C54.748 55.5881 54.2418 55.6673 53.7326 55.6673Z" fill="#D4E1F4"/>
<path d="M55.7079 28.5931H28.4661C25.1631 28.5831 22.2858 30.8414 21.5104 34.0522L21.0541 35.4241L18.8201 42.1436L16.7519 48.3638L16.0369 50.5136L14.9374 53.821L14.9106 53.9151C14.6232 55.125 13.9931 56.2264 13.0961 57.0878C11.2336 58.8587 8.49532 59.3505 6.13229 58.3389C3.76988 57.3266 2.23712 55.0047 2.234 52.4347V14.0802C2.23712 11.1555 4.60701 8.78503 7.53165 8.78191H13.0942C13.6278 7.69047 14.6008 6.87765 15.7702 6.54791H7.53165C3.37407 6.55228 0.00436329 9.92198 0 14.0802V52.4347C0.00560993 57.0386 3.60906 60.8359 8.20672 61.0815V61.0927H50.5412C53.9408 61.0865 56.8704 58.6954 57.5573 55.3656L62.7116 37.2305L62.7341 37.1414C63.1492 35.0395 62.6013 32.8623 61.2406 31.2073C59.8805 29.5518 57.8503 28.5931 55.7079 28.5931ZM60.5493 36.6658L55.3969 54.7977L55.3745 54.8869C54.9144 57.1932 52.8924 58.855 50.5412 58.8587H14.4761C15.7614 57.6931 16.6659 56.1672 17.0723 54.4805L23.6453 34.7123L23.6727 34.6169C24.1932 32.3917 26.181 30.8209 28.4661 30.8271H55.7079C57.1746 30.8265 58.5653 31.4791 59.5015 32.6079C60.4371 33.7374 60.8217 35.2247 60.5493 36.6658Z" fill="#023E8A"/>
<path d="M43.3716 10.1738C43.3716 10.7903 43.8715 11.2908 44.4886 11.2908H51.2748V28.5931H53.5088V10.1707C53.5094 9.88333 53.3984 9.6072 53.1996 9.39963L45.2958 1.13557C45.2927 1.1312 45.289 1.12746 45.2846 1.12435C45.2834 1.12248 45.2815 1.12185 45.2796 1.11998C45.269 1.10939 45.2578 1.10004 45.2472 1.08944L45.2441 1.08757C45.2098 1.05516 45.173 1.02586 45.135 0.998435C45.0696 0.951063 44.9985 0.910546 44.9237 0.87938C44.8738 0.85881 44.8227 0.841357 44.7704 0.828267C44.751 0.823281 44.733 0.817671 44.7143 0.813931C44.6787 0.806451 44.6426 0.801464 44.6064 0.797724H44.6027C44.5647 0.793984 44.5273 0.792114 44.4892 0.792114H23.0786C20.728 0.794608 18.8225 2.70012 18.82 5.05068V6.38959H16.9226C16.533 6.38959 16.1453 6.44319 15.7701 6.54916C14.6007 6.8789 13.6277 7.69171 13.0942 8.78316C12.8087 9.36348 12.6609 10.0018 12.6622 10.6488V12.8716H10.8539C8.50273 12.8741 6.59722 14.7789 6.59473 17.1307V52.8287C6.59722 55.1798 8.50273 57.0854 10.8539 57.0878H13.096C13.7549 56.4602 14.2716 55.6984 14.6101 54.8538H10.8539C9.73629 54.8526 8.82998 53.9469 8.82873 52.8287V17.1295C8.82998 16.0113 9.73629 15.1056 10.8539 15.1043H12.6622V46.3467C12.6647 48.3575 14.0703 50.0935 16.0369 50.5136L16.7518 48.3638C15.7034 48.2753 14.8974 47.3989 14.8962 46.3467V10.6475C14.8974 9.52928 15.8044 8.62359 16.9226 8.62234H18.82V42.1436L21.054 35.4241V5.05006C21.0553 3.93181 21.961 3.02612 23.0786 3.02487H43.3716V10.1738ZM45.6056 4.6904L49.7813 9.05618H45.6056V4.6904Z" fill="#FFC184"/>
</svg>
