<svg width="55" height="62" viewBox="0 0 55 62" fill="none" xmlns="http://www.w3.org/2000/svg">
<path d="M4.29433 26.5741C4.29538 25.5372 5.13622 24.6968 6.17312 24.6953H43.4066V23.8901C43.4055 22.8532 42.5652 22.0129 41.5278 22.0113H3.48914C2.45224 22.0129 1.6114 22.8532 1.61035 23.8901V51.8009C1.6114 52.8383 2.45172 53.6786 3.48914 53.6797H4.29433V26.5741Z" fill="#D4E1F4"/>
<path d="M16.7209 0C11.484 0.00576638 7.24046 4.24981 7.23417 9.48672V20.4009H3.48918C1.56321 20.403 0.00209686 21.9641 0 23.8901V51.8009C0.00209686 53.7268 1.56321 55.2879 3.48918 55.29H35.2079C35.6524 55.29 36.0131 54.9294 36.0131 54.4848C36.0131 54.0403 35.6524 53.6796 35.2079 53.6796H3.48918C2.45176 53.6786 1.61144 52.8383 1.61039 51.8009V23.8901C1.61144 22.8532 2.45228 22.0128 3.48918 22.0113H41.5278C42.5652 22.0128 43.4056 22.8532 43.4066 23.8901V42.4069C43.4066 42.8515 43.7673 43.2121 44.2118 43.2121C44.6569 43.2121 45.017 42.8515 45.017 42.4069V23.8901C45.0149 21.9641 43.4543 20.403 41.5278 20.4009H37.7828V9.48672C37.7765 4.24981 33.533 0.00576638 28.2961 0H16.7209ZM33.2782 20.4009H11.7388V9.48672C11.7419 6.73617 13.9709 4.5072 16.7209 4.50406H28.2961C31.0467 4.5072 33.2751 6.73617 33.2782 9.48672V20.4009ZM21.1437 2.89367V1.61039H23.8738V2.89367H21.1437ZM8.84456 9.48672C8.8498 5.13888 12.3731 1.61511 16.7209 1.61039H19.5333V2.89367H16.7209C13.0818 2.89786 10.1326 5.8471 10.1284 9.48672V20.4009H8.84456V9.48672ZM36.1724 9.48672V20.4009H34.8886V9.48672C34.8844 5.8471 31.9352 2.89786 28.2961 2.89367H25.4842V1.61039H28.2961C32.6439 1.61511 36.1672 5.13888 36.1724 9.48672Z" fill="#023E8A"/>
<path d="M17.0845 37.98C17.0845 38.8454 17.7859 39.5468 18.6514 39.5468C19.5163 39.5468 20.2182 38.8449 20.2177 37.98C20.2177 37.1145 19.5163 36.4131 18.6508 36.4131C17.7864 36.4141 17.0855 37.115 17.0845 37.98ZM18.6949 37.98C18.6949 37.9978 18.6844 38.0135 18.6676 38.0203C18.6514 38.0271 18.6325 38.0235 18.6199 38.0109C18.6078 37.9983 18.6036 37.9794 18.6105 37.9632C18.6173 37.9469 18.6335 37.9365 18.6508 37.9365C18.6749 37.9365 18.6949 37.9559 18.6949 37.98Z" fill="#023E8A"/>
<path d="M24.7998 37.98C24.7998 38.8449 25.5012 39.5468 26.3667 39.5468C27.2322 39.5468 27.9336 38.8449 27.9336 37.98C27.9336 37.1145 27.2322 36.4131 26.3667 36.4131C25.5017 36.4141 24.8009 37.115 24.7998 37.98ZM26.4102 37.98C26.4102 37.9978 26.3997 38.0135 26.3835 38.0203C26.3667 38.0271 26.3478 38.0235 26.3358 38.0109C26.3232 37.9983 26.3195 37.9794 26.3263 37.9632C26.3331 37.9469 26.3489 37.9365 26.3667 37.9365C26.3908 37.9365 26.4102 37.9559 26.4102 37.98Z" fill="#023E8A"/>
<path d="M32.5151 37.98C32.5151 38.8449 33.2171 39.5468 34.082 39.5468C34.9475 39.5468 35.6489 38.8449 35.6489 37.98C35.6489 37.1145 34.9475 36.4131 34.082 36.4131C33.2171 36.4141 32.5162 37.115 32.5151 37.98ZM34.1255 37.98C34.1255 38.0041 34.1061 38.0235 34.082 38.0235C34.0579 38.0235 34.0385 38.0041 34.0385 37.98C34.0385 37.9559 34.0579 37.9365 34.082 37.9365C34.1061 37.9365 34.1255 37.9559 34.1255 37.98Z" fill="#023E8A"/>
<path d="M9.36865 37.98C9.36865 38.8449 10.0701 39.5468 10.9355 39.5468C11.801 39.5468 12.5024 38.8449 12.5024 37.98C12.5024 37.1145 11.801 36.4131 10.9355 36.4131C10.0706 36.4141 9.3697 37.115 9.36865 37.98ZM10.979 37.98C10.979 38.0041 10.9596 38.0235 10.9355 38.0235C10.9114 38.0235 10.892 38.0041 10.892 37.98C10.892 37.9559 10.9114 37.9365 10.9355 37.9365C10.9596 37.9365 10.979 37.9559 10.979 37.98Z" fill="#023E8A"/>
<path d="M44.2118 41.6017C38.5791 41.6017 34.0127 46.1682 34.0127 51.8009C34.0127 57.4336 38.5791 62 44.2118 62C49.8445 62 54.411 57.4336 54.411 51.8009C54.4047 46.1708 49.8419 41.608 44.2118 41.6017ZM44.2118 60.3896C39.4687 60.3896 35.6231 56.5445 35.6231 51.8009C35.6231 47.0573 39.4687 43.2121 44.2118 43.2121C48.9555 43.2121 52.8006 47.0573 52.8006 51.8009C52.7953 56.5419 48.9534 60.3844 44.2118 60.3896Z" fill="#00D082"/>
<path d="M44.8012 51.3338H43.6228C41.2811 51.3364 39.3835 53.2341 39.3809 55.5758V58.1067C39.3809 58.5517 39.7415 58.9119 40.1861 58.9119H48.238C48.6831 58.9119 49.0432 58.5517 49.0432 58.1067V55.5758C49.0406 53.2341 47.1429 51.3364 44.8012 51.3338ZM47.4328 57.3015H40.9912V55.5758C40.9928 54.1232 42.1702 52.9458 43.6228 52.9442H44.8012C46.2538 52.9458 47.4312 54.1232 47.4328 55.5758V57.3015Z" fill="#00D082"/>
<path d="M44.2116 50.9642C45.9447 50.9642 47.3491 49.5598 47.3491 47.8268C47.3496 46.0942 45.9447 44.6893 44.2122 44.6893C42.4791 44.6893 41.0742 46.0942 41.0742 47.8268C41.0758 49.5588 42.4796 50.9626 44.2116 50.9642ZM44.2116 46.3002C45.0551 46.2997 45.7387 46.9838 45.7387 47.8268C45.7392 48.6702 45.0551 49.3543 44.2116 49.3543C43.3682 49.3543 42.6846 48.6702 42.6846 47.8268C42.6857 46.9838 43.3687 46.3008 44.2116 46.3002Z" fill="#00D082"/>
</svg>
