{
    "asset" : {
        "generator" : "Khronos glTF Blender I/O v0.9.33",
        "version" : "2.0"
    },
    "scene" : 0,
    "scenes" : [
        {
            "name" : "Scene",
            "nodes" : [
                0,
                1,
                2
            ]
        }
    ],
    "nodes" : [
        {
            "name" : "Plane",
            "translation" : [
                0,
                5.781408786773682,
                0
            ],
            "mesh" : 0
        },
        {
            "name" : "Lamp",
            "translation" : [
                4.076245307922363,
                10.678882598876953,
                -1.0054539442062378
            ],
            "rotation" : [
                0.16907575726509094,
                0.7558803558349609,
                -0.27217137813568115,
                0.570947527885437
            ]
        },
        {
            "name" : "Camera",
            "translation" : [
                7.481131553649902,
                5.34366512298584,
                6.5076398849487305
            ],
            "rotation" : [
                0.483536034822464,
                0.33687159419059753,
                -0.20870360732078552,
                0.7804827094078064
            ]
        }
    ],
    "materials" : [
        {
            "pbrMetallicRoughness" : {
                "baseColorTexture" : {
                    "index" : 0,
                    "texCoord" : 0
                }
            },
            "name" : "Material.001"
        }
    ],
    "meshes" : [
        {
            "primitives" : [
                {
                    "material" : 0,
                    "attributes" : {
                        "POSITION" : 0,
                        "NORMAL" : 1,
                        "TEXCOORD_0" : 2
                    },
                    "indices" : 3
                }
            ],
            "name" : "Plane"
        }
    ],
    "textures" : [
        {
            "source" : 0,
            "sampler" : 0
        }
    ],
    "images" : [
        {
            "mimeType" : "image/jpeg",
            "name" : "blueblanket.jpg",
            "bufferView" : 4
        }
    ],
    "accessors" : [
        {
            "count" : 8706,
            "max" : [
                5.107954978942871,
                -5.458606243133545,
                5.087114334106445
            ],
            "type" : "VEC3",
            "min" : [
                -5.117917537689209,
                -6.2467451095581055,
                -5.101358890533447
            ],
            "bufferView" : 0,
            "componentType" : 5126
        },
        {
            "type" : "VEC3",
            "bufferView" : 1,
            "componentType" : 5126,
            "count" : 8706
        },
        {
            "type" : "VEC2",
            "bufferView" : 2,
            "componentType" : 5126,
            "count" : 8706
        },
        {
            "type" : "SCALAR",
            "bufferView" : 3,
            "componentType" : 5123,
            "count" : 50688
        }
    ],
    "bufferViews" : [
        {
            "buffer" : 0,
            "byteOffset" : 0,
            "byteLength" : 104472
        },
        {
            "buffer" : 0,
            "byteOffset" : 104472,
            "byteLength" : 104472
        },
        {
            "buffer" : 0,
            "byteOffset" : 208944,
            "byteLength" : 69648
        },
        {
            "buffer" : 0,
            "byteOffset" : 278592,
            "byteLength" : 101376
        },
        {
            "buffer" : 0,
            "byteOffset" : 379968,
            "byteLength" : 26775
        }
    ],
    "samplers" : [
        {
            "wrapT" : 10497,
            "magFilter" : 9729,
            "wrapS" : 10497,
            "minFilter" : 9986
        }
    ],
    "buffers" : [
        {
            "uri" : "data:application/octet-stream;base64,",
            "byteLength" : 406744
        }
    ]
}
