{
    "asset" : {
        "generator" : "Khronos glTF Blender I/O v0.9.33",
        "version" : "2.0"
    },
    "scene" : 0,
    "scenes" : [
        {
            "name" : "Scene",
            "nodes" : [
                0,
                1,
                2
            ]
        }
    ],
    "nodes" : [
        {
            "name" : "Plane",
            "rotation" : [
                0.7071067690849304,
                0,
                0,
                0.7071067690849304
            ],
            "mesh" : 0
        },
        {
            "name" : "Lamp",
            "translation" : [
                4.076245307922363,
                1.249497413635254,
                3.2295985221862793
            ],
            "rotation" : [
                0.16907575726509094,
                0.7558803558349609,
                -0.27217137813568115,
                0.570947527885437
            ]
        },
        {
            "name" : "Camera",
            "translation" : [
                7.481131553649902,
                5.34366512298584,
                6.5076398849487305
            ],
            "rotation" : [
                0.483536034822464,
                0.33687159419059753,
                -0.20870360732078552,
                0.7804827094078064
            ]
        }
    ],
    "materials" : [
        {
            "pbrMetallicRoughness" : {
                "baseColorTexture" : {
                    "index" : 0,
                    "texCoord" : 0
                }
            },
            "name" : "Material.001"
        }
    ],
    "meshes" : [
        {
            "primitives" : [
                {
                    "material" : 0,
                    "attributes" : {
                        "POSITION" : 0,
                        "NORMAL" : 1,
                        "TEXCOORD_0" : 2
                    },
                    "indices" : 3
                }
            ],
            "name" : "Plane"
        }
    ],
    "textures" : [
        {
            "source" : 0,
            "sampler" : 0
        }
    ],
    "images" : [
        {
            "mimeType" : "image/png",
            "name" : "note.png",
            "bufferView" : 4
        }
    ],
    "accessors" : [
        {
            "count" : 24,
            "max" : [
                0.8598785996437073,
                1.862645149230957e-09,
                1.0185216665267944
            ],
            "type" : "VEC3",
            "min" : [
                -0.8598785996437073,
                -0.026340067386627197,
                -1.0185216665267944
            ],
            "bufferView" : 0,
            "componentType" : 5126
        },
        {
            "type" : "VEC3",
            "bufferView" : 1,
            "componentType" : 5126,
            "count" : 24
        },
        {
            "type" : "VEC2",
            "bufferView" : 2,
            "componentType" : 5126,
            "count" : 24
        },
        {
            "type" : "SCALAR",
            "bufferView" : 3,
            "componentType" : 5123,
            "count" : 36
        }
    ],
    "bufferViews" : [
        {
            "buffer" : 0,
            "byteOffset" : 0,
            "byteLength" : 288
        },
        {
            "buffer" : 0,
            "byteOffset" : 288,
            "byteLength" : 288
        },
        {
            "buffer" : 0,
            "byteOffset" : 576,
            "byteLength" : 192
        },
        {
            "buffer" : 0,
            "byteOffset" : 768,
            "byteLength" : 72
        },
        {
            "buffer" : 0,
            "byteOffset" : 840,
            "byteLength" : 45889
        }
    ],
    "samplers" : [
        {
            "wrapT" : 10497,
            "magFilter" : 9729,
            "wrapS" : 10497,
            "minFilter" : 9986
        }
    ],
    "buffers" : [
        {
            "uri" : "data:application/octet-stream;base64,",
            "byteLength" : 46732
        }
    ]
}
