<svg width="80" height="81" viewBox="0 0 80 81" fill="none" xmlns="http://www.w3.org/2000/svg">
<g clip-path="url(#clip0)">
<path d="M75.8628 67.4593V35.2159C75.8628 31.5049 74.1594 28.0372 71.2393 25.7863" stroke="#03045E" stroke-width="8.27413" stroke-linecap="round" stroke-linejoin="round"/>
<path d="M71.2393 25.7864L47.3306 7.17039C43.0112 3.82439 36.9884 3.82439 32.669 7.17039L8.76025 25.7864" stroke="#03045E" stroke-width="8.27413" stroke-linecap="round" stroke-linejoin="round"/>
<path d="M8.76029 25.7863C5.84014 28.0372 4.13672 31.5049 4.13672 35.2159V67.4593" stroke="#03045E" stroke-width="8.27413" stroke-linecap="round" stroke-linejoin="round"/>
<path d="M4.13672 67.4594C4.13672 72.3871 8.15193 76.4023 13.0797 76.4023H66.8592C71.7869 76.4023 75.8021 72.3871 75.8021 67.4594" stroke="#03045E" stroke-width="8.27413" stroke-linecap="round" stroke-linejoin="round"/>
<path d="M75.8628 67.4593V35.2159" stroke="#03045E" stroke-width="8.27413" stroke-linecap="round" stroke-linejoin="round"/>
<path d="M42.2812 30.2882C38.996 30.2882 35.8933 31.2008 33.2774 32.7825C32.5473 31.2616 31.0264 30.2882 29.2622 30.2882C26.7679 30.2882 24.7603 32.2958 24.7603 34.7901V71.9612C24.7603 74.4555 26.7679 76.4631 29.2622 76.4631C31.7565 76.4631 33.7641 74.4555 33.7641 71.9612V63.1399C36.3192 64.5392 39.2393 65.3909 42.342 65.3909C52.015 65.3909 59.8629 57.543 59.8629 47.87C59.8629 38.197 51.9542 30.2882 42.2812 30.2882ZM42.2812 56.3871C37.5359 56.3871 33.7032 52.5544 33.7032 47.8091C33.7032 43.0639 37.5359 39.2312 42.2812 39.2312C47.0264 39.2312 50.7983 43.1247 50.7983 47.87C50.7983 52.6152 46.9656 56.3871 42.2812 56.3871Z" fill="#03045E"/>
</g>
<defs>
<clipPath id="clip0">
<rect width="80" height="80.0608" fill="white" transform="translate(0 0.539185)"/>
</clipPath>
</defs>
</svg>
