<svg height="480pt" viewBox="0 0 480 480" width="480pt" xmlns="http://www.w3.org/2000/svg" xmlns:xlink="http://www.w3.org/1999/xlink"><linearGradient id="a"><stop offset="0" stop-color="#006df0"/><stop offset="1" stop-color="#00e7f0"/></linearGradient><linearGradient id="b" gradientUnits="userSpaceOnUse" x1="113.072" x2="103.688" xlink:href="#a" y1="483.6" y2="32.888"/><linearGradient id="c" gradientUnits="userSpaceOnUse" x1="384.96" x2="375.568" xlink:href="#a" y1="477.936" y2="27.224"/><linearGradient id="d" gradientUnits="userSpaceOnUse" x1="105.992" x2="96.608" xlink:href="#a" y1="483.744" y2="33.04"/><linearGradient id="e" gradientUnits="userSpaceOnUse" x1="308.648" x2="299.264" xlink:href="#a" y1="479.528" y2="28.816"/><linearGradient id="f" gradientUnits="userSpaceOnUse" x1="377.88" x2="368.488" xlink:href="#a" y1="478.08" y2="27.376"/><linearGradient id="g" gradientUnits="userSpaceOnUse" x1="139.992" x2="130.6" xlink:href="#a" y1="483.04" y2="32.328"/><linearGradient id="h" gradientUnits="userSpaceOnUse" x1="351.048" x2="341.656" xlink:href="#a" y1="478.64" y2="27.928"/><linearGradient id="i" gradientUnits="userSpaceOnUse" x1="213.528" x2="204.144" xlink:href="#a" y1="481.504" y2="30.8"/><linearGradient id="j" gradientUnits="userSpaceOnUse" x1="245.52" x2="236.128" xlink:href="#a" y1="480.84" y2="30.128"/><linearGradient id="k" gradientUnits="userSpaceOnUse" x1="277.504" x2="268.112" xlink:href="#a" y1="480.176" y2="29.464"/><linearGradient id="l" gradientUnits="userSpaceOnUse" x1="178.544" x2="169.16" xlink:href="#a" y1="482.24" y2="31.528"/><linearGradient id="m" gradientUnits="userSpaceOnUse" x1="109.576" x2="100.192" xlink:href="#a" y1="483.672" y2="32.96"/><linearGradient id="n" gradientUnits="userSpaceOnUse" x1="382.048" x2="372.656" xlink:href="#a" y1="478" y2="27.288"/><path d="m104 96c-26.507812 0-48-21.492188-48-48s21.492188-48 48-48 48 21.492188 48 48c-.027344 26.5-21.5 47.972656-48 48zm0-80c-17.671875 0-32 14.328125-32 32s14.328125 32 32 32 32-14.328125 32-32-14.328125-32-32-32zm0 0" fill="url(#b)"/><path d="m376 96c-26.507812 0-48-21.492188-48-48s21.492188-48 48-48 48 21.492188 48 48c-.027344 26.5-21.5 47.972656-48 48zm0-80c-17.671875 0-32 14.328125-32 32s14.328125 32 32 32 32-14.328125 32-32-14.328125-32-32-32zm0 0" fill="url(#c)"/><path d="m96 296h16v184h-16zm0 0" fill="url(#d)"/><path d="m320 287.199219c-18.613281-3.828125-31.976562-20.199219-32-39.199219v-8h-16v8c.03125 27.8125 20.472656 51.386719 48 55.359375v176.640625h16v-216h-16zm0 0" fill="url(#e)"/><path d="m368 296h16v184h-16zm0 0" fill="url(#f)"/><path d="m184 224v-16h-68.6875l20.289062-20.289062-11.3125-11.3125-39.601562 39.601562 39.601562 39.601562 11.3125-11.3125-20.289062-20.289062zm0 0" fill="url(#g)"/><path d="m344.398438 187.710938 20.289062 20.289062h-68.6875v16h68.6875l-20.289062 20.289062 11.3125 11.3125 39.601562-39.601562-39.601562-39.601562zm0 0" fill="url(#h)"/><path d="m200 208h16v16h-16zm0 0" fill="url(#i)"/><path d="m232 208h16v16h-16zm0 0" fill="url(#j)"/><path d="m264 208h16v16h-16zm0 0" fill="url(#k)"/><path d="m192 248c-.015625 15.664062-9.167969 29.878906-23.425781 36.367188-2.730469 1.292968-5.609375 2.242187-8.574219 2.832031v-23.199219h-16v216h16v-176.625c5.292969-.710938 10.449219-2.222656 15.289062-4.480469 19.917969-9.105469 32.699219-28.992187 32.710938-50.894531v-8h-16zm0 0" fill="url(#l)"/><path d="m72 128h64c11.242188-.03125 22.230469 3.359375 31.496094 9.726562 15.3125 10.429688 24.484375 27.746094 24.503906 46.273438v8h16v-8c-.011719-23.804688-11.789062-46.070312-31.464844-59.472656-11.925781-8.199219-26.0625-12.566406-40.535156-12.527344h-64c-39.746094.046875-71.953125 32.253906-72 72v64c.03125 27.8125 20.472656 51.386719 48 55.359375v176.640625h16v-320h-16v127.199219c-18.613281-3.828125-31.976562-20.199219-32-39.199219v-64c.035156-30.914062 25.085938-55.964844 56-56zm0 0" fill="url(#m)"/><path d="m448.535156 124.527344c-11.925781-8.199219-26.0625-12.566406-40.535156-12.527344h-64c-39.746094.046875-71.953125 32.253906-72 72v8h16v-8c.035156-30.914062 25.085938-55.964844 56-56h64c11.242188-.03125 22.230469 3.359375 31.496094 9.726562 15.3125 10.429688 24.484375 27.746094 24.503906 46.273438v64c-.015625 15.664062-9.167969 29.878906-23.425781 36.367188-2.730469 1.292968-5.609375 2.242187-8.574219 2.832031v-127.199219h-16v320h16v-176.625c5.292969-.710938 10.449219-2.222656 15.289062-4.480469 19.917969-9.105469 32.699219-28.992187 32.710938-50.894531v-64c-.011719-23.804688-11.789062-46.070312-31.464844-59.472656zm0 0" fill="url(#n)"/></svg>