<?xml version="1.0" encoding="UTF-8"?>
<svg width="375.14" height="353.38" enable-background="new" version="1.1" viewBox="0 0 375.14228 353.38236" xml:space="preserve" xmlns="http://www.w3.org/2000/svg" xmlns:cc="http://creativecommons.org/ns#" xmlns:dc="http://purl.org/dc/elements/1.1/" xmlns:rdf="http://www.w3.org/1999/02/22-rdf-syntax-ns#" xmlns:xlink="http://www.w3.org/1999/xlink"><metadata><rdf:RDF><cc:Work rdf:about=""><dc:format>image/svg+xml</dc:format><dc:type rdf:resource="http://purl.org/dc/dcmitype/StillImage"/><dc:title/></cc:Work></rdf:RDF></metadata><defs><linearGradient id="x"><stop stop-color="#d5ed73" offset="0"/><stop stop-color="#e2694c" offset="1"/></linearGradient><linearGradient id="z"><stop stop-color="#73ed87" offset="0"/><stop stop-color="#2178ce" offset="1"/></linearGradient><linearGradient id="ae"><stop stop-color="#73a2ed" offset="0"/><stop stop-color="#ce21ba" offset="1"/></linearGradient><linearGradient id="a"><stop stop-color="#fff" offset="0"/><stop stop-color="#bdc7d4" offset="1"/></linearGradient><linearGradient id="b"><stop stop-color="#020f22" offset="0"/><stop stop-color="#212a3d" offset="1"/></linearGradient><linearGradient id="e"><stop stop-color="#f5f5f5" offset="0"/><stop stop-color="#94a2b9" offset="1"/></linearGradient><radialGradient id="m" cx="254.94" cy="176.37" r="144.77" gradientTransform="translate(59.191 -14.929)" gradientUnits="userSpaceOnUse"><stop stop-color="#021981" offset="0"/><stop stop-color="#6ebefd" stop-opacity=".83886" offset="1"/></radialGradient><radialGradient id="l" cx="254.94" cy="176.37" r="144.77" gradientTransform="matrix(.27814 0 0 .27814 167.11 10.463)" gradientUnits="userSpaceOnUse"><stop stop-color="#8399fd" offset="0"/><stop stop-color="#6ebefd" offset="1"/></radialGradient><radialGradient id="k" cx="254.94" cy="176.37" r="144.77" gradientTransform="matrix(.14105 0 0 .14105 136.93 124.17)" gradientUnits="userSpaceOnUse"><stop stop-color="#5674fc" offset="0"/><stop stop-color="#6ebefd" offset="1"/></radialGradient><radialGradient id="j" cx="254.94" cy="176.37" r="144.77" gradientTransform="matrix(.4645 0 0 .4645 309.04 95.688)" gradientUnits="userSpaceOnUse"><stop stop-color="#b0befe" offset="0"/><stop stop-color="#6ebefd" offset="1"/></radialGradient><filter id="al" color-interpolation-filters="sRGB"><feGaussianBlur result="blur" stdDeviation="3 3"/></filter><linearGradient id="aj" x1="-428.45" x2="-229.23" y1="-150.41" y2="-150.41" gradientUnits="userSpaceOnUse" xlink:href="#e"/><linearGradient id="ai" x1="143.07" x2="311.95" y1="27.378" y2="-44.44" gradientUnits="userSpaceOnUse" xlink:href="#b"/><linearGradient id="ah" x1="-255.66" x2="-256.76" y1="-71.32" y2="-161.83" gradientTransform="translate(-7.1418 -7.141)" gradientUnits="userSpaceOnUse" xlink:href="#e"/><linearGradient id="ag" x1="339.09" x2="267.72" y1="2.0328" y2="-9.986" gradientTransform="matrix(.86593 .50017 0 1 1.836 -1.1475)" gradientUnits="userSpaceOnUse"><stop stop-color="#2b405f" offset="0"/><stop stop-color="#0c1322" offset="1"/></linearGradient><linearGradient id="af" x1="253.15" x2="252.5" y1="51.872" y2="166.11" gradientTransform="translate(-131.77)" gradientUnits="userSpaceOnUse" xlink:href="#a"/><linearGradient id="ad" x1="210.91" x2="295.36" y1="111.54" y2="111.54" gradientUnits="userSpaceOnUse" xlink:href="#ae"/><linearGradient id="ac" x1="253.15" x2="252.5" y1="51.872" y2="166.11" gradientTransform="translate(-22.07)" gradientUnits="userSpaceOnUse" xlink:href="#a"/><linearGradient id="ab" x1="253.15" x2="252.5" y1="51.872" y2="166.11" gradientTransform="translate(90.226)" gradientUnits="userSpaceOnUse" xlink:href="#a"/><linearGradient id="aa" x1="190.84" x2="269.38" y1="111.59" y2="111.59" gradientUnits="userSpaceOnUse" xlink:href="#z"/><linearGradient id="y" x1="312.57" x2="385.09" y1="72.94" y2="156.25" gradientUnits="userSpaceOnUse" xlink:href="#x"/><linearGradient id="w" x1="128.4" x2="129.14" y1="116.21" y2="109.61" gradientUnits="userSpaceOnUse" xlink:href="#b"/><linearGradient id="v" x1="96.566" x2="152.43" y1="116.6" y2="104.33" gradientUnits="userSpaceOnUse" xlink:href="#b"/><linearGradient id="u" x1="129.56" x2="130.47" y1="147.58" y2="131.86" gradientUnits="userSpaceOnUse" xlink:href="#b"/><linearGradient id="t" x1="122.75" x2="116.12" y1="115.14" y2="104.04" gradientUnits="userSpaceOnUse" xlink:href="#b"/><linearGradient id="s" x1="105.26" x2="170.2" y1="120.27" y2="120.27" gradientUnits="userSpaceOnUse"><stop stop-color="#cdd4f4" offset="0"/><stop stop-color="#5dbbff" stop-opacity=".55294" offset="1"/></linearGradient><linearGradient id="r" x1="105.56" x2="156.99" y1="69.166" y2="69.166" gradientUnits="userSpaceOnUse" xlink:href="#a"/><linearGradient id="q" x1="136.04" x2="145.45" y1="165.62" y2="165.62" gradientUnits="userSpaceOnUse" xlink:href="#a"/><linearGradient id="p" x1="119.48" x2="122.75" y1="106.1" y2="106.1" gradientUnits="userSpaceOnUse" xlink:href="#a"/><linearGradient id="o" x1="121.45" x2="106.47" y1="144.76" y2="135.7" gradientUnits="userSpaceOnUse" xlink:href="#b"/><linearGradient id="n" x1="116.23" x2="134.34" y1="119.2" y2="119.2" gradientUnits="userSpaceOnUse"><stop stop-color="#2a6f2c" offset="0"/><stop stop-color="#53be74" offset="1"/></linearGradient></defs><style type="text/css">
	.st0{fill:none;}
</style><g transform="translate(-138.15 -12.427)" fill-rule="evenodd"><circle cx="238.02" cy="59.518" r="40.108" fill="url(#l)" opacity=".61" stroke="#fff" stroke-opacity=".24645" stroke-width=".31903"/><circle cx="172.89" cy="149.05" r="20.34" fill="url(#k)" opacity=".48916" stroke="#fff" stroke-opacity=".24645" stroke-width=".16178"/><circle cx="427.45" cy="177.61" r="66.98" fill="url(#j)" opacity=".48916" stroke="#fff" stroke-opacity=".24645" stroke-width=".53278"/><circle cx="314.13" cy="161.44" r="144.2" fill="url(#m)"/></g><g id="ak" transform="translate(-27.539 19.743)"><rect transform="matrix(.86908 .49467 .86603 -.5 -71.631 -2.158)" x="303.42" y="-171.11" width="192.81" height="94.464" ry="7.9554" enable-background="new" fill="#000d24" fill-opacity=".31754" fill-rule="evenodd" filter="url(#al)"/></g><g id="h"><g transform="translate(-27.829 26.34)"><path transform="matrix(-.86603 -.5 .86612 -.49983 0 0)" d="m-426.73-190.1 187.43-0.6657c3.1928-0.0113 12.274 7.5312 11.945 10.468l-9.1162 81.363c-0.32909 2.9371-2.6288 5.5174-5.7734 5.6224l-183.97 6.1451c-3.1446 0.10504-9.3759-8.7074-9.2692-11.767l2.9841-85.544c0.10674-3.06 2.5806-5.611 5.7734-5.6224z" enable-background="new" fill="url(#ah)"/><rect transform="matrix(-.86603 -.5 .86612 -.49983 0 0)" x="-430.07" y="-187.22" width="200.73" height="101.06" rx="5.7734" ry="5.6224" enable-background="new" fill="url(#aj)"/><g transform="rotate(180 168.44 232.18)"><g transform="matrix(.4344 .25797 -.37928 .21669 137.88 153.39)" enable-background="new" fill="#212a3d"><rect x="2.2185" y="42.745" width="24.326" height="9.6388" rx="2.99" ry="2.936"/><rect x="31.172" y="42.745" width="24.326" height="9.6388" rx="2.99" ry="2.936"/><rect x="60.126" y="42.745" width="24.326" height="9.6388" rx="2.99" ry="2.936"/><rect x="89.079" y="42.745" width="24.326" height="9.6388" rx="2.99" ry="2.936"/><rect x="118.03" y="42.745" width="24.326" height="9.6388" rx="2.99" ry="2.936"/><rect x="146.99" y="42.745" width="24.326" height="9.6388" rx="2.99" ry="2.936"/><rect x="175.94" y="42.745" width="24.326" height="9.6388" rx="2.99" ry="2.936"/><rect x="204.89" y="42.745" width="24.326" height="9.6388" rx="2.99" ry="2.936"/><rect x="233.85" y="42.745" width="24.326" height="9.6388" rx="2.99" ry="2.936"/><rect x="262.8" y="42.745" width="24.326" height="9.6388" rx="2.99" ry="2.936"/><rect x="291.75" y="42.745" width="24.326" height="9.6388" rx="2.99" ry="2.936"/><rect x="320.71" y="42.745" width="24.326" height="9.6388" rx="2.99" ry="2.936"/><rect x="349.66" y="42.745" width="24.326" height="9.6388" rx="2.99" ry="2.936"/><rect x="2.2185" y="54.745" width="22.031" height="19.507" rx="2.99" ry="2.936"/><rect x="28.673" y="54.764" width="22.031" height="19.507" rx="2.99" ry="2.936"/><rect x="55.127" y="54.783" width="22.031" height="19.507" rx="2.99" ry="2.936"/><rect x="81.582" y="54.803" width="22.031" height="19.507" rx="2.99" ry="2.936"/><rect x="108.04" y="54.822" width="22.031" height="19.507" rx="2.99" ry="2.936"/><rect x="134.49" y="54.841" width="22.031" height="19.507" rx="2.99" ry="2.936"/><rect x="160.95" y="54.86" width="22.031" height="19.507" rx="2.99" ry="2.936"/><rect x="187.4" y="54.879" width="22.031" height="19.507" rx="2.99" ry="2.936"/><rect x="213.85" y="54.898" width="22.031" height="19.507" rx="2.99" ry="2.936"/><rect x="240.31" y="54.917" width="22.031" height="19.507" rx="2.99" ry="2.936"/><rect x="266.76" y="54.936" width="22.031" height="19.507" rx="2.99" ry="2.936"/><rect x="293.22" y="54.955" width="22.031" height="19.507" rx="2.99" ry="2.936"/><rect x="321.1" y="54.975" width="51.386" height="19.507" rx="2.99" ry="2.936"/><rect x="46.206" y="76.29" width="22.031" height="19.507" rx="2.99" ry="2.936"/><rect x="72.66" y="76.31" width="22.031" height="19.507" rx="2.99" ry="2.936"/><rect x="99.114" y="76.329" width="22.031" height="19.507" rx="2.99" ry="2.936"/><rect x="125.57" y="76.348" width="22.031" height="19.507" rx="2.99" ry="2.936"/><rect x="152.02" y="76.367" width="22.031" height="19.507" rx="2.99" ry="2.936"/><rect x="178.48" y="76.386" width="22.031" height="19.507" rx="2.99" ry="2.936"/><rect x="204.93" y="76.405" width="22.031" height="19.507" rx="2.99" ry="2.936"/><rect x="231.39" y="76.424" width="22.031" height="19.507" rx="2.99" ry="2.936"/><rect x="257.84" y="76.443" width="22.031" height="19.507" rx="2.99" ry="2.936"/><rect x="284.3" y="76.463" width="22.031" height="19.507" rx="2.99" ry="2.936"/><rect x="310.75" y="76.482" width="22.031" height="19.507" rx="2.99" ry="2.936"/><rect x="4.6627" y="98.255" width="44.75" height="19.507" rx="2.99" ry="2.936"/><rect x="53.836" y="98.274" width="22.031" height="19.507" rx="2.99" ry="2.936"/><rect x="80.29" y="98.293" width="22.031" height="19.507" rx="2.99" ry="2.936"/><rect x="106.74" y="98.312" width="22.031" height="19.507" rx="2.99" ry="2.936"/><rect x="133.2" y="98.331" width="22.031" height="19.507" rx="2.99" ry="2.936"/><rect x="159.65" y="98.35" width="22.031" height="19.507" rx="2.99" ry="2.936"/><rect x="186.11" y="98.369" width="22.031" height="19.507" rx="2.99" ry="2.936"/><rect x="212.56" y="98.389" width="22.031" height="19.507" rx="2.99" ry="2.936"/><rect x="239.02" y="98.408" width="22.031" height="19.507" rx="2.99" ry="2.936"/><rect x="265.47" y="98.427" width="22.031" height="19.507" rx="2.99" ry="2.936"/><rect x="291.93" y="98.446" width="22.031" height="19.507" rx="2.99" ry="2.936"/><rect x="68.765" y="119.05" width="22.031" height="19.507" rx="2.99" ry="2.936"/><rect x="95.22" y="119.06" width="22.031" height="19.507" rx="2.99" ry="2.936"/><rect x="121.67" y="119.08" width="22.031" height="19.507" rx="2.99" ry="2.936"/><rect x="148.13" y="119.1" width="22.031" height="19.507" rx="2.99" ry="2.936"/><rect x="174.58" y="119.12" width="22.031" height="19.507" rx="2.99" ry="2.936"/><rect x="201.04" y="119.14" width="22.031" height="19.507" rx="2.99" ry="2.936"/><rect x="227.49" y="119.16" width="22.031" height="19.507" rx="2.99" ry="2.936"/><rect x="253.95" y="119.18" width="22.031" height="19.507" rx="2.99" ry="2.936"/><rect x="280.4" y="119.2" width="22.031" height="19.507" rx="2.99" ry="2.936"/><rect x="322.92" y="119.22" width="22.031" height="19.507" rx="2.99" ry="2.936"/><rect x="4.0136" y="141.74" width="22.031" height="19.507" rx="2.99" ry="2.936"/><rect x="30.468" y="141.76" width="22.031" height="19.507" rx="2.99" ry="2.936"/><rect x="56.922" y="141.78" width="22.031" height="19.507" rx="2.99" ry="2.936"/><rect x="83.377" y="141.8" width="22.031" height="19.507" rx="2.99" ry="2.936"/><rect x="109.83" y="141.82" width="181.71" height="19.507" rx="2.99" ry="2.936"/><rect x="297.09" y="141.78" width="22.031" height="19.507" rx="2.99" ry="2.936"/><rect x="323.55" y="141.8" width="22.031" height="19.507" rx="2.99" ry="2.936"/><rect x="3.3645" y="76.29" width="35.014" height="19.507" rx="2.99" ry="2.936"/><rect x="4.0136" y="119.03" width="59.069" height="19.507" rx="2.99" ry="2.936"/><rect x="323.08" y="98.446" width="47.996" height="19.507" rx="2.99" ry="2.936"/><rect x="337.83" y="76.482" width="33.898" height="19.507" rx="2.99" ry="2.936"/><rect x="351.09" y="141.8" width="22.031" height="19.507" rx="2.99" ry="2.936"/></g><rect transform="matrix(.86587 .50027 -.89536 .44535 0 0)" x="307.52" y="156.6" width="56.363" height="31.027" rx="4.4691" ry="2.9654" enable-background="new" fill-opacity=".22749" stroke="#212a3d" stroke-linejoin="round" stroke-width=".12346"/></g></g></g><g id="i"><g transform="translate(-115.36 76.85)"><path d="m131.59 42.428 164.69 95.129c3.1984 1.8475 5.7734 5.5061 5.7734 8.2033v107.76c0 2.6972-3.2198 4.6671-6.4045 2.796l-164.06-96.391c-3.1847-1.8711-5.727-5.5066-5.7734-8.2034l-1.836-106.73c-0.0464-2.6968 4.4109-4.414 7.6093-2.5665z" fill="url(#ag)"/><rect transform="matrix(.86593 .50017 0 1 0 0)" x="143.17" y="-31.37" width="203.53" height="117.49" rx="6.6673" ry="4.8686" fill="url(#ai)"/></g><g transform="matrix(.59467 .38081 0 .59467 38.927 89.956)"><circle cx="84.037" cy="179.95" r="34.648" fill="#2d88d2" fill-opacity=".64455" opacity=".31"/><path d="m61.61 193.43h11.15l0.37798-17.576c0.03792-1.7633 4.8315-1.1425 4.8192 0l-0.18899 17.481 11.623 0.0945v-17.198c0-1.9409 4.5357-1.2166 4.5357 0v17.765h10.961s0.28478-17.702 0.0945-22.112c-0.23106-5.3551-8.0652-12.696-16.536-3.8742-4.4724-5.3152-10.649-6.1654-16.631 0.0945v-2.8348h-10.016z" fill="#fff" fill-opacity=".99052"/><path d="m97.724 173.61v3.1689h2.3117l0.0334-3.063h2.8129l-0.0334-1.7944-2.8243-0.0334 0.0334-3.0677-2.2841-0.0334-0.06682 3.0238-3.0238-0.0334v1.844z" fill="#172134"/></g></g><g id="d"><g transform="matrix(.72835 .41826 0 .72835 10.456 -95.342)"><rect x="292.75" y="50.249" width="99.313" height="121.38" ry="1.2677" fill="url(#ab)"/><g fill="url(#y)"><rect x="302.24" y="59.63" width="84.224" height="8.2618" ry="1.2677"/><rect x="302.24" y="150.51" width="84.224" height="8.2618" ry="1.2677"/><rect x="302.24" y="70.35" width="84.224" height="3.4424" ry=".5282"/><circle cx="314.29" cy="103.35" r="6.3111"/><circle cx="314.29" cy="118.72" r="6.3111"/><circle cx="314.29" cy="134.33" r="6.3111"/><rect x="326.8" y="99.791" width="58.521" height="1.836" ry=".5282"/><rect x="326.8" y="103.79" width="31.441" height="1.836" ry=".5282"/><rect x="326.8" y="115.79" width="58.521" height="1.836" ry=".5282"/><rect x="326.8" y="119.79" width="31.441" height="1.836" ry=".5282"/><rect x="326.8" y="131.79" width="58.521" height="1.836" ry=".5282"/><rect x="326.8" y="135.79" width="31.441" height="1.836" ry=".5282"/><circle cx="314.29" cy="87.348" r="6.3111"/><rect x="326.8" y="83.791" width="58.521" height="1.836" ry=".5282"/><rect x="326.8" y="87.791" width="31.441" height="1.836" ry=".5282"/></g></g></g><g id="g"><g transform="matrix(.72835 .41826 0 .72835 70.57 -38.55)" enable-background="new"><rect x="180.45" y="50.249" width="99.313" height="121.38" ry="1.2677" fill="url(#ac)"/><g transform="translate(0 -.64911)" fill="url(#aa)"><rect x="190.84" y="59.661" width="31.806" height="103.86" ry="1.2677"/><rect x="227.51" y="60.635" width="41.867" height="1.6228" ry=".81138"/><rect x="227.51" y="69.398" width="41.867" height="1.6228" ry=".81138"/><rect x="227.51" y="79.784" width="41.867" height="1.6228" ry=".81138"/><rect x="227.51" y="90.818" width="41.867" height="1.6228" ry=".81138"/><rect x="227.51" y="101.2" width="41.867" height="1.6228" ry=".81138"/><rect x="227.51" y="112.89" width="41.867" height="50.306" ry="1.2677"/></g></g></g><g id="c"><g transform="matrix(.72835 .41826 0 .72835 126.13 25.654)" enable-background="new"><rect x="70.753" y="50.249" width="99.313" height="121.38" ry="1.2677" fill="url(#af)"/><g transform="translate(-132.72 -.59743)" fill="url(#ad)"><rect x="210.91" y="62.154" width="84.454" height="1.836" ry=".91798"/><rect x="210.91" y="71.554" width="43.833" height="1.836" ry=".91798"/><rect x="210.91" y="80.954" width="43.833" height="1.836" ry=".91798"/><rect x="210.91" y="90.354" width="43.833" height="1.836" ry=".91798"/><rect x="210.91" y="118.55" width="84.454" height="1.836" ry=".91798"/><rect x="253.82" y="127.95" width="41.538" height="1.836" ry=".91798"/><rect x="253.82" y="137.35" width="41.538" height="1.836" ry=".91798"/><rect x="253.82" y="146.75" width="41.538" height="1.836" ry=".91798"/><circle cx="231.81" cy="142.99" r="17.932"/><circle cx="278.06" cy="86.518" r="16.796"/></g></g></g><g id="f"><g><path d="m116.29 112.43 5.9231 3.7324 12.154-5.6822-6.1834-3.57z" fill="url(#t)"/><g fill="url(#o)"><path d="m128.44 106.75v36.307c0 3.7163 1.1032 11.951-2.2633 13.525-3.3665 1.574-9.8903-4.1265-9.8903-7.8428v-36.307z"/><path d="m116.29 112.43 5.9231 3.7324 1.8e-4 36.373-5.8423-3.4272z"/></g><rect transform="matrix(.90232 -.43107 0 1 0 0)" x="136.04" y="157.47" width="9.4105" height="16.311" ry="0" fill="url(#q)"/><ellipse transform="matrix(.92234 -.38638 0 1 0 0)" cx="133.39" cy="116.6" rx="36.825" ry="33.965" fill="url(#v)"/><path d="m122.75 98.825-3.2703-1.7617v15.932l3.2703 2.1408z" fill="url(#p)"/><ellipse transform="matrix(.92234 -.38638 0 1 0 0)" cx="137.73" cy="120.27" rx="36.825" ry="33.965" fill="url(#w)"/><path d="m156.98 54.511c0.49647 14.486-13.261 35.93-29.949 42.495-14.106 5.5497-21.472-0.10959-21.472-0.10959 32.865 5.1691 57.242-38.914 45.193-58.009 0 0 5.8202 3.7374 6.2276 15.624z" fill="url(#r)" opacity=".245"/><ellipse transform="matrix(.92234 -.38638 0 1 0 0)" cx="137.73" cy="120.27" rx="32.471" ry="29.949" fill="url(#s)"/><path d="m134.37 110.48v36.307c0 3.7163-2.7103 7.9753-6.0768 9.5493-3.3665 1.574-6.0768-0.15074-6.0768-3.8671v-36.307z" fill="url(#u)"/><path d="m116.23 117.39 5.9332 3.4255 12.181-4.8657v1.8256l-12.171 4.6655-5.8809-3.3954z" fill="url(#n)"/></g></g><style type="text/css">
	.st0{fill:none;}
</style><animateTransform additive="sum" attributeName="transform" dur="2.5s" xlink:href="#h" keyTimes="0; 0.5; 1" repeatCount="indefinite" type="translate" values="0 0; 0 10; 0 0"/><animateTransform additive="sum" attributeName="transform" dur="0.3s" xlink:href="#h" keyTimes="0; 1" repeatCount="1" type="scale" values="1.05; 1"/><animateTransform additive="sum" attributeName="transform" dur="2.5s" xlink:href="#i" keyTimes="0; 0.5; 1" repeatCount="indefinite" type="translate" values="0 0; 0 10; 0 0"/><animateTransform additive="sum" attributeName="transform" dur="0.3s" xlink:href="#i" keyTimes="0; 1" repeatCount="1" type="scale" values="1.05; 1"/><animate attributeName="opacity" attributeType="CSS" dur="2.5s" xlink:href="#ak" keyTimes="0; 0.5; 1" repeatCount="indefinite" values="0.5; 1; 0.5"/>
     <animateTransform additive="sum" attributeName="transform" dur="3s" xlink:href="#d" keyTimes="0; 0.5; 1" repeatCount="indefinite" type="translate" values="0 0; 10 -10; 0 0"/>
     <animate attributeName="opacity" attributeType="CSS" dur="3s" xlink:href="#d" keyTimes="0; 0.5; 1" repeatCount="indefinite" values="0.5; 1; 0.5"/>
     <animateTransform additive="sum" attributeName="transform" dur="0.3s" xlink:href="#d" keyTimes="0; 1" repeatCount="1" type="scale" values="1.2; 1"/>
    <animate attributeName="opacity" attributeType="CSS" dur="3s" xlink:href="#g" keyTimes="0; 0.5; 1" repeatCount="indefinite" values="0.5; 1; 0.5"/>
      <animateTransform additive="sum" attributeName="transform" dur="0.3s" xlink:href="#g" keyTimes="0; 1" repeatCount="1" type="scale" values="1.2; 1"/>
      <animateTransform additive="sum" attributeName="transform" dur="3s" xlink:href="#c" keyTimes="0; 0.5; 1" repeatCount="indefinite" type="translate" values="0 0; -10 10; 0 0"/>
      <animate attributeName="opacity" attributeType="CSS" dur="3s" xlink:href="#c" keyTimes="0; 0.5; 1" repeatCount="indefinite" values="0.5; 1; 0.5"/>
      <animateTransform additive="sum" attributeName="transform" dur="0.3s" xlink:href="#c" keyTimes="0; 1" repeatCount="1" type="scale" values="1.2; 1"/>
     <animateTransform additive="sum" attributeName="transform" dur="2s" xlink:href="#f" keyTimes="0; 0.5; 1" repeatCount="indefinite" type="rotate" values="-10 136.04156 157.46904; 10 136.04156 157.46904;  -10 136.04156 157.46904"/>
     <animateTransform additive="sum" attributeName="transform" dur="0.3s" xlink:href="#f" keyTimes="0; 1" repeatCount="1" type="scale" values="1.5; 1"/>
   </svg>
