<?xml version="1.0" encoding="UTF-8"?>
<svg width="375.14" height="353.38" enable-background="new" version="1.1" viewBox="0 0 375.14228 353.38236" xml:space="preserve" xmlns="http://www.w3.org/2000/svg" xmlns:cc="http://creativecommons.org/ns#" xmlns:dc="http://purl.org/dc/elements/1.1/" xmlns:rdf="http://www.w3.org/1999/02/22-rdf-syntax-ns#" xmlns:xlink="http://www.w3.org/1999/xlink"><metadata><rdf:RDF><cc:Work rdf:about=""><dc:format>image/svg+xml</dc:format><dc:type rdf:resource="http://purl.org/dc/dcmitype/StillImage"/><dc:title/></cc:Work></rdf:RDF></metadata><defs><linearGradient id="z"><stop stop-color="#e0e8f4" offset="0"/><stop stop-color="#8c99b3" offset="1"/></linearGradient><linearGradient id="aa"><stop stop-color="#e0e8f4" offset="0"/><stop stop-color="#233862" offset="1"/></linearGradient><linearGradient id="d"><stop stop-color="#020f22" offset="0"/><stop stop-color="#292d35" offset="1"/></linearGradient><linearGradient id="n"><stop stop-color="#1d437d" offset="0"/><stop stop-color="#1c2e58" stop-opacity=".96078" offset="1"/></linearGradient><linearGradient id="a"><stop stop-color="#f4f4f4" offset="0"/><stop stop-color="#94a2b9" offset="1"/></linearGradient><linearGradient id="o"><stop stop-color="#0548b2" offset="0"/><stop stop-color="#2667fc" stop-opacity=".96078" offset="1"/></linearGradient><linearGradient id="b"><stop stop-color="#5674fc" offset="0"/><stop stop-color="#6ebefd" offset="1"/></linearGradient><radialGradient id="s" cx="254.94" cy="176.37" r="144.77" gradientTransform="translate(59.191 -14.929)" gradientUnits="userSpaceOnUse"><stop stop-color="#021981" offset="0"/><stop stop-color="#6ebefd" stop-opacity=".83886" offset="1"/></radialGradient><radialGradient id="r" cx="254.94" cy="176.37" r="144.77" gradientTransform="matrix(.27814 0 0 .27814 377.42 133.79)" gradientUnits="userSpaceOnUse"><stop stop-color="#8399fd" offset="0"/><stop stop-color="#6ebefd" offset="1"/></radialGradient><radialGradient id="q" cx="254.94" cy="176.37" r="144.77" gradientTransform="matrix(.14105 0 0 .14105 165.5 222.83)" gradientUnits="userSpaceOnUse" xlink:href="#b"/><radialGradient id="p" cx="254.94" cy="176.37" r="144.77" gradientTransform="matrix(.4645 0 0 .4645 96.778 5.4624)" gradientUnits="userSpaceOnUse"><stop stop-color="#b0befe" offset="0"/><stop stop-color="#6ebefd" offset="1"/></radialGradient><linearGradient id="ak" x1="265.25" x2="256.54" y1="248.27" y2="164.21" gradientTransform="translate(0 .64911)" gradientUnits="userSpaceOnUse"><stop stop-color="#0548b2" offset="0"/><stop stop-color="#2667fc" offset="1"/></linearGradient><linearGradient id="aj" x1="202.73" x2="259.8" y1="103.92" y2="166.23" gradientTransform="translate(0 .64911)" gradientUnits="userSpaceOnUse" xlink:href="#o"/><linearGradient id="ai" x1="207.6" x2="147.75" y1="172.69" y2="236.3" gradientTransform="translate(0 .64911)" gradientUnits="userSpaceOnUse" xlink:href="#o"/><linearGradient id="ah" x1="220.66" x2="299.95" y1="203.01" y2="203.01" gradientTransform="translate(0 .64911)" gradientUnits="userSpaceOnUse" xlink:href="#b"/><linearGradient id="ag" x1="220.68" x2="300.21" y1="219.34" y2="219.34" gradientTransform="translate(0 .64911)" gradientUnits="userSpaceOnUse" xlink:href="#b"/><linearGradient id="af" x1="162.98" x2="213.93" y1="262.71" y2="239.35" gradientTransform="translate(0 .64911)" gradientUnits="userSpaceOnUse" xlink:href="#a"/><linearGradient id="ae" x1="97.535" x2="214.58" y1="178.05" y2="178.05" gradientTransform="translate(0 .64911)" gradientUnits="userSpaceOnUse" xlink:href="#a"/><linearGradient id="ad" x1="80.552" x2="169.14" y1="234.62" y2="234.62" gradientTransform="translate(0 .64911)" gradientUnits="userSpaceOnUse" xlink:href="#a"/><linearGradient id="ac" x1="58.158" x2="150.76" y1="214.72" y2="263.08" gradientTransform="translate(0 .64911)" gradientUnits="userSpaceOnUse" xlink:href="#a"/><linearGradient id="ab" x1="143.62" x2="71.077" y1="274.92" y2="243.76" gradientTransform="translate(0 .64911)" gradientUnits="userSpaceOnUse"><stop stop-color="#f4f4f4" offset="0"/><stop stop-color="#f4f4f4" stop-opacity="0" offset="1"/></linearGradient><radialGradient id="v" cx="182.91" cy="228.54" r="17.442" gradientTransform="matrix(1 0 0 1.5 0 -113.62)" gradientUnits="userSpaceOnUse" xlink:href="#n"/><radialGradient id="u" cx="127.48" cy="211.21" r="37.794" gradientTransform="matrix(1 0 0 .93928 0 13.475)" gradientUnits="userSpaceOnUse" xlink:href="#n"/><linearGradient id="m" x1="93.892" x2="111.53" y1="362.87" y2="347.51" gradientUnits="userSpaceOnUse" xlink:href="#d"/><linearGradient id="l" x1="150.4" x2="136.44" y1="369.04" y2="345.47" gradientTransform="matrix(.91366 0 0 .91366 12.652 31.229)" gradientUnits="userSpaceOnUse" xlink:href="#aa"/><radialGradient id="j" cx="148.49" cy="361.18" r="5.5867" gradientTransform="matrix(1.1759 .0067368 -.1843 1.0672 40.453 -25.282)" gradientUnits="userSpaceOnUse" xlink:href="#z"/><linearGradient id="k" x1="170.55" x2="166.25" y1="291.17" y2="287.44" gradientUnits="userSpaceOnUse" xlink:href="#d"/><linearGradient id="c"><stop stop-color="#2e8af0" offset="0"/><stop stop-color="#2e8af0" stop-opacity="0" offset="1"/></linearGradient><radialGradient id="t" cx="261.28" cy="49.544" r="37.503" gradientTransform="matrix(1 0 0 1.8591 0 -42.561)" gradientUnits="userSpaceOnUse" xlink:href="#d"/><linearGradient id="y" x1="40.934" x2="86.21" y1="53.756" y2="53.756" gradientTransform="matrix(4.0685 0 0 4.0685 -162.2 -97.345)" gradientUnits="userSpaceOnUse" xlink:href="#c"/><linearGradient id="x" x1="40.934" x2="86.21" y1="53.756" y2="53.756" gradientTransform="matrix(.94521 0 0 .94521 -24.426 -36.128)" gradientUnits="userSpaceOnUse" xlink:href="#c"/><linearGradient id="w" x1="40.934" x2="86.21" y1="53.756" y2="53.756" gradientTransform="matrix(.67123 0 0 .61644 29.583 -63.731)" gradientUnits="userSpaceOnUse" xlink:href="#c"/><filter id="an" color-interpolation-filters="sRGB"><feGaussianBlur result="blur" stdDeviation="3 3"/></filter></defs><style type="text/css">
	.st0{fill:none;}
</style><g transform="translate(-138.15 -12.427)" fill-rule="evenodd"><circle cx="448.33" cy="182.85" r="40.108" fill="url(#r)" opacity=".61" stroke="#fff" stroke-opacity=".24645" stroke-width=".31903"/><circle cx="201.45" cy="247.71" r="20.34" fill="url(#q)" opacity=".48916" stroke="#fff" stroke-opacity=".24645" stroke-width=".16178"/><circle cx="215.19" cy="87.385" r="66.98" fill="url(#p)" opacity=".48916" stroke="#fff" stroke-opacity=".24645" stroke-width=".53278"/><circle cx="314.13" cy="161.44" r="144.2" fill="url(#s)"/></g><g id="e"><g transform="matrix(1.1164 -.55925 0 1.1164 2.7234 73.667)"><rect x="46.358" y="27.96" width="67.93" height="67.93" ry="11.627" fill="#243866" fill-opacity=".73934"/><g transform="matrix(.77049 0 0 .77049 57.98 39.582)" opacity=".839"><path d="m17.775 17.594-13.108 13.108c-6.223 6.223-6.223 16.405 0 22.627 6.223 6.223 16.405 6.223 22.627 0l13.108-13.108z" fill="#dd352e"/><path d="m40.422 40.202 12.908-12.907c6.222-6.223 6.222-16.405 0-22.627-6.223-6.223-16.405-6.223-22.627 0l-12.909 12.906z" fill="#ebba16"/><path d="m22.046 21.826-17.11 17.11c-0.586 0.585-0.586 1.536 0 2.121 0.293 0.293 0.677 0.439 1.061 0.439s0.768-0.146 1.061-0.439l17.11-17.11z" fill="#f46767"/><path d="m24.165 23.948 15.892-15.891c0.586-0.585 0.586-1.536 0-2.121-0.586-0.586-1.535-0.586-2.121 0l-15.892 15.891z" fill="#fcd770"/></g></g></g><g id="i"><g transform="matrix(.71465 -.35801 0 .71465 43.089 56.973)"><rect x="134.94" y="27.96" width="67.93" height="67.93" ry="11.627" enable-background="new" fill="#243866" fill-opacity=".74118"/><g transform="matrix(.79919 0 0 .79919 146.53 39.548)" opacity=".715"><rect x="14" width="38" height="12" fill="#f77400"/><path d="m16 12v28.432c2.88 0.76 4.894 2.453 4.919 4.452 2e-3 0.118 0.042 0.346 0.073 0.34 2e-3 0.012 8e-3 0.021 8e-3 0.033 0 0 0.05 5.625 0 5.671-3e-3 1.661-1.414 3.144-3.556 4.072h30.556c1.004 0 2-0.814 2-1.817v-41.183z" fill="#e7bb4e"/><path d="m49.708 49h-15.708v-28h15.708c0.161 0 0.292 0.131 0.292 0.292v27.416c0 0.161-0.131 0.292-0.292 0.292z" fill="#f2ecbf"/><rect x="39" y="34" width="11" height="2" fill="#c9be7d"/><rect x="39" y="38" width="11" height="2" fill="#c9be7d"/><rect x="39" y="26" width="11" height="2" fill="#c9be7d"/><rect x="39" y="30" width="11" height="2" fill="#c9be7d"/><rect x="39" y="42" width="11" height="2" fill="#c9be7d"/><rect x="18" width="2" height="12" fill="#c15505"/><rect x="22" width="2" height="12" fill="#c15505"/><rect x="26" width="2" height="12" fill="#c15505"/><rect x="30" width="2" height="12" fill="#c15505"/><rect x="34" width="2" height="12" fill="#c15505"/><rect x="38" width="2" height="12" fill="#c15505"/><rect x="42" width="2" height="12" fill="#c15505"/><rect x="46" width="2" height="12" fill="#c15505"/><path d="m20.92 44.884c0.035 2.761-3.723 5.051-8.395 5.115s-8.489-2.122-8.525-4.883c-0.035-2.761 3.723-5.051 8.395-5.115s8.489 2.122 8.525 4.883z" fill="#c8c9cb"/><path d="m20.992 45.224c-0.034 7e-3 -0.073 5e-3 -0.108 0.011-0.273 2.6-3.889 4.702-8.36 4.764-4.528 0.062-8.236-1.992-8.493-4.632-0.01 4e-3 -0.021 6e-3 -0.031 0.01v5.366c0 0.022-1e-3 0.266 0 0.373 0.035 2.761 3.852 4.947 8.524 4.882 4.647-0.064 8.47-2.33 8.476-5.07 0.05-0.047 0-5.671 0-5.671 0-0.012-6e-3 -0.021-8e-3 -0.033z" fill="#e0e4e7"/><path d="m20 42.673v-21.756h-4v19.515c1.728 0.456 3.14 1.247 4 2.241z" fill="#f2ecbf"/><path d="m8.862 49.553 8.617-8.617c-0.656-0.281-1.383-0.505-2.165-0.663l-8.497 8.497c0.609 0.317 1.296 0.581 2.045 0.783z" fill="#ebebeb"/><rect x="24" y="12" width="4" height="43" fill="#f9d991"/></g></g></g><g id="h"><g transform="matrix(.47059 -.23575 0 .47059 83.337 99.127)"><rect x="218.48" y="27.96" width="67.93" height="67.93" ry="11.627" enable-background="new" fill="#243866" fill-opacity=".74118"/><g transform="matrix(.78013 0 0 .78013 229.64 39.126)" opacity=".718"><path d="m49.048 39.148-30.447-30.446l-9.9 9.899 10.677 10.677 3.535-3.536c0.391-0.391 1.023-0.391 1.414 0 0.391 0.39 0.391 1.023 0 1.414l-3.535 3.536 1.414 1.414 3.536-3.535c0.391-0.391 1.023-0.391 1.414 0s0.391 1.024 0 1.414l-3.536 3.535 15.527 15.527c1.54 1.54 4.036 1.54 5.575 0l4.324-4.324c1.541-1.539 1.541-4.035 2e-3 -5.575z" fill="#dff2f8"/><path d="m39.148 49.048c1.54 1.54 4.036 1.54 5.575 0l4.324-4.324c1.54-1.54 1.54-4.036 0-5.575l-4.698-4.698h-19.799z" fill="#a1c8ec"/><rect transform="matrix(.7071 -.7071 .7071 .7071 -4.0618 9.806)" x="6.806" y="4.368" width="6" height="10.877" fill="#afb6bb"/><path d="m5.874 22.43c-0.256 0-0.512-0.098-0.707-0.293-0.391-0.391-0.391-1.023 0-1.414l15.556-15.556c0.391-0.391 1.023-0.391 1.414 0s0.391 1.023 0 1.414l-15.556 15.556c-0.196 0.195-0.452 0.293-0.707 0.293z" fill="#d8eaef"/><path d="m24.328 27.157c0.391-0.391 0.391-1.024 0-1.414-0.391-0.391-1.023-0.391-1.414 0l-3.535 3.536 1.414 1.414z" fill="#7fabda"/><path d="m27.157 29.985c0.391-0.39 0.391-1.023 0-1.414s-1.023-0.391-1.414 0l-3.536 3.535 1.414 1.414z" fill="#7fabda"/><path d="m57.45 58.45c-0.256 0-0.512-0.098-0.707-0.293l-6.321-6.321c-0.391-0.391-0.391-1.023 0-1.414s1.023-0.391 1.414 0l6.321 6.321c0.391 0.391 0.391 1.023 0 1.414-0.196 0.195-0.451 0.293-0.707 0.293z" fill="#949493"/><polygon points="12.238 16.458 19.692 23.935 23.935 19.692 16.481 12.215" fill="#7fabda"/><rect transform="matrix(.7071 .7071 -.7071 .7071 21.814 -9.0354)" x="20.814" y="14.814" width="2" height="14" fill="#556080"/><path d="m1 11.899c-0.256 0-0.512-0.098-0.707-0.293-0.391-0.391-0.391-1.023 0-1.414l9.899-9.899c0.391-0.391 1.023-0.391 1.414 0s0.391 1.023 0 1.414l-9.899 9.899c-0.195 0.196-0.451 0.293-0.707 0.293z" fill="#e7eced"/><circle cx="36.45" cy="39.45" r="1" fill="#fff"/><circle cx="41.45" cy="45.45" r="1" fill="#fff"/><circle cx="43.45" cy="40.45" r="1" fill="#fff"/><polygon points="44.764 49.007 49.007 44.764 51.835 50.421 50.421 51.835" fill="#25ae88"/></g></g></g><g id="am" transform="translate(-27.539 19.743)"><rect transform="matrix(.86908 .49467 .86603 -.5 0 0)" x="339.86" y="-232.42" width="98.986" height="202.86" ry="7.9554" enable-background="new" fill="#000d24" fill-opacity=".31754" fill-rule="evenodd" filter="url(#an)"/></g><g id="al"><g transform="translate(193.94 120.11)" fill-rule="evenodd"><g transform="translate(3.3351e-7 44.549)" display="none"><circle cx="96.444" cy="121.36" r="92.102" fill="url(#y)" opacity=".598"/><circle cx="35.662" cy="14.682" r="21.397" fill="url(#x)" opacity=".433"/><ellipse cx="72.255" cy="-30.594" rx="15.195" ry="13.955" fill="url(#w)" opacity=".325"/></g><g transform="matrix(.58304 1.0099 1.0099 -.58304 -313.89 8.1371)"><path transform="matrix(.86294 .50531 0 1 0 0)" d="m221.33-33.308c3.953-5.3119 8.7926-10.658 12.572-10.658h71.243c3.7796 0 6.8224 3.0428 6.8224 6.8224v160.32c0 3.7796-3.1326 6.9453-9.3379 12.978" fill="#a4c3fa" fill-opacity=".98104"/><rect transform="matrix(.86294 .50531 0 1 0 0)" x="219.89" y="-35.993" width="84.888" height="173.97" ry="6.8224" fill="#e9f1ff"/><rect transform="matrix(.86347 .5044 0 1 0 0)" x="223.78" y="-20.177" width="75.006" height="139.44" ry="2.6562" fill="url(#t)"/><rect transform="matrix(.86096 .50868 -.33413 .94253 0 0)" x="237.68" y="-27.993" width="29.274" height="4.0133" ry="2.0067" fill="#a4c3fa" fill-opacity=".99526"/></g></g></g><g id="g"><path d="m220.31 170.44 79.405-45.669 0.45898 88.585-79.405 46.128z" fill="url(#ak)"/><path d="m220.31 170.44-76.651-44.292 0.49835 86.382 76.612 46.954z" fill="url(#ai)"/><path d="m143.66 126.14 79.175-45.899 76.881 44.522-79.405 45.669z" fill="url(#aj)"/><path d="m220.7 253.1 79.516-45.438-0.0339 5.6938-79.405 46.128z" fill="#112d6e" fill-opacity=".96078"/><path d="m220.7 253.1-0.0197-21.421 79.211-44.788 0.32456 20.771z" fill="url(#ag)"/><path d="m220.77 228.15 79.061-44.292 0.11475-4.7046-79.29 44.981z" fill="url(#ah)"/><g transform="translate(81.585 -45.823)" enable-background="new"><g enable-background="new"><ellipse transform="matrix(.81164 -.58416 .28049 .95986 0 0)" cx="104.58" cy="353.87" rx="15.636" ry="13.282" fill="url(#m)"/><ellipse transform="matrix(.85336 -.52132 .16252 .9867 0 0)" cx="148.25" cy="360.87" rx="11.523" ry="10.038" fill="#e0e8f4"/><ellipse transform="matrix(.85336 -.52132 .16252 .9867 0 0)" cx="148.1" cy="360.94" rx="10.528" ry="9.1711" fill="url(#l)"/><ellipse transform="matrix(.85336 -.52132 .16252 .9867 0 0)" cx="148.49" cy="361.18" rx="5.5867" ry="4.8666" fill="url(#j)"/><ellipse transform="matrix(.85336 -.52132 .16252 .9867 0 0)" cx="148.49" cy="361.18" rx="5.5867" ry="4.8666" fill="none" stroke="#363f51" stroke-linejoin="round" stroke-width=".32741"/></g><path d="m171.2 286.65-3.9758 2.3124c3.1147 2.4481 6.4526 3.679 9.7772 4.8683" fill="url(#k)"/></g><g transform="matrix(.45839 -.21071 .035007 .47395 218.53 108.99)"><circle cx="84.037" cy="179.95" r="34.648" fill="#112e72"/><path d="m61.61 193.43h11.15l0.37798-17.576c0.03792-1.7633 4.8315-1.1425 4.8192 0l-0.18899 17.481 11.623 0.0945v-17.198c0-1.9409 4.5357-1.2166 4.5357 0v17.765h10.961s0.28478-17.702 0.0945-22.112c-0.23106-5.3551-8.0652-12.696-16.536-3.8742-4.4724-5.3152-10.649-6.1654-16.631 0.0945v-2.8348h-10.016z" fill="#fff" fill-opacity=".99052"/><path d="m97.724 173.61v3.1689h2.3117l0.0334-3.063h2.8129l-0.0334-1.7944-2.8243-0.0334 0.0334-3.0677-2.2841-0.0334-0.06682 3.0238-3.0238-0.0334v1.844z" fill="#112e72"/></g></g><g id="f"><path d="m97.535 172.04 71.602 41.079 45.44-27.08-70.914-41.768z" fill="url(#ae)"/><path d="m169.14 213.12-18.819 63.34 0.91798 22.031 63.111-35.113 0.2295-77.34z" fill="url(#af)"/><path d="m97.535 172.04-16.983 62.881 0.68848 23.638 69.996 39.932-0.91798-22.031 18.819-63.34z" fill="url(#ad)"/><path d="m90.191 210.6 64.029 36.26 10.557-33.506-64.717-36.49z" fill="url(#u)"/><path d="m174.42 217.48 25.703-14.458-0.45899 28.687-33.506 17.671z" fill="url(#v)"/><path d="m80.814 252.45 69.941 40.082 0.48144 5.9654-69.996-39.932z" fill="#15347a"/><path d="m150.76 292.53 63.45-36.188 0.14206 7.0405-63.111 35.113z" fill="#15347a"/><path d="m80.552 234.92 69.766 41.538 0.43654 16.066-69.941-40.082z" fill="url(#ac)"/><path d="m95.094 241.9 42.192 24.991-0.64911 15.741-42.03-24.179z" fill="url(#ab)"/><path d="m97.691 248.39 36.35 20.771-0.48683 9.2498-36.188-21.096z" fill="#121532"/><path d="m187.59 242.22 12.333-6.4911v2.921l-12.333 6.3288z" fill="#121532"/><g transform="translate(0 .64911)"><g enable-background="new"><ellipse transform="matrix(.81164 -.58416 .28049 .95986 0 0)" cx="104.58" cy="353.87" rx="15.636" ry="13.282" fill="url(#m)"/><ellipse transform="matrix(.85336 -.52132 .16252 .9867 0 0)" cx="148.25" cy="360.87" rx="11.523" ry="10.038" fill="#e0e8f4"/><ellipse transform="matrix(.85336 -.52132 .16252 .9867 0 0)" cx="148.1" cy="360.94" rx="10.528" ry="9.1711" fill="url(#l)"/><ellipse transform="matrix(.85336 -.52132 .16252 .9867 0 0)" cx="148.49" cy="361.18" rx="5.5867" ry="4.8666" fill="url(#j)"/><ellipse transform="matrix(.85336 -.52132 .16252 .9867 0 0)" cx="148.49" cy="361.18" rx="5.5867" ry="4.8666" fill="none" stroke="#363f51" stroke-linejoin="round" stroke-width=".32741"/></g><path d="m171.2 286.65-3.9758 2.3124c3.1147 2.4481 6.4526 3.679 9.7772 4.8683" fill="url(#k)"/></g></g>
         <style type="text/css">
	.st0{fill:none;}
</style>
    <animateTransform additive="sum" attributeName="transform" dur="2.5s" xlink:href="#al" keyTimes="0; 0.5; 1" repeatCount="indefinite" type="translate" values="0 0; 0 10; 0 0"/>
    <animate attributeName="opacity" attributeType="CSS" dur="2.5s" xlink:href="#am" keyTimes="0; 0.5; 1" repeatCount="indefinite" values="0.5; 1; 0.5"/>
    <animateTransform additive="sum" attributeName="transform" dur="2.5s" xlink:href="#f" keyTimes="0; 0.5; 1" repeatCount="indefinite" type="translate" values="0 0; 0 10; 0 0"/>
         <animateTransform additive="sum" attributeName="transform" dur="2s" xlink:href="#f" keyTimes="0; 0.1; 0.3; 0.4; 0.5; 0.7; 0.9; 1" repeatCount="indefinite" type="translate" values="0 0; 0 4; 0 2; 0 1; 0 4; 0 0; 0 4; 0 0"/>
    <animateTransform additive="sum" attributeName="transform" dur="0.3s" xlink:href="#f" keyTimes="0; 1" repeatCount="1" type="scale" values="1.2; 1"/>
    <animateTransform additive="sum" attributeName="transform" dur="2.5s" xlink:href="#g" keyTimes="0; 0.5; 1" repeatCount="indefinite" type="translate" values="0 0; 0 10; 0 0"/>
      <animateTransform additive="sum" attributeName="transform" dur="2s" xlink:href="#g" keyTimes="0; 0.1; 0.3; 0.4; 0.5; 0.7; 0.9; 1" repeatCount="indefinite" type="translate" values="0 4; 0 1; 0 2; 0 2; 0 0; 0 3; 0 0; 0 4"/>
    <animateTransform additive="sum" attributeName="transform" dur="0.3s" xlink:href="#g" keyTimes="0; 1" repeatCount="1" type="scale" values="1.2; 1"/>
    <animateTransform additive="sum" attributeName="transform" dur="5s" xlink:href="#e" keyTimes="0; 0.5; 1" repeatCount="indefinite" type="translate" values="0 0; 0 20; 0 0"/>
     <animate attributeName="opacity" attributeType="CSS" dur="5s" xlink:href="#e" keyTimes="0; 0.5; 1" repeatCount="indefinite" values="0.5; 1; 0.5"/>
    <animateTransform additive="sum" attributeName="transform" dur="0.3s" xlink:href="#e" keyTimes="0; 1" repeatCount="1" type="scale" values="1.1; 1"/>
    <animateTransform additive="sum" attributeName="transform" dur="3s" xlink:href="#i" keyTimes="0; 0.5; 1" repeatCount="indefinite" type="translate" values="0 0; 0 10; 0 0"/>
     <animate attributeName="opacity" attributeType="CSS" dur="3s" xlink:href="#i" keyTimes="0; 0.5; 1" repeatCount="indefinite" values="0.5; 1; 0.5"/>
    <animateTransform additive="sum" attributeName="transform" dur="0.3s" xlink:href="#i" keyTimes="0; 1" repeatCount="1" type="scale" values="1.1; 1"/>
    <animateTransform additive="sum" attributeName="transform" dur="3.5s" xlink:href="#h" keyTimes="0; 0.5; 1" repeatCount="indefinite" type="translate" values="0 0; 0 5; 0 0"/>
    <animate attributeName="opacity" attributeType="CSS" dur="3.5s" xlink:href="#h" keyTimes="0; 0.5; 1" repeatCount="indefinite" values="0.5; 1; 0.5"/>
    <animateTransform additive="sum" attributeName="transform" dur="0.3s" xlink:href="#h" keyTimes="0; 1" repeatCount="1" type="scale" values="1.1; 1"/>
</svg>
