<?xml version="1.0" encoding="UTF-8"?>
<svg width="375.14" height="353.38" enable-background="new" version="1.1" viewBox="0 0 375.14228 353.38236" xml:space="preserve" xmlns="http://www.w3.org/2000/svg" xmlns:cc="http://creativecommons.org/ns#" xmlns:dc="http://purl.org/dc/elements/1.1/" xmlns:rdf="http://www.w3.org/1999/02/22-rdf-syntax-ns#" xmlns:xlink="http://www.w3.org/1999/xlink"><metadata><rdf:RDF><cc:Work rdf:about=""><dc:format>image/svg+xml</dc:format><dc:type rdf:resource="http://purl.org/dc/dcmitype/StillImage"/><dc:title/></cc:Work></rdf:RDF></metadata><defs><linearGradient id="ac"><stop stop-color="#d01f51" offset="0"/><stop stop-color="#f20043" offset="1"/></linearGradient><linearGradient id="c"><stop stop-color="#6b78d0" offset="0"/><stop stop-color="#6897e5" offset="1"/></linearGradient><linearGradient id="ae"><stop stop-color="#c5cfff" stop-opacity=".20853" offset="0"/><stop stop-color="#fc629b" offset="1"/></linearGradient><linearGradient id="i"><stop stop-color="#910029" offset="0"/><stop stop-color="#f20043" offset="1"/></linearGradient><linearGradient id="a"><stop stop-color="#020f22" offset="0"/><stop stop-color="#212a3d" offset="1"/></linearGradient><linearGradient id="j"><stop stop-color="#f5f5f5" offset="0"/><stop stop-color="#94a2b9" offset="1"/></linearGradient><linearGradient id="g"><stop stop-color="#8399fd" offset="0"/><stop stop-color="#6ebefd" offset="1"/></linearGradient><radialGradient id="s" cx="254.94" cy="176.37" r="144.77" gradientTransform="translate(59.191 -14.929)" gradientUnits="userSpaceOnUse"><stop stop-color="#021981" offset="0"/><stop stop-color="#6ebefd" stop-opacity=".83886" offset="1"/></radialGradient><radialGradient id="r" cx="254.94" cy="176.37" r="144.77" gradientTransform="matrix(.27814 0 0 .27814 131.05 30.262)" gradientUnits="userSpaceOnUse" xlink:href="#g"/><radialGradient id="q" cx="254.94" cy="176.37" r="144.77" gradientTransform="matrix(.14105 0 0 .14105 161.68 220.34)" gradientUnits="userSpaceOnUse"><stop stop-color="#5674fc" offset="0"/><stop stop-color="#6ebefd" offset="1"/></radialGradient><radialGradient id="p" cx="254.94" cy="176.37" r="144.77" gradientTransform="matrix(.4645 0 0 .4645 307.62 67.404)" gradientUnits="userSpaceOnUse"><stop stop-color="#b0befe" offset="0"/><stop stop-color="#6ebefd" offset="1"/></radialGradient><linearGradient id="al" x1="120.39" x2="159" y1="89.581" y2="98.081" gradientTransform="matrix(1.7391 0 0 1.7391 -97.891 -102.46)" gradientUnits="userSpaceOnUse" xlink:href="#j"/><linearGradient id="ak" x1="100.87" x2="145.56" y1="108.96" y2="108.82" gradientTransform="matrix(1.7391 0 0 1.7391 -97.891 -102.46)" gradientUnits="userSpaceOnUse" xlink:href="#j"/><linearGradient id="aj" x1="143.6" x2="123.31" y1="108.62" y2="95.867" gradientUnits="userSpaceOnUse" xlink:href="#a"/><linearGradient id="ai" x1="147.29" x2="118.64" y1="133.18" y2="133.93" gradientUnits="userSpaceOnUse" xlink:href="#a"/><linearGradient id="ah" x1="158.29" x2="111.39" y1="126.93" y2="130.93" gradientUnits="userSpaceOnUse" xlink:href="#a"/><linearGradient id="ag" x1="146.6" x2="113.81" y1="105.12" y2="90.867" gradientUnits="userSpaceOnUse" xlink:href="#a"/><linearGradient id="af" x1="104.41" x2="161.76" y1="179.45" y2="179.45" gradientTransform="matrix(1.7391 0 0 1.7391 -97.891 -102.46)" gradientUnits="userSpaceOnUse"><stop stop-color="#b0befe" offset="0"/><stop stop-color="#038edb" stop-opacity=".30332" offset="1"/></linearGradient><radialGradient id="x" cx="133" cy="176.01" r="12.875" gradientTransform="matrix(1 0 0 2.7282 0 -304.17)" gradientUnits="userSpaceOnUse" xlink:href="#i"/><radialGradient id="w" cx="133" cy="176.01" r="12.875" gradientTransform="matrix(1.4742 0 0 4.0218 -81.502 -502.27)" gradientUnits="userSpaceOnUse" xlink:href="#g"/><radialGradient id="v" cx="144.88" cy="227.26" r="7.875" gradientTransform="matrix(1.5542 0 0 1.5542 -113.81 -120.18)" gradientUnits="userSpaceOnUse" xlink:href="#c"/><radialGradient id="u" cx="144.88" cy="227.26" r="7.875" gradientTransform="matrix(.5805 0 0 .5805 88.02 42.12)" gradientUnits="userSpaceOnUse" xlink:href="#c"/><radialGradient id="t" cx="144.88" cy="227.26" r="7.875" gradientTransform="matrix(1.5542 0 0 1.5542 -59.833 -106.62)" gradientUnits="userSpaceOnUse" xlink:href="#c"/><linearGradient id="ad" x1="125.43" x2="141.07" y1="176.79" y2="176.79" gradientUnits="userSpaceOnUse" xlink:href="#ae"/><filter id="an" color-interpolation-filters="sRGB"><feGaussianBlur result="blur" stdDeviation="1.5 1.5"/></filter><linearGradient id="b" x2="510" y1="255" y2="255" gradientUnits="userSpaceOnUse" xlink:href="#ac"/><linearGradient id="h" x1="335.73" x2="471.4" y1="144.45" y2="18.69" gradientUnits="userSpaceOnUse" xlink:href="#i"/><linearGradient id="ab" x1="467.92" x2="513.51" y1="99.015" y2="51.379" gradientUnits="userSpaceOnUse"><stop stop-color="#9f183f" offset="0"/><stop stop-color="#f20043" offset="1"/></linearGradient><linearGradient id="aa" x1="51" x2="190" y1="156.46" y2="156.46" gradientTransform="matrix(.67226 .20313 0 .67226 198.8 22.899)" gradientUnits="userSpaceOnUse"><stop stop-color="#f5f5f5" offset="0"/><stop stop-color="#d5e1f4" offset="1"/></linearGradient><linearGradient id="z" x1="102.69" x2="72.858" y1="174.68" y2="198.73" gradientTransform="matrix(.67226 .20313 0 .67226 199.8 19.024)" gradientUnits="userSpaceOnUse"><stop stop-color="#abacd1" offset="0"/><stop stop-color="#94a2b9" offset="1"/></linearGradient></defs><style type="text/css">
	.st0{fill:none;}
</style><g transform="translate(-138.15 -12.427)" fill-rule="evenodd"><circle cx="201.95" cy="79.317" r="40.108" fill="url(#r)" opacity=".61" stroke="#fff" stroke-opacity=".24645" stroke-width=".31903"/><circle cx="197.64" cy="245.21" r="20.34" fill="url(#q)" opacity=".48916" stroke="#fff" stroke-opacity=".24645" stroke-width=".16178"/><circle cx="426.04" cy="149.33" r="66.98" fill="url(#p)" opacity=".48916" stroke="#fff" stroke-opacity=".24645" stroke-width=".53278"/><circle cx="314.13" cy="161.44" r="144.2" fill="url(#s)"/></g><g id="am" transform="translate(-27.539 19.743)"><rect transform="matrix(.92079 0 0 .88911 -23.959 30.964)" x="143.76" y="264.5" width="113.92" height="65.423" rx="56.646" ry="32.711" enable-background="new" fill="#020f22" fill-opacity=".54028" filter="url(#an)"/></g><g id="n"><g transform="matrix(1.7391 0 0 1.7391 -97.891 84.158)" enable-background="new"><path d="m102.29 106.09 61.6 0.3193-0.0745 17.282c-0.0419 9.7369-13.574 17.576-30.436 17.576h-0.3394c-16.861 0-30.421-7.8383-30.436-17.576l-0.0265-17.578z" fill="url(#ah)"/><rect x="102.6" y="89.041" width="61.211" height="35.152" rx="30.436" ry="17.576" fill="url(#ag)"/></g></g><g id="l"><g transform="matrix(1.7391 0 0 1.7391 -97.891 -102.46)" enable-background="new" fill="none" stroke="url(#ad)" stroke-width="1px"><path d="m125.45 144.08 15.608 0.45992"/><path d="m128.81 152.39 9.0746 0.37514"/><path d="m131.17 164.56 4.1752-0.1624"/><path d="m126.85 170.68 12.314-0.0848"/><path d="m126.24 179.05 13.976-0.31041"/><path d="m127.14 187.04 12.293-0.17677"/><path d="m128.69 192.34h7.6014"/><path d="m129.91 202.21 6.5653 0.17678"/><path d="m127.35 209.16 11.82 0.33917"/></g></g><g id="f"><g transform="matrix(1.1797 0 0 1.1797 -1.7414 -38.906)" fill="url(#w)"><circle cx="102.59" cy="253.14" r="4.2383" opacity=".811"/><circle cx="106.46" cy="243.93" r="4.2383" opacity=".811"/><circle cx="112.91" cy="235.82" r="4.2383" opacity=".811"/><circle cx="121.2" cy="230.11" r="4.2383" opacity=".811"/><circle cx="127.28" cy="220.89" r="4.2383" opacity=".811"/><circle cx="129.31" cy="209.28" r="4.2383" opacity=".811"/><circle cx="127.65" cy="196.94" r="4.2383" opacity=".811"/><circle cx="121.75" cy="187.72" r="4.2383" opacity=".811"/><circle cx="113.27" cy="180.17" r="4.2383" opacity=".811"/><circle cx="104.98" cy="170.59" r="4.2383" opacity=".811"/><circle cx="99.823" cy="158.06" r="4.2383" opacity=".811"/></g></g><g id="e"><g transform="matrix(-1.7391 0 0 1.7391 365.64 -101.23)" enable-background="new" fill="url(#x)"><circle cx="124.88" cy="208.26" r="2.875" opacity=".811"/><circle cx="127.5" cy="202.01" r="2.875" opacity=".811"/><circle cx="131.88" cy="196.51" r="2.875" opacity=".811"/><circle cx="137.5" cy="192.63" r="2.875" opacity=".811"/><circle cx="141.62" cy="186.38" r="2.875" opacity=".811"/><circle cx="143" cy="178.51" r="2.875" opacity=".811"/><circle cx="141.88" cy="170.13" r="2.875" opacity=".811"/><circle cx="137.88" cy="163.88" r="2.875" opacity=".811"/><circle cx="132.12" cy="158.76" r="2.875" opacity=".811"/><circle cx="126.5" cy="152.26" r="2.875" opacity=".811"/><circle cx="123" cy="143.76" r="2.875" opacity=".811"/></g></g><g id="m"><circle id="y" cx="111.36" cy="233.03" r="12.24" fill="url(#v)" opacity=".402"/><circle id="ap" cx="172.12" cy="174.04" r="4.5714" fill="url(#u)" opacity=".384"/><circle id="ao" cx="165.34" cy="246.59" r="12.24" fill="url(#t)" opacity=".402"/></g><g id="o"><path d="m83.685 123.55 99.752 0.54367-0.12071 141.69c-0.0139 16.579-21.982 29.925-49.286 29.925h-0.54961c-27.304 0-49.262-13.346-49.286-29.925l-0.04295-142.2z" fill="url(#af)" opacity=".638"/><g transform="matrix(1.7391 0 0 1.7391 -97.891 -104.82)"><path d="m102.29 106.09 61.6 0.3193-0.0745 17.282c-0.0419 9.7369-13.574 17.576-30.436 17.576h-0.3394c-16.861 0-30.421-7.8383-30.436-17.576l-0.0265-17.578z" fill="url(#ai)"/><rect x="102.6" y="89.041" width="61.211" height="35.152" rx="30.436" ry="17.576" fill="url(#aj)"/></g><path d="m85.001 68.124 98.09 0.52482-0.11931 11.408c-0.16747 16.004-21.736 28.889-48.735 28.889h-0.54349c-26.999 0-48.06-12.899-48.735-28.889z" fill="url(#ak)"/><rect x="84.957" y="40.1" width="98.014" height="57.779" rx="48.735" ry="28.889" fill="url(#al)"/></g><g id="k"><g transform="matrix(.35834 0 0 .35834 137.42 78.608)" fill="#b40b58" fill-opacity=".54028"><g transform="matrix(.48051 0 0 .48051 149.12 65.613)" fill-opacity="1"><g transform="matrix(1 .33488 0 1 156.02 -131.82)" fill="url(#h)"><g fill="url(#h)" fill-opacity="1"><path d="m254.59 484.78-35.286-30.876c-132.6-117.3-216.96-256.21-216.96-353.11 0 0 58.86-80.392 137.91-80.392 43.35 0 84.218 22.058 112.27 55.208 0 0 73.882-55.208 117.23-55.208 79.05 0 140.25 61.2 140.25 140.25 0 96.9-86.7 175.95-219.3 293.25z" fill="url(#ab)" fill-opacity="1"/></g></g><g transform="matrix(1 .33488 0 1 131.02 -116.98)" fill="url(#b)"><g fill="url(#b)" fill-opacity="1"><path d="M 255,489.6 219.3,453.9 C 86.7,336.6 0,257.55 0,160.65 0,81.6 61.2,20.4 140.25,20.4 183.6,20.4 226.95,40.8 255,73.95 283.05,40.8 326.4,20.4 369.75,20.4 448.8,20.4 510,81.6 510,160.65 510,257.55 423.3,336.6 290.7,453.9 Z" fill="url(#b)" fill-opacity="1"/></g></g></g></g><g transform="matrix(.35197 .10343 -.028394 .37352 253.79 51.993)" enable-background="new"><path d="m55.369 199.49h12.813l0.43435-20.197c0.04357-2.0263 5.5522-1.3129 5.538 0l-0.21718 20.089 13.356 0.10859v-19.763c0-2.2304 5.2122-1.3981 5.2122 0v20.415h12.596s0.32726-20.342 0.1086-25.41c-0.26553-6.1538-9.2682-14.589-19.003-4.4521-5.1394-6.108-12.237-7.085-19.112 0.1086v-3.2577h-11.51z" fill="#fff" fill-opacity=".99052"/><path d="m97.724 173.61v3.1689h2.3117l0.0334-3.063h2.8129l-0.0334-1.7944-2.8243-0.0334 0.0334-3.0677-2.2841-0.0334-0.06682 3.0238-3.0238-0.0334v1.844z" fill="#e70a47"/></g></g><g id="d"><g transform="matrix(1.1856 0 0 1.1856 -83.33 -51.054)" fill="none"><path d="m233.08 154.19 13.109 3.961 5.2422-18.425 7.0099 28.279 14.35-48.182 10.768 47.052 15.473 4.6719 4.7655-6.7586 8.1704 16.309 4.0576-5.6891 10.748 3.4428" stroke="url(#z)" stroke-linejoin="bevel" stroke-width="2.353"/><path d="m233.08 154.19 13.109 3.961 4.2422-14.55 7.0099 28.279 13.975-47.932 10.856 43.795 16.017 4.8398 4.287-6.1299 8.1262 16.53 4.7205-6.7498 11.101 3.3544" stroke="url(#aa)" stroke-width="2.3529"/></g></g><style type="text/css">
	.st0{fill:none;}
</style><animateTransform additive="sum" attributeName="transform" dur="2.5s" xlink:href="#n" keyTimes="0; 0.5; 1" repeatCount="indefinite" type="translate" values="0 0; 0 10; 0 0"/><animateTransform additive="sum" attributeName="transform" dur="0.3s" xlink:href="#n" keyTimes="0; 1" repeatCount="1" type="scale" values="1.1; 1"/><animateTransform additive="sum" attributeName="transform" dur="2.5s" xlink:href="#o" keyTimes="0; 0.5; 1" repeatCount="indefinite" type="translate" values="0 0; 0 10; 0 0"/><animateTransform additive="sum" attributeName="transform" dur="0.3s" xlink:href="#o" keyTimes="0; 1" repeatCount="1" type="scale" values="1.1; 1"/><animateTransform additive="sum" attributeName="transform" dur="2.5s" xlink:href="#e" keyTimes="0; 0.5; 1" repeatCount="indefinite" type="translate" values="0 0; 0 10; 0 0"/><animateTransform additive="sum" attributeName="transform" dur="0.3s" xlink:href="#e" keyTimes="0; 1" repeatCount="1" type="scale" values="1.1; 1"/><animate attributeName="opacity" attributeType="CSS" dur="2.5s" xlink:href="#e" keyTimes="0; 0.5; 1" repeatCount="indefinite" values="0.3; 1; 0.3"/><animateTransform additive="sum" attributeName="transform" dur="2.5s" xlink:href="#f" keyTimes="0; 0.5; 1" repeatCount="indefinite" type="translate" values="0 0; 0 10; 0 0"/><animate attributeName="opacity" attributeType="CSS" dur="2.5s" xlink:href="#f" keyTimes="0; 0.5; 1" repeatCount="indefinite" values="1; 0.3; 1"/><animateTransform additive="sum" attributeName="transform" dur="0.3s" xlink:href="#f" keyTimes="0; 1" repeatCount="1" type="scale" values="1.1; 1"/><animateTransform additive="sum" attributeName="transform" dur="2.5s" xlink:href="#l" keyTimes="0; 0.5; 1" repeatCount="indefinite" type="translate" values="0 0; 0 10; 0 0"/><animateTransform additive="sum" attributeName="transform" dur="0.3s" xlink:href="#l" keyTimes="0; 1" repeatCount="1" type="scale" values="1.1; 1"/><animateTransform additive="sum" attributeName="transform" dur="4s" xlink:href="#k" keyTimes="0; 0.5; 1" repeatCount="indefinite" type="translate" values="0 0; 0 20; 0 0"/><animateTransform additive="sum" attributeName="transform" dur="0.3s" xlink:href="#k" keyTimes="0; 1" repeatCount="1" type="scale" values="1.1; 1"/><animateTransform additive="sum" attributeName="transform" dur="4s" xlink:href="#d" keyTimes="0; 0.5; 1" repeatCount="indefinite" type="translate" values="0 0; 0 20; 0 0"/><animateTransform additive="sum" attributeName="transform" dur="0.3s" xlink:href="#d" keyTimes="0; 1" repeatCount="1" type="scale" values="1.1; 1"/><animate attributeName="opacity" attributeType="CSS" dur="2.5s" xlink:href="#d" keyTimes="0; 0.3; 0.6; 0.95; 1" repeatCount="indefinite" values="0; 0; 1;1; 0"/><animateTransform additive="sum" attributeName="transform" dur="2.5s" xlink:href="#m" keyTimes="0; 0.5; 1" repeatCount="indefinite" type="translate" values="0 0; 0 10; 0 0"/><animateTransform additive="sum" attributeName="transform" dur="0.3s" xlink:href="#m" keyTimes="0; 1" repeatCount="1" type="scale" values="1.1; 1"/><animateTransform additive="sum" attributeName="transform" dur="4s" xlink:href="#y" keyTimes="0; 0.5; 1" repeatCount="indefinite" type="translate" values="0 -10; 0 10; 0 -10"/><animateTransform additive="sum" attributeName="transform" dur="6s" xlink:href="#ap" keyTimes="0; 0.5; 1" repeatCount="indefinite" type="translate" values="0 -10; 0 10; 0 -10"/><animateTransform additive="sum" attributeName="transform" dur="8s" xlink:href="#ao" keyTimes="0; 0.5; 1" repeatCount="indefinite" type="translate" values="0 -10; 0 10; 0 -10"/><animate attributeName="opacity" attributeType="CSS" dur="2.5s" xlink:href="#am" keyTimes="0; 0.5; 1" repeatCount="indefinite" values="0.5; 1; 0.5"/></svg>
