<?xml version="1.0" encoding="UTF-8"?>
<svg width="375.14" height="353.38" enable-background="new" version="1.1" viewBox="0 0 375.14228 353.38236" xml:space="preserve" xmlns="http://www.w3.org/2000/svg" xmlns:cc="http://creativecommons.org/ns#" xmlns:dc="http://purl.org/dc/elements/1.1/" xmlns:rdf="http://www.w3.org/1999/02/22-rdf-syntax-ns#" xmlns:xlink="http://www.w3.org/1999/xlink"><metadata><rdf:RDF><cc:Work rdf:about=""><dc:format>image/svg+xml</dc:format><dc:type rdf:resource="http://purl.org/dc/dcmitype/StillImage"/><dc:title/></cc:Work></rdf:RDF></metadata><defs><linearGradient id="f"><stop stop-color="#f5f5f5" offset="0"/><stop stop-color="#94a2b9" offset="1"/></linearGradient><linearGradient id="i"><stop stop-color="#0548b2" offset="0"/><stop stop-color="#2667fc" offset="1"/></linearGradient><linearGradient id="j"><stop stop-color="#e0e8f4" offset="0"/><stop stop-color="#8c99b3" offset="1"/></linearGradient><linearGradient id="e"><stop stop-color="#1d437d" offset="0"/><stop stop-color="#1c2e58" stop-opacity=".96078" offset="1"/></linearGradient><linearGradient id="g"><stop stop-color="#8399fd" offset="0"/><stop stop-color="#6ebefd" offset="1"/></linearGradient><linearGradient id="h"><stop stop-color="#b0befe" offset="0"/><stop stop-color="#6ebefd" offset="1"/></linearGradient><radialGradient id="u" cx="254.94" cy="176.37" r="144.77" gradientTransform="translate(59.191 -14.929)" gradientUnits="userSpaceOnUse"><stop stop-color="#021981" offset="0"/><stop stop-color="#6ebefd" stop-opacity=".83886" offset="1"/></radialGradient><radialGradient id="t" cx="254.94" cy="176.37" r="144.77" gradientTransform="matrix(.27814 0 0 .27814 148.93 201.95)" gradientUnits="userSpaceOnUse" xlink:href="#g"/><radialGradient id="s" cx="254.94" cy="176.37" r="144.77" gradientTransform="matrix(.14105 0 0 .14105 418.65 141.7)" gradientUnits="userSpaceOnUse"><stop stop-color="#5674fc" offset="0"/><stop stop-color="#6ebefd" offset="1"/></radialGradient><radialGradient id="r" cx="254.94" cy="176.37" r="144.77" gradientTransform="matrix(.4645 0 0 .4645 97.427 3.5151)" gradientUnits="userSpaceOnUse" xlink:href="#h"/><filter id="as" color-interpolation-filters="sRGB"><feGaussianBlur result="blur" stdDeviation="3 3"/></filter><linearGradient id="ac" x1="143.91" x2="142.65" y1="19.719" y2="108.3" gradientUnits="userSpaceOnUse" xlink:href="#j"/><linearGradient id="ab" x1="68.115" x2="234.87" y1="6.6519" y2="6.6519" gradientUnits="userSpaceOnUse"><stop stop-color="#0548b2" offset="0"/><stop stop-color="#2667fc" stop-opacity=".96078" offset="1"/></linearGradient><linearGradient id="aa" x1="210.36" x2="202.87" y1="123.08" y2="124.46" gradientUnits="userSpaceOnUse" xlink:href="#i"/><linearGradient id="z" x1="206.92" x2="200.58" y1="156.62" y2="156.94" gradientUnits="userSpaceOnUse" xlink:href="#j"/><linearGradient id="y" x1="168.68" x2="174.19" y1="93.161" y2="84.211" gradientUnits="userSpaceOnUse" xlink:href="#i"/><linearGradient id="aj" x1="205.76" x2="210.79" y1="183.98" y2="181.91" gradientTransform="matrix(1 0 .093999 1 -18.698 0)" gradientUnits="userSpaceOnUse"><stop stop-color="#b2050f" offset="0"/><stop stop-color="#fc2681" offset="1"/></linearGradient><linearGradient id="ai" x1="230.32" x2="211.59" y1="88.709" y2="113.56" gradientTransform="matrix(1.0401 0 0 .99484 -21.036 9.7943)" gradientUnits="userSpaceOnUse" xlink:href="#f"/><linearGradient id="ah" x1="198.33" x2="240.87" y1="117.72" y2="90.541" gradientTransform="matrix(1.0401 0 0 .99484 -21.036 9.7943)" gradientUnits="userSpaceOnUse"><stop stop-color="#b2050f" offset="0"/><stop stop-color="#fc2651" offset="1"/></linearGradient><radialGradient id="x" cx="221.88" cy="93.302" r="4.1467" gradientTransform="matrix(1.0401 0 0 .91494 -21.036 17.249)" gradientUnits="userSpaceOnUse"><stop stop-color="#243e66" offset="0"/><stop stop-color="#0c1322" offset="1"/></radialGradient><linearGradient id="ag" x1="-428.45" x2="-229.23" y1="-150.41" y2="-150.41" gradientUnits="userSpaceOnUse" xlink:href="#f"/><linearGradient id="af" x1="143.07" x2="311.95" y1="27.378" y2="-44.44" gradientUnits="userSpaceOnUse"><stop stop-color="#020f22" offset="0"/><stop stop-color="#212a3d" offset="1"/></linearGradient><radialGradient id="w" cx="244.94" cy="27.378" r="87.821" gradientTransform="matrix(1 0 0 .55001 0 12.32)" gradientUnits="userSpaceOnUse" xlink:href="#g"/><radialGradient id="v" cx="244.94" cy="-26.527" r="2.2661" gradientTransform="matrix(1 0 0 .86949 0 -3.462)" gradientUnits="userSpaceOnUse" xlink:href="#h"/><linearGradient id="ae" x1="-255.66" x2="-256.76" y1="-71.32" y2="-161.83" gradientTransform="translate(-7.1418 -7.141)" gradientUnits="userSpaceOnUse" xlink:href="#f"/><linearGradient id="ad" x1="339.09" x2="267.72" y1="2.0328" y2="-9.986" gradientTransform="matrix(.86593 .50017 0 1 1.836 -1.1475)" gradientUnits="userSpaceOnUse"><stop stop-color="#2b405f" offset="0"/><stop stop-color="#0c1322" offset="1"/></linearGradient><linearGradient id="c" x1="106.03" x2="229" y1="252.86" y2="252.86" gradientTransform="matrix(.86094 0 0 .74838 7.2743 -131.4)" gradientUnits="userSpaceOnUse" xlink:href="#e"/><linearGradient id="d" x1="106.03" x2="229" y1="252.86" y2="252.86" gradientTransform="matrix(.86094 0 0 .74838 7.2743 -115.49)" gradientUnits="userSpaceOnUse" xlink:href="#e"/><linearGradient id="b" x1="106.03" x2="229" y1="252.86" y2="252.86" gradientTransform="matrix(.86094 0 0 .74838 7.2743 -83.659)" gradientUnits="userSpaceOnUse" xlink:href="#e"/><linearGradient id="a" x1="106.03" x2="229" y1="252.86" y2="252.86" gradientTransform="matrix(.86094 0 0 .74838 7.2743 -99.574)" gradientUnits="userSpaceOnUse" xlink:href="#e"/></defs><style type="text/css">
	.st0{fill:none;}
</style><g transform="translate(-138.15 -12.427)" fill-rule="evenodd"><circle cx="219.84" cy="251.01" r="40.108" fill="url(#t)" opacity=".61" stroke="#fff" stroke-opacity=".24645" stroke-width=".31903"/><circle cx="454.61" cy="166.57" r="20.34" fill="url(#s)" opacity=".48916" stroke="#fff" stroke-opacity=".24645" stroke-width=".16178"/><circle cx="215.84" cy="85.438" r="66.98" fill="url(#r)" opacity=".48916" stroke="#fff" stroke-opacity=".24645" stroke-width=".53278"/><circle cx="314.13" cy="161.44" r="144.2" fill="url(#u)"/></g><g id="ak" transform="translate(-27.539 19.743)"><rect transform="matrix(.86908 .49467 .86603 -.5 0 0)" x="303.42" y="-171.11" width="192.81" height="94.464" ry="7.9554" enable-background="new" fill="#000d24" fill-opacity=".31754" fill-rule="evenodd" filter="url(#as)"/></g><g id="k"><g transform="translate(43.802 28.498)"><path transform="matrix(-.86603 -.5 .86612 -.49983 0 0)" d="m-426.73-190.1 187.43-0.6657c3.1928-0.0113 12.274 7.5312 11.945 10.468l-9.1162 81.363c-0.32909 2.9371-2.6288 5.5174-5.7734 5.6224l-183.97 6.1451c-3.1446 0.10504-9.3759-8.7074-9.2692-11.767l2.9841-85.544c0.10674-3.06 2.5806-5.611 5.7734-5.6224z" enable-background="new" fill="url(#ae)"/><rect transform="matrix(-.86603 -.5 .86612 -.49983 0 0)" x="-430.07" y="-187.22" width="200.73" height="101.06" rx="5.7734" ry="5.6224" enable-background="new" fill="url(#ag)"/><g transform="matrix(.4344 .25797 -.37928 .21669 137.88 153.39)" enable-background="new" fill="#212a3d"><rect x="2.2185" y="42.745" width="24.326" height="9.6388" rx="2.99" ry="2.936"/><rect x="31.172" y="42.745" width="24.326" height="9.6388" rx="2.99" ry="2.936"/><rect x="60.126" y="42.745" width="24.326" height="9.6388" rx="2.99" ry="2.936"/><rect x="89.079" y="42.745" width="24.326" height="9.6388" rx="2.99" ry="2.936"/><rect x="118.03" y="42.745" width="24.326" height="9.6388" rx="2.99" ry="2.936"/><rect x="146.99" y="42.745" width="24.326" height="9.6388" rx="2.99" ry="2.936"/><rect x="175.94" y="42.745" width="24.326" height="9.6388" rx="2.99" ry="2.936"/><rect x="204.89" y="42.745" width="24.326" height="9.6388" rx="2.99" ry="2.936"/><rect x="233.85" y="42.745" width="24.326" height="9.6388" rx="2.99" ry="2.936"/><rect x="262.8" y="42.745" width="24.326" height="9.6388" rx="2.99" ry="2.936"/><rect x="291.75" y="42.745" width="24.326" height="9.6388" rx="2.99" ry="2.936"/><rect x="320.71" y="42.745" width="24.326" height="9.6388" rx="2.99" ry="2.936"/><rect x="349.66" y="42.745" width="24.326" height="9.6388" rx="2.99" ry="2.936"/><rect x="2.2185" y="54.745" width="22.031" height="19.507" rx="2.99" ry="2.936"/><rect x="28.673" y="54.764" width="22.031" height="19.507" rx="2.99" ry="2.936"/><rect x="55.127" y="54.783" width="22.031" height="19.507" rx="2.99" ry="2.936"/><rect x="81.582" y="54.803" width="22.031" height="19.507" rx="2.99" ry="2.936"/><rect x="108.04" y="54.822" width="22.031" height="19.507" rx="2.99" ry="2.936"/><rect x="134.49" y="54.841" width="22.031" height="19.507" rx="2.99" ry="2.936"/><rect x="160.95" y="54.86" width="22.031" height="19.507" rx="2.99" ry="2.936"/><rect x="187.4" y="54.879" width="22.031" height="19.507" rx="2.99" ry="2.936"/><rect x="213.85" y="54.898" width="22.031" height="19.507" rx="2.99" ry="2.936"/><rect x="240.31" y="54.917" width="22.031" height="19.507" rx="2.99" ry="2.936"/><rect x="266.76" y="54.936" width="22.031" height="19.507" rx="2.99" ry="2.936"/><rect x="293.22" y="54.955" width="22.031" height="19.507" rx="2.99" ry="2.936"/><rect x="321.1" y="54.975" width="51.386" height="19.507" rx="2.99" ry="2.936"/><rect x="46.206" y="76.29" width="22.031" height="19.507" rx="2.99" ry="2.936"/><rect x="72.66" y="76.31" width="22.031" height="19.507" rx="2.99" ry="2.936"/><rect x="99.114" y="76.329" width="22.031" height="19.507" rx="2.99" ry="2.936"/><rect x="125.57" y="76.348" width="22.031" height="19.507" rx="2.99" ry="2.936"/><rect x="152.02" y="76.367" width="22.031" height="19.507" rx="2.99" ry="2.936"/><rect x="178.48" y="76.386" width="22.031" height="19.507" rx="2.99" ry="2.936"/><rect x="204.93" y="76.405" width="22.031" height="19.507" rx="2.99" ry="2.936"/><rect x="231.39" y="76.424" width="22.031" height="19.507" rx="2.99" ry="2.936"/><rect x="257.84" y="76.443" width="22.031" height="19.507" rx="2.99" ry="2.936"/><rect x="284.3" y="76.463" width="22.031" height="19.507" rx="2.99" ry="2.936"/><rect x="310.75" y="76.482" width="22.031" height="19.507" rx="2.99" ry="2.936"/><rect x="4.6627" y="98.255" width="44.75" height="19.507" rx="2.99" ry="2.936"/><rect x="53.836" y="98.274" width="22.031" height="19.507" rx="2.99" ry="2.936"/><rect x="80.29" y="98.293" width="22.031" height="19.507" rx="2.99" ry="2.936"/><rect x="106.74" y="98.312" width="22.031" height="19.507" rx="2.99" ry="2.936"/><rect x="133.2" y="98.331" width="22.031" height="19.507" rx="2.99" ry="2.936"/><rect x="159.65" y="98.35" width="22.031" height="19.507" rx="2.99" ry="2.936"/><rect x="186.11" y="98.369" width="22.031" height="19.507" rx="2.99" ry="2.936"/><rect x="212.56" y="98.389" width="22.031" height="19.507" rx="2.99" ry="2.936"/><rect x="239.02" y="98.408" width="22.031" height="19.507" rx="2.99" ry="2.936"/><rect x="265.47" y="98.427" width="22.031" height="19.507" rx="2.99" ry="2.936"/><rect x="291.93" y="98.446" width="22.031" height="19.507" rx="2.99" ry="2.936"/><rect x="68.765" y="119.05" width="22.031" height="19.507" rx="2.99" ry="2.936"/><rect x="95.22" y="119.06" width="22.031" height="19.507" rx="2.99" ry="2.936"/><rect x="121.67" y="119.08" width="22.031" height="19.507" rx="2.99" ry="2.936"/><rect x="148.13" y="119.1" width="22.031" height="19.507" rx="2.99" ry="2.936"/><rect x="174.58" y="119.12" width="22.031" height="19.507" rx="2.99" ry="2.936"/><rect x="201.04" y="119.14" width="22.031" height="19.507" rx="2.99" ry="2.936"/><rect x="227.49" y="119.16" width="22.031" height="19.507" rx="2.99" ry="2.936"/><rect x="253.95" y="119.18" width="22.031" height="19.507" rx="2.99" ry="2.936"/><rect x="280.4" y="119.2" width="22.031" height="19.507" rx="2.99" ry="2.936"/><rect x="322.92" y="119.22" width="22.031" height="19.507" rx="2.99" ry="2.936"/><rect x="4.0136" y="141.74" width="22.031" height="19.507" rx="2.99" ry="2.936"/><rect x="30.468" y="141.76" width="22.031" height="19.507" rx="2.99" ry="2.936"/><rect x="56.922" y="141.78" width="22.031" height="19.507" rx="2.99" ry="2.936"/><rect x="83.377" y="141.8" width="22.031" height="19.507" rx="2.99" ry="2.936"/><rect x="109.83" y="141.82" width="181.71" height="19.507" rx="2.99" ry="2.936"/><rect x="297.09" y="141.78" width="22.031" height="19.507" rx="2.99" ry="2.936"/><rect x="323.55" y="141.8" width="22.031" height="19.507" rx="2.99" ry="2.936"/><rect x="3.3645" y="76.29" width="35.014" height="19.507" rx="2.99" ry="2.936"/><rect x="4.0136" y="119.03" width="59.069" height="19.507" rx="2.99" ry="2.936"/><rect x="323.08" y="98.446" width="47.996" height="19.507" rx="2.99" ry="2.936"/><rect x="337.83" y="76.482" width="33.898" height="19.507" rx="2.99" ry="2.936"/><rect x="351.09" y="141.8" width="22.031" height="19.507" rx="2.99" ry="2.936"/></g><rect transform="matrix(.86587 .50027 -.89536 .44535 0 0)" x="307.52" y="156.6" width="56.363" height="31.027" rx="4.4691" ry="2.9654" enable-background="new" fill-opacity=".22749" stroke="#212a3d" stroke-linejoin="round" stroke-width=".12346"/></g></g><g id="l"><g transform="translate(43.802 28.498)"><path d="m131.59 42.428 164.69 95.129c3.1984 1.8475 5.7734 5.5061 5.7734 8.2033v107.76c0 2.6972-3.2198 4.6671-6.4045 2.796l-164.06-96.391c-3.1847-1.8711-5.727-5.5066-5.7734-8.2034l-1.836-106.73c-0.0464-2.6968 4.4109-4.414 7.6093-2.5665z" fill="url(#ad)"/><rect transform="matrix(.86593 .50017 0 1 0 0)" x="143.17" y="-31.37" width="203.53" height="117.49" rx="6.6673" ry="4.8686" fill="url(#af)"/><rect transform="matrix(.86593 .50017 0 1 0 0)" x="157.2" y="-20.837" width="175.47" height="96.43" ry="0" fill="url(#w)" stroke="#243e66" stroke-linejoin="round" stroke-width=".17494"/><ellipse transform="matrix(.86593 .50017 0 1 0 0)" cx="244.94" cy="-26.527" rx="2.2059" ry="1.9101" fill="url(#v)" stroke="#243e66" stroke-linejoin="round" stroke-width=".12047"/></g><g transform="matrix(.59467 .29975 0 .59467 199.28 45.92)"><circle cx="84.037" cy="179.95" r="34.648" fill="#2d88d2" opacity=".31"/><path d="m61.61 193.43h11.15l0.37798-17.576c0.03792-1.7633 4.8315-1.1425 4.8192 0l-0.18899 17.481 11.623 0.0945v-17.198c0-1.9409 4.5357-1.2166 4.5357 0v17.765h10.961s0.28478-17.702 0.0945-22.112c-0.23106-5.3551-8.0652-12.696-16.536-3.8742-4.4724-5.3152-10.649-6.1654-16.631 0.0945v-2.8348h-10.016z" fill="#fff" fill-opacity=".99052"/><path d="m97.724 173.61v3.1689h2.3117l0.0334-3.063h2.8129l-0.0334-1.7944-2.8243-0.0334 0.0334-3.0677-2.2841-0.0334-0.06682 3.0238-3.0238-0.0334v1.844z" fill="#2d88d2"/></g></g><g id="o"><rect transform="matrix(.86926 .49436 0 1 0 0)" x="68.115" y="-5.714" width="166.76" height="103.74" ry="0" fill="url(#ac)"/><rect transform="matrix(.86926 .49436 0 1 0 0)" x="68.115" y="-5.714" width="166.76" height="24.732" ry="0" fill="url(#ab)"/><rect transform="matrix(.86926 .49436 0 1 0 0)" x="109.48" y="2.8734" width="84.038" height="8.2439" ry="0" fill="#1d427c"/><path d="m59.209 27.96 3.2129-1.6065 145.04 81.011-3.2976 3.0342" fill="url(#y)"/><path d="m207.46 107.36v103.27l-3.2976 3.4979v-103.74z" fill="url(#z)"/><path d="m204.17 110.4 3.2976-3.0342v25.474l-3.2976 2.2922z" fill="url(#aa)"/></g><g id="n"><g id="aq"><rect transform="matrix(.86926 .49436 0 1 0 0)" x="114.16" y="28.636" width="12.25" height="10.648" ry="1.2677" fill="url(#c)"/><rect transform="matrix(.86926 .49436 0 1 0 0)" x="114.16" y="44.551" width="12.25" height="10.648" ry="1.2677" fill="url(#d)"/><rect transform="matrix(.86926 .49436 0 1 0 0)" x="114.16" y="76.382" width="12.25" height="10.648" ry="1.2677" fill="url(#b)"/><rect transform="matrix(.86926 .49436 0 1 0 0)" x="114.16" y="60.466" width="12.25" height="10.648" ry="1.2677" fill="url(#a)"/></g><g id="ap"><rect transform="matrix(.86926 .49436 0 1 0 0)" x="129.77" y="28.636" width="12.25" height="10.648" ry="1.2677" fill="url(#c)"/><rect transform="matrix(.86926 .49436 0 1 0 0)" x="129.77" y="44.551" width="12.25" height="10.648" ry="1.2677" fill="url(#d)"/><rect transform="matrix(.86926 .49436 0 1 0 0)" x="129.77" y="76.382" width="12.25" height="10.648" ry="1.2677" fill="url(#b)"/><rect transform="matrix(.86926 .49436 0 1 0 0)" x="129.77" y="60.466" width="12.25" height="10.648" ry="1.2677" fill="url(#a)"/></g><g id="ao"><rect transform="matrix(.86926 .49436 0 1 0 0)" x="145.37" y="28.636" width="12.25" height="10.648" ry="1.2677" fill="url(#c)"/><rect transform="matrix(.86926 .49436 0 1 0 0)" x="145.37" y="44.551" width="12.25" height="10.648" ry="1.2677" fill="url(#d)"/><rect transform="matrix(.86926 .49436 0 1 0 0)" x="145.37" y="76.382" width="12.25" height="10.648" ry="1.2677" fill="url(#b)"/><rect transform="matrix(.86926 .49436 0 1 0 0)" x="145.37" y="60.466" width="12.25" height="10.648" ry="1.2677" fill="url(#a)"/></g><g id="an"><rect transform="matrix(.86926 .49436 0 1 0 0)" x="160.97" y="28.636" width="12.25" height="10.648" ry="1.2677" fill="url(#c)"/><rect transform="matrix(.86926 .49436 0 1 0 0)" x="160.97" y="44.551" width="12.25" height="10.648" ry="1.2677" fill="url(#d)"/><rect transform="matrix(.86926 .49436 0 1 0 0)" x="160.97" y="76.382" width="12.25" height="10.648" ry="1.2677" fill="url(#b)"/><rect transform="matrix(.86926 .49436 0 1 0 0)" x="160.97" y="60.466" width="12.25" height="10.648" ry="1.2677" fill="url(#a)"/></g><g id="am"><rect transform="matrix(.86926 .49436 0 1 0 0)" x="176.58" y="28.636" width="12.25" height="10.648" ry="1.2677" fill="url(#c)"/><rect transform="matrix(.86926 .49436 0 1 0 0)" x="176.58" y="44.551" width="12.25" height="10.648" ry="1.2677" fill="#f3084b"/><rect transform="matrix(.86926 .49436 0 1 0 0)" x="176.58" y="76.382" width="12.25" height="10.648" ry="1.2677" fill="url(#b)"/><rect transform="matrix(.86926 .49436 0 1 0 0)" x="176.58" y="60.466" width="12.25" height="10.648" ry="1.2677" fill="url(#a)"/></g><g id="al"><rect transform="matrix(.86926 .49436 0 1 0 0)" x="192.18" y="28.636" width="12.25" height="10.648" ry="1.2677" fill="url(#c)"/><rect transform="matrix(.86926 .49436 0 1 0 0)" x="192.18" y="44.551" width="12.25" height="10.648" ry="1.2677" fill="url(#d)"/><rect transform="matrix(.86926 .49436 0 1 0 0)" x="192.18" y="76.382" width="12.25" height="10.648" ry="1.2677" fill="url(#b)"/><rect transform="matrix(.86926 .49436 0 1 0 0)" x="192.18" y="60.466" width="12.25" height="10.648" ry="1.2677" fill="url(#a)"/></g><g id="ar"><rect transform="matrix(.86926 .49436 0 1 0 0)" x="98.557" y="28.636" width="12.25" height="10.648" ry="1.2677" fill="url(#c)"/><rect transform="matrix(.86926 .49436 0 1 0 0)" x="98.557" y="44.551" width="12.25" height="10.648" ry="1.2677" fill="url(#d)"/><rect transform="matrix(.86926 .49436 0 1 0 0)" x="98.557" y="76.382" width="12.25" height="10.648" ry="1.2677" fill="url(#b)"/><rect transform="matrix(.86926 .49436 0 1 0 0)" x="98.557" y="60.466" width="12.25" height="10.648" ry="1.2677" fill="url(#a)"/></g></g><g id="m"><path d="m218.39 212.98c-0.0649 12.827-6.5413 16.285-15.458 18.497-16.179 4.0126-53.62-52.127-40.772-59.937 6.8584-4.1688 12.393-9.9667 28.074-1.7174 15.68 8.2493 28.235 27.566 28.156 43.157z" fill="url(#aj)"/><ellipse transform="matrix(.885 .46559 -.008349 .99997 0 0)" cx="209.74" cy="102.61" rx="32.081" ry="28.222" fill="url(#ah)"/><ellipse transform="matrix(.885 .46559 -.008349 .99997 0 0)" cx="209.74" cy="102.61" rx="29.13" ry="25.626" fill="url(#ai)"/><g transform="matrix(.58356 .30701 -.004843 .58004 119.39 53.383)" fill="#1d427c"><rect x="112.91" y="154.18" width="1.4343" height="11.704" rx="0" ry="0"/><rect x="112.91" y="220.28" width="1.4343" height="11.704" rx="0" ry="0"/><rect transform="rotate(90)" x="192.36" y="-152.53" width="1.4343" height="11.704" rx="0" ry="0"/><rect transform="rotate(90)" x="192.36" y="-86.433" width="1.4343" height="11.704" rx="0" ry="0"/><rect transform="rotate(45)" x="216.16" y="17.282" width="1.4343" height="11.704" rx="0" ry="0"/><rect transform="rotate(45)" x="216.16" y="83.376" width="1.4343" height="11.704" rx="0" ry="0"/><rect transform="rotate(135)" x="55.464" y="-255.78" width="1.4343" height="11.704" rx="0" ry="0"/><rect transform="rotate(135)" x="55.464" y="-189.68" width="1.4343" height="11.704" rx="0" ry="0"/></g><ellipse transform="matrix(.885 .46559 -.008349 .99997 0 0)" cx="209.74" cy="102.61" rx="4.3128" ry="3.794" fill="url(#x)"/><rect id="q" transform="matrix(.99681 -.079788 .4162 .90927 0 0)" x="90.027" y="209.26" width=".3458" height="19.013" fill="#1d427c" stroke="#243e66" stroke-linejoin="round" stroke-width=".20633"/><rect id="p" transform="matrix(.10997 .99393 -.93216 -.36204 0 0)" x="135.05" y="-182.63" width=".45325" height="12.434" fill="#1d427c" stroke="#243e66" stroke-linejoin="round" stroke-width=".27399"/></g><style type="text/css">
	.st0{fill:none;}
</style><animateTransform additive="sum" attributeName="transform" dur="2.5s" xlink:href="#k" keyTimes="0; 0.5; 1" repeatCount="indefinite" type="translate" values="0 0; 0 10; 0 0"/><animateTransform additive="sum" attributeName="transform" dur="0.3s" xlink:href="#k" keyTimes="0; 1" repeatCount="1" type="scale" values="1.1; 1"/><animateTransform additive="sum" attributeName="transform" dur="2.5s" xlink:href="#l" keyTimes="0; 0.5; 1" repeatCount="indefinite" type="translate" values="0 0; 0 10; 0 0"/><animateTransform additive="sum" attributeName="transform" dur="0.3s" xlink:href="#l" keyTimes="0; 1" repeatCount="1" type="scale" values="1.1; 1"/><animate attributeName="opacity" attributeType="CSS" dur="2.5s" xlink:href="#ak" keyTimes="0; 0.5; 1" repeatCount="indefinite" values="0.5; 1; 0.5"/><animateTransform additive="sum" attributeName="transform" dur="4s" xlink:href="#o" keyTimes="0; 0.5; 1" repeatCount="indefinite" type="translate" values="0 0; 0 15; 0 0"/><animateTransform additive="sum" attributeName="transform" dur="0.3s" xlink:href="#o" keyTimes="0; 1" repeatCount="1" type="scale" values="1.5; 1"/><animateTransform additive="sum" attributeName="transform" dur="4s" xlink:href="#n" keyTimes="0; 0.5; 1" repeatCount="indefinite" type="translate" values="0 0; 0 15; 0 0"/><animateTransform additive="sum" attributeName="transform" dur="0.3s" xlink:href="#n" keyTimes="0; 1" repeatCount="1" type="scale" values="1.5; 1"/><animate attributeName="opacity" attributeType="CSS" begin="0s" dur="1.4s" xlink:href="#ar" keyTimes="0; 0.2; 0.8; 1" repeatCount="indefinite" values="0; 1; 1; 0"/><animate attributeName="opacity" attributeType="CSS" begin="0.1s" dur="1.4s" xlink:href="#aq" keyTimes="0; 0.2; 0.8; 1" repeatCount="indefinite" values="0; 1; 1; 0"/><animate attributeName="opacity" attributeType="CSS" begin="0.2s" dur="1.4s" xlink:href="#ap" keyTimes="0; 0.2; 0.8; 1" repeatCount="indefinite" values="0; 1; 1; 0"/><animate attributeName="opacity" attributeType="CSS" begin="0.3s" dur="1.4s" xlink:href="#ao" keyTimes="0; 0.2; 0.8; 1" repeatCount="indefinite" values="0; 1; 1; 0"/><animate attributeName="opacity" attributeType="CSS" begin="0.4s" dur="1.4s" xlink:href="#an" keyTimes="0; 0.2; 0.8; 1" repeatCount="indefinite" values="0; 1; 1; 0"/><animate attributeName="opacity" attributeType="CSS" begin="0.5s" dur="1.4s" xlink:href="#am" keyTimes="0; 0.2; 0.8; 1" repeatCount="indefinite" values="0; 1; 1; 0"/><animate attributeName="opacity" attributeType="CSS" begin="0.6s" dur="1.4s" xlink:href="#al" keyTimes="0; 0.2; 0.8; 1" repeatCount="indefinite" values="0; 1; 1; 0"/><animateTransform additive="sum" attributeName="transform" dur="4s" xlink:href="#m" keyTimes="0; 0.5; 1" repeatCount="indefinite" type="translate" values="0 0; 0 10; 0 0"/><animateTransform additive="sum" attributeName="transform" dur="0.3s" xlink:href="#m" keyTimes="0; 1" repeatCount="1" type="scale" values="1.5; 1"/><animateTransform additive="sum" attributeName="transform" dur="10s" xlink:href="#q" keyTimes="0; 1" repeatCount="indefinite" type="rotate" values="0 90.37234736 228.275175; 360 90.37234736 228.275175"/><animateTransform additive="sum" attributeName="transform" dur="86s" xlink:href="#p" keyTimes="0; 1" repeatCount="indefinite" type="rotate" values="0 135.05415 -182.62878; 360 135.05415 -182.62878"/></svg>
