<?xml version="1.0" encoding="UTF-8"?>
<svg width="375.88" height="391.36" version="1.1" viewBox="0 0 375.8812 391.35663" xml:space="preserve" xmlns="http://www.w3.org/2000/svg" xmlns:cc="http://creativecommons.org/ns#" xmlns:dc="http://purl.org/dc/elements/1.1/" xmlns:rdf="http://www.w3.org/1999/02/22-rdf-syntax-ns#" xmlns:xlink="http://www.w3.org/1999/xlink"><metadata><rdf:RDF><cc:Work rdf:about=""><dc:format>image/svg+xml</dc:format><dc:type rdf:resource="http://purl.org/dc/dcmitype/StillImage"/><dc:title/></cc:Work></rdf:RDF></metadata><defs><linearGradient id="c"><stop stop-color="#e9f1ff" offset="0"/><stop stop-color="#afccff" offset="1"/></linearGradient><linearGradient id="b"><stop stop-color="#2e8af0" offset="0"/><stop stop-color="#2e8af0" stop-opacity="0" offset="1"/></linearGradient><radialGradient id="k" cx="261.28" cy="49.544" r="37.503" gradientTransform="matrix(1 0 0 1.8591 0 -42.561)" gradientUnits="userSpaceOnUse"><stop stop-color="#2e8af0" offset="0"/><stop stop-color="#006aa4" offset="1"/></radialGradient><filter id="aa" color-interpolation-filters="sRGB"><feGaussianBlur result="blur" stdDeviation="2 2"/></filter><filter id="z" color-interpolation-filters="sRGB"><feGaussianBlur result="blur" stdDeviation="1 1"/></filter><linearGradient id="o" x1="252.67" x2="346.57" y1="144.14" y2="199.34" gradientTransform="matrix(.231 -.83058 1.2006 .012124 31.7 401.52)" gradientUnits="userSpaceOnUse"><stop stop-color="#2ed2f0" offset="0"/><stop stop-color="#2ea6f0" stop-opacity="0" offset="1"/></linearGradient><filter id="y" color-interpolation-filters="sRGB"><feComposite in2="SourceGraphic" k1="10" k2="10" operator="arithmetic" result="composite1"/><feColorMatrix in="composite1" result="colormatrix1" type="saturate" values="1"/><feFlood flood-color="rgb(24,77,145)" flood-opacity=".8" result="flood1"/><feBlend in="flood1" in2="colormatrix1" mode="screen" result="blend1"/><feBlend in2="blend1" mode="screen" result="blend2"/><feColorMatrix in="blend2" result="colormatrix2" type="saturate" values="1"/><feComposite in="colormatrix2" in2="SourceGraphic" operator="in" result="fbSourceGraphic"/><feColorMatrix in="fbSourceGraphic" result="fbSourceGraphicAlpha" values="0 0 0 -1 0 0 0 0 -1 0 0 0 0 -1 0 0 0 0 1 0"/><feComposite in="fbSourceGraphic" in2="fbSourceGraphic" k1="0.3" k2="0.4" operator="arithmetic" result="composite1"/><feColorMatrix in="composite1" result="colormatrix1" type="saturate" values="1"/><feFlood flood-color="rgb(255,255,255)" flood-opacity=".8" result="flood1"/><feBlend in="flood1" in2="colormatrix1" mode="screen" result="blend1"/><feBlend in2="blend1" mode="screen" result="blend2"/><feColorMatrix in="blend2" result="colormatrix2" type="saturate" values="1"/><feComposite in="colormatrix2" in2="fbSourceGraphic" operator="in" result="composite2"/></filter><linearGradient id="n" x1="40.934" x2="86.21" y1="53.756" y2="53.756" gradientTransform="matrix(4.0685 0 0 4.0685 -162.2 -97.345)" gradientUnits="userSpaceOnUse" xlink:href="#b"/><linearGradient id="m" x1="40.934" x2="86.21" y1="53.756" y2="53.756" gradientTransform="matrix(.94521 0 0 .94521 -24.426 -36.128)" gradientUnits="userSpaceOnUse" xlink:href="#b"/><linearGradient id="l" x1="40.934" x2="86.21" y1="53.756" y2="53.756" gradientTransform="matrix(.67123 0 0 .61644 29.583 -63.731)" gradientUnits="userSpaceOnUse" xlink:href="#b"/><filter id="x" color-interpolation-filters="sRGB"><feMorphology in="SourceGraphic" radius="4" result="result0"/><feGaussianBlur in="result0" result="result91" stdDeviation="8"/><feComposite in="SourceGraphic" in2="result91" operator="in" result="fbSourceGraphic"/><feColorMatrix in="fbSourceGraphic" result="fbSourceGraphicAlpha" values="0 0 0 -1 0 0 0 0 -1 0 0 0 0 -1 0 0 0 0 1 0"/><feGaussianBlur in="fbSourceGraphic" result="result6" stdDeviation="3"/><feColorMatrix in="fbSourceGraphic" result="result7" values="1 0 0 0 0 0 1 0 0 0 0 0 1 0 0 0 0 0 1 0 "/><feComposite in="result6" in2="result7" operator="in"/></filter><radialGradient id="j" cx="254.94" cy="176.37" r="144.77" gradientTransform="translate(11.489)" gradientUnits="userSpaceOnUse"><stop stop-color="#021981" offset="0"/><stop stop-color="#6ebefd" stop-opacity=".83886" offset="1"/></radialGradient><radialGradient id="i" cx="254.94" cy="176.37" r="144.77" gradientTransform="matrix(.27814 0 0 .27814 320.49 195.23)" gradientUnits="userSpaceOnUse"><stop stop-color="#8399fd" offset="0"/><stop stop-color="#6ebefd" offset="1"/></radialGradient><radialGradient id="h" cx="254.94" cy="176.37" r="144.77" gradientTransform="matrix(.14105 0 0 .14105 98.67 211.96)" gradientUnits="userSpaceOnUse"><stop stop-color="#5674fc" offset="0"/><stop stop-color="#6ebefd" offset="1"/></radialGradient><radialGradient id="g" cx="254.94" cy="176.37" r="144.77" gradientTransform="matrix(.4645 0 0 .4645 35.749 20.641)" gradientUnits="userSpaceOnUse"><stop stop-color="#b0befe" offset="0"/><stop stop-color="#6ebefd" offset="1"/></radialGradient><linearGradient id="t" x1="256.55" x2="299.75" y1="-3.5037" y2="23.763" gradientUnits="userSpaceOnUse" xlink:href="#c"/><linearGradient id="s" x1="238.51" x2="395.91" y1="-16.02" y2="66.32" gradientUnits="userSpaceOnUse"><stop stop-color="#c5daff" offset="0"/><stop stop-color="#6996e5" offset="1"/></linearGradient><linearGradient id="r" x1="355.73" x2="513.66" y1="130.53" y2="130.53" gradientUnits="userSpaceOnUse" xlink:href="#c"/><linearGradient id="q" x1="343.22" x2="527.88" y1="131.28" y2="131.28" gradientUnits="userSpaceOnUse" xlink:href="#c"/><linearGradient id="p" x1="371.2" x2="568.08" y1="9.2643" y2="126.76" gradientUnits="userSpaceOnUse"><stop stop-color="#caddff" offset="0"/><stop stop-color="#3d62a4" offset="1"/></linearGradient></defs><style type="text/css">
	.st0{fill:none;}
</style><g transform="translate(-78.484 -29.069)" fill-rule="evenodd"><circle cx="391.4" cy="244.28" r="40.108" fill="url(#i)" opacity=".61" stroke="#fff" stroke-opacity=".24645" stroke-width=".31903"/><circle cx="134.63" cy="236.84" r="20.34" fill="url(#h)" opacity=".48916" stroke="#fff" stroke-opacity=".24645" stroke-width=".16178"/><circle cx="154.17" cy="102.56" r="66.98" fill="url(#g)" opacity=".48916" stroke="#fff" stroke-opacity=".24645" stroke-width=".53278"/><circle cx="266.42" cy="176.37" r="144.2" fill="url(#j)"/></g><g id="u" transform="translate(-78.484 -29.069)"><rect transform="matrix(.87544 .48333 -.875 .48413 0 0)" x="387.12" y="88.59" width="184.66" height="173.23" ry="10.98" fill="#dde4f1" fill-rule="evenodd" filter="url(#aa)"/></g><g transform="translate(3.3351e-7 44.549)" display="none" fill-rule="evenodd"><circle cx="96.444" cy="121.36" r="92.102" fill="url(#n)" opacity=".598"/><circle cx="35.662" cy="14.682" r="21.397" fill="url(#m)" opacity=".433"/><ellipse cx="72.255" cy="-30.594" rx="15.195" ry="13.955" fill="url(#l)" opacity=".325"/></g><g id="v" transform="translate(-78.484 -29.069)" fill-rule="evenodd"><path transform="matrix(.87544 .48333 -.875 .48413 0 0)" d="m351.58 64.511c0-6.083 4.8971-10.98 10.98-10.98m161.14-5.6927c14.025 13.585 12.537 10.59 12.537 16.673v151.27c0 6.083-4.8971 10.98-10.98 10.98h-162.7c-3.4385 0-8.5042-4.4249-16.575-13.32" fill="url(#p)" stroke="#a5c4fa" stroke-width="1.2465"/><rect transform="matrix(.87544 .48333 -.875 .48413 0 0)" x="343.22" y="44.665" width="184.66" height="173.23" ry="10.98" fill="url(#q)"/><rect transform="matrix(.87544 .48333 -.875 .48413 0 0)" x="356.26" y="56.948" width="156.87" height="147.16" ry="9.3277" fill="url(#r)" stroke="#fff" stroke-width="1.059"/><rect id="f" transform="matrix(.87154 .49033 -.84646 .53246 0 0)" x="364.69" y="159.98" width="110.72" height="15.653" ry="3.3541" fill="#6787c0" fill-opacity=".43602" fill-rule="evenodd" filter="url(#z)"/></g><g id="d" transform="translate(-78.484 -29.069)"><g id="w" transform="matrix(1.226 .60338 -.00080263 1.1786 -160.56 -222.37)"><rect x="371.82" y="67.417" width="66.053" height="66.053" ry="4.6516" fill="#6599f5" fill-opacity=".99608" fill-rule="evenodd" filter="url(#x)"/><g transform="matrix(.087543 0 0 .087543 382.3 78.224)" filter="url(#y)"><rect x="51.2" y="51.2" width="51.2" height="51.2"/><path d="m358.4 0v25.6h-25.6v25.6h25.6v102.4h25.6v25.6h-25.6v25.6h51.2v-51.2h76.8v25.6h25.6v-179.2zm128 128h-102.4v-102.4h102.4z"/><rect x="409.6" y="51.2" width="51.2" height="51.2"/><rect x="51.2" y="409.6" width="51.2" height="51.2"/><rect x="358.4" y="358.4" width="25.6" height="25.6"/><rect x="230.4" y="486.4" width="25.6" height="25.6"/><rect x="256" y="384" width="25.6" height="25.6"/><rect x="256" y="435.2" width="25.6" height="25.6"/><rect x="486.4" y="307.2" width="25.6" height="25.6"/><rect y="307.2" width="25.6" height="25.6"/><rect y="179.2" width="25.6" height="25.6"/><polygon points="281.6 51.2 230.4 51.2 230.4 76.8 307.2 76.8 307.2 51.2 307.2 25.6 281.6 25.6"/><path d="m486.4 204.8v25.6h-51.2v25.6h-76.8v-25.6h-25.6v25.6h-51.2v25.6h76.8v25.6h-76.8v-25.6h-25.6v25.6h-25.6v-25.6h-25.6v25.6h-25.6v25.6h51.2v25.6h25.6v-25.6h51.2v25.6h-25.6v25.6h25.6v51.2h25.6v25.6h25.6v-25.6h76.8v-51.2h25.6v-25.6h-25.6v-51.2h-51.2v-25.6h51.2v25.6h25.6v-25.6h25.6v-25.6h25.6v-51.2zm-76.8 128v76.8h-76.8v-76.8z"/><polygon points="307.2 153.6 307.2 179.2 281.6 179.2 281.6 204.8 281.6 230.4 307.2 230.4 307.2 204.8 332.8 204.8 332.8 179.2 358.4 179.2 358.4 153.6 332.8 153.6"/><rect x="281.6" y="486.4" width="51.2" height="25.6"/><rect x="204.8" y="25.6" width="25.6" height="25.6"/><rect x="409.6" y="204.8" width="25.6" height="25.6"/><rect x="435.2" y="179.2" width="25.6" height="25.6"/><rect x="102.4" y="307.2" width="25.6" height="25.6"/><path d="m153.6 486.4v-102.4h25.6v-51.2h-25.6v25.6h-76.8v-25.6h-51.2v25.6h-25.6v153.6h204.8v-25.6zm-25.6 0h-102.4v-102.4h102.4z"/><rect x="153.6" y="153.6" width="25.6" height="25.6"/><path d="m179.2 0h-179.2v153.6h25.6v25.6h25.6v-25.6h25.6v25.6h25.6v-25.6h51.2v-51.2h25.6v-25.6h-25.6v-51.2h51.2v-25.6zm-51.2 128h-102.4v-102.4h102.4z"/><rect x="307.2" y="76.8" width="25.6" height="25.6"/><rect x="256" width="25.6" height="25.6"/><path d="m307.2 153.6v-25.6h-25.6v-25.6h-25.6v25.6h-51.2v-25.6h-25.6v51.2h25.6v51.2h-76.8v-25.6h-25.6v25.6h-76.8v25.6h51.2v25.6h-76.8v25.6h76.8v25.6h25.6v-25.6h25.6v25.6h25.6v-25.6h51.2v-25.6h-25.6v-25.6h51.2v25.6h51.2v-25.6h-25.6v-25.6h-25.6v-51.2zm-153.6 102.4h-51.2v-25.6h51.2z"/><polygon points="179.2 460.8 230.4 460.8 230.4 435.2 256 435.2 256 409.6 230.4 409.6 230.4 384 230.4 358.4 204.8 358.4 204.8 384 179.2 384 179.2 409.6 204.8 409.6 204.8 435.2 179.2 435.2"/><polygon points="486.4 486.4 486.4 512 512 512 512 486.4 512 460.8 460.8 460.8 460.8 435.2 435.2 435.2 435.2 460.8 358.4 460.8 358.4 486.4 409.6 486.4 409.6 512 435.2 512 435.2 486.4"/><polygon points="486.4 384 460.8 384 460.8 409.6 512 409.6 512 384 512 358.4 486.4 358.4"/></g></g></g><g transform="translate(-78.484 -29.069)"><path id="a" d="m218.31 204.19 80.106-120.77 100.65 52.933z" fill="url(#o)"/></g><g id="e" transform="translate(-78.484 -29.069)"><path transform="matrix(.86294 .50531 0 1 0 0)" d="m221.33-33.308c3.953-5.3119 8.7926-10.658 12.572-10.658h71.243c3.7796 0 6.8224 3.0428 6.8224 6.8224v160.32c0 3.7796-3.1326 6.9453-9.3379 12.978" fill="url(#s)" fill-rule="evenodd"/><rect transform="matrix(.86294 .50531 0 1 0 0)" x="219.89" y="-35.993" width="84.888" height="173.97" ry="6.8224" fill="url(#t)" fill-rule="evenodd"/><rect transform="matrix(.86347 .5044 0 1 0 0)" x="223.78" y="-20.177" width="75.006" height="139.44" ry="2.6562" fill="url(#k)" fill-rule="evenodd"/><rect transform="matrix(.86096 .50868 -.33413 .94253 0 0)" x="237.68" y="-27.993" width="29.274" height="4.0133" ry="2.0067" fill="#a4c3fa" fill-opacity=".99526" fill-rule="evenodd"/><g transform="matrix(.51714 .27126 0 .51714 178.45 64.977)"><circle cx="84.037" cy="179.95" r="34.648" fill="#036ca9"/><path d="m61.61 193.43h11.15l0.37798-17.576c0.03792-1.7633 4.8315-1.1425 4.8192 0l-0.18899 17.481 11.623 0.0945v-17.198c0-1.9409 4.5357-1.2166 4.5357 0v17.765h10.961s0.28478-17.702 0.0945-22.112c-0.23106-5.3551-8.0652-12.696-16.536-3.8742-4.4724-5.3152-10.649-6.1654-16.631 0.0945v-2.8348h-10.016z" fill="#fff" fill-opacity=".99052"/><path d="m97.724 173.61v3.1689h2.3117l0.0334-3.063h2.8129l-0.0334-1.7944-2.8243-0.0334 0.0334-3.0677-2.2841-0.0334-0.06682 3.0238-3.0238-0.0334v1.844z" fill="#036ca9"/></g></g><animateTransform additive="sum" attributeName="transform" dur="2.5s" xlink:href="#e" keyTimes="0; 0.5; 1" repeatCount="indefinite" type="translate" values="0 0; 0 10; 0 0"/><animateTransform additive="sum" attributeName="transform" dur="0.3s" from="1.1" xlink:href="#e" repeatCount="1" to="1" type="scale"/><animateTransform additive="sum" attributeName="transform" dur="3s" xlink:href="#v" keyTimes="0; 0.5; 1" repeatCount="indefinite" type="translate" values="0 0; 0 5; 0 0"/><animate attributeName="opacity" attributeType="CSS" dur="3s" xlink:href="#u" keyTimes="0; 0.5; 1" repeatCount="indefinite" values="0.5; 1; 0.5"/><animate attributeName="opacity" attributeType="CSS" calcMode="spline" dur="2.5s" xlink:href="#d" keySplines="0 0 1 1; 0 0 1 1;" keyTimes="0; 0.5; 1" repeatCount="indefinite" values="0.5; 1; 0.5"/><animateTransform additive="sum" attributeName="transform" calcMode="spline" dur="4s" xlink:href="#d" keySplines="0 0 0 0; 0 0 0 0;" keyTimes="0; 0.5; 1" repeatCount="indefinite" type="translate" values="0 0; 0 5; 0 0"/><animateTransform additive="sum" attributeName="transform" dur="20s" xlink:href="#w" keyTimes="0; 1" repeatCount="indefinite" type="rotate" values="0 404.846321 100.44318; 360 404.846321 100.44318"/><animateTransform additive="sum" attributeName="transform" dur="0.3s" from="1.2" xlink:href="#d" repeatCount="1" to="1" type="scale"/><animateTransform additive="sum" attributeName="transform" dur="0.3s" from="1.2" xlink:href="#a" repeatCount="1" to="1" type="scale"/><animate attributeName="opacity" attributeType="CSS" dur="2.5s" xlink:href="#a" keyTimes="0; 0.5; 1" repeatCount="indefinite" values="0.5; 0.8; 0.5"/><animateTransform additive="sum" attributeName="transform" calcMode="spline" dur="2.5s" xlink:href="#a" keySplines="0.4 0 0.2 1; 0.4 0 0.2 1" keyTimes="0; 0.5; 1" repeatCount="indefinite" type="translate" values="0 0; 0 20; 0 0"/><animate attributeName="opacity" attributeType="CSS" calcMode="spline" dur="2.5s" xlink:href="#f" keySplines="0 0 1 1; 0 0 1 1;" keyTimes="0; 0.5; 1" repeatCount="indefinite" values="0.3; 0.7; 0.3"/></svg>
