<?xml version="1.0" encoding="UTF-8"?>
<svg width="375.14" height="353.38" enable-background="new" version="1.1" viewBox="0 0 375.14228 353.38236" xml:space="preserve" xmlns="http://www.w3.org/2000/svg" xmlns:cc="http://creativecommons.org/ns#" xmlns:dc="http://purl.org/dc/elements/1.1/" xmlns:rdf="http://www.w3.org/1999/02/22-rdf-syntax-ns#" xmlns:xlink="http://www.w3.org/1999/xlink"><metadata><rdf:RDF><cc:Work rdf:about=""><dc:format>image/svg+xml</dc:format><dc:type rdf:resource="http://purl.org/dc/dcmitype/StillImage"/><dc:title/></cc:Work></rdf:RDF></metadata><defs><linearGradient id="c"><stop stop-color="#e2eeff" offset="0"/><stop stop-color="#e2eeff" stop-opacity="0" offset="1"/></linearGradient><linearGradient id="d"><stop stop-color="#e2eeff" stop-opacity=".70142" offset="0"/><stop stop-color="#fff" stop-opacity="0" offset="1"/></linearGradient><pattern id="au" xlink:href="#bh" patternTransform="matrix(1.0926 .11182 -.11842 1.1571 0 0)"/><pattern id="bh" width="30.066020" height="5.1805778" patternUnits="userSpaceOnUse"><path d="m7.597 0.061c-2.518-0.248-4.941 0.241-7.607 1.727v1.273c2.783-1.63 5.183-2.009 7.482-1.781 2.298 0.228 4.497 1.081 6.781 1.938 4.567 1.713 9.551 3.458 15.813-0.157l-4e-3 -1.273c-6.44 3.709-10.816 1.982-15.371 0.273-2.278-0.854-4.576-1.75-7.094-2z" fill="#fff"/></pattern><linearGradient id="b"><stop stop-color="#002a67" offset="0"/><stop stop-color="#00183c" offset="1"/></linearGradient><linearGradient id="i"><stop stop-color="#8399fd" offset="0"/><stop stop-color="#6ebefd" offset="1"/></linearGradient><linearGradient id="a"><stop stop-color="#b0befe" offset="0"/><stop stop-color="#6ebefd" offset="1"/></linearGradient><radialGradient id="q" cx="254.94" cy="176.37" r="144.77" gradientTransform="translate(59.028)" gradientUnits="userSpaceOnUse"><stop stop-color="#021981" offset="0"/><stop stop-color="#6ebefd" stop-opacity=".83886" offset="1"/></radialGradient><radialGradient id="p" cx="254.94" cy="176.37" r="144.77" gradientTransform="matrix(.27814 0 0 .27814 127.51 57.848)" gradientUnits="userSpaceOnUse" xlink:href="#i"/><radialGradient id="o" cx="254.94" cy="176.37" r="144.77" gradientTransform="matrix(.14105 0 0 .14105 179.78 258.54)" gradientUnits="userSpaceOnUse"><stop stop-color="#5674fc" offset="0"/><stop stop-color="#6ebefd" offset="1"/></radialGradient><radialGradient id="n" cx="254.94" cy="176.37" r="144.77" gradientTransform="matrix(.4645 0 0 .4645 311.63 96.987)" gradientUnits="userSpaceOnUse" xlink:href="#a"/><radialGradient id="at" cx="216.21" cy="34.041" r="10.921" gradientTransform="matrix(1 0 0 1.4308 0 -14.666)" gradientUnits="userSpaceOnUse" xlink:href="#a"/><radialGradient id="as" cx="207.03" cy="38.679" r="1.7261" gradientTransform="matrix(1 0 0 6.0828 .15389 -196.64)" gradientUnits="userSpaceOnUse" xlink:href="#a"/><radialGradient id="ar" cx="223.8" cy="72.201" r="14.896" gradientTransform="matrix(1 0 0 1.6221 0 -44.915)" gradientUnits="userSpaceOnUse" xlink:href="#a"/><radialGradient id="aq" cx="225.56" cy="82.684" r="16.965" gradientTransform="matrix(1 0 0 1.3279 0 -27.114)" gradientUnits="userSpaceOnUse" xlink:href="#a"/><radialGradient id="ap" cx="204.71" cy="74.966" r="3.3736" gradientTransform="matrix(1 0 0 5.282 0 -321.01)" gradientUnits="userSpaceOnUse" xlink:href="#a"/><linearGradient id="k" x1="204.01" x2="212.33" y1="109.86" y2="192.7" gradientUnits="userSpaceOnUse"><stop stop-color="#002a67" offset="0"/><stop stop-color="#00183c" stop-opacity="0" offset="1"/></linearGradient><radialGradient id="ao" cx="200.85" cy="70.635" r="6.5" gradientTransform="matrix(1 0 0 3.4396 0 -172.32)" gradientUnits="userSpaceOnUse" xlink:href="#a"/><radialGradient id="an" cx="216.28" cy="50.241" r="7.738" gradientTransform="matrix(1 0 0 .83863 0 8.1073)" gradientUnits="userSpaceOnUse" xlink:href="#a"/><radialGradient id="am" cx="223.79" cy="122.43" r="13.381" gradientTransform="matrix(1 0 0 1.4083 0 -49.984)" gradientUnits="userSpaceOnUse" xlink:href="#a"/><radialGradient id="al" cx="196.26" cy="121.19" r="4.1876" gradientTransform="matrix(1 0 0 3.312 0 -280.2)" gradientUnits="userSpaceOnUse" xlink:href="#a"/><radialGradient id="ak" cx="191.73" cy="84.549" r="5.6375" gradientTransform="matrix(1 0 0 1.1865 0 -15.766)" gradientUnits="userSpaceOnUse" xlink:href="#a"/><radialGradient id="aj" cx="204.5" cy="70.075" r="4.0662" gradientTransform="matrix(1 0 0 5.0794 0 -285.86)" gradientUnits="userSpaceOnUse" xlink:href="#a"/><radialGradient id="ai" cx="202.56" cy="57.7" r="1.3359" gradientTransform="matrix(1 0 0 2.1599 0 -66.926)" gradientUnits="userSpaceOnUse" xlink:href="#a"/><radialGradient id="ah" cx="200.5" cy="64.702" r=".69423" gradientTransform="matrix(1 0 0 3.5666 0 -166.06)" gradientUnits="userSpaceOnUse" xlink:href="#a"/><radialGradient id="ag" cx="212.91" cy="85.53" r="1.5667" gradientTransform="matrix(1 0 0 3.3184 0 -198.3)" gradientUnits="userSpaceOnUse" xlink:href="#a"/><radialGradient id="af" cx="220.67" cy="58.382" r="3.6117" gradientTransform="matrix(1 0 0 2.5709 0 -91.71)" gradientUnits="userSpaceOnUse" xlink:href="#a"/><radialGradient id="ae" cx="221.19" cy="65.474" r="1.6312" gradientTransform="matrix(1 0 0 1.1843 0 -12.069)" gradientUnits="userSpaceOnUse" xlink:href="#a"/><radialGradient id="ad" cx="185.14" cy="95.281" r="22.762" gradientTransform="matrix(1 0 0 .68845 0 29.685)" gradientUnits="userSpaceOnUse" xlink:href="#b"/><radialGradient id="ac" cx="207.17" cy="76.666" r="4.7717" gradientTransform="matrix(1 0 0 4.0669 0 -235.12)" gradientUnits="userSpaceOnUse" xlink:href="#b"/><radialGradient id="ab" cx="217.51" cy="56.353" r="6.5167" gradientTransform="matrix(1 0 0 1.2094 0 -11.8)" gradientUnits="userSpaceOnUse" xlink:href="#a"/><radialGradient id="aa" cx="208.59" cy="57.497" r="2.127" gradientTransform="matrix(1 0 0 2.2307 0 -70.762)" gradientUnits="userSpaceOnUse" xlink:href="#a"/><radialGradient id="z" cx="183.62" cy="80.911" r="6.9575" gradientTransform="matrix(1 0 0 .82559 0 14.112)" gradientUnits="userSpaceOnUse" xlink:href="#a"/><radialGradient id="y" cx="199.52" cy="98.447" r="9.2453" gradientTransform="matrix(1 0 0 .59549 0 39.823)" gradientUnits="userSpaceOnUse" xlink:href="#a"/><radialGradient id="x" cx="199.17" cy="95.358" r="3.0168" gradientTransform="matrix(1 0 0 .96827 0 3.0253)" gradientUnits="userSpaceOnUse" xlink:href="#a"/><radialGradient id="w" cx="216.2" cy="28.724" r="10.901" gradientTransform="matrix(1 0 0 .9456 0 1.8831)" gradientUnits="userSpaceOnUse" xlink:href="#b"/><linearGradient id="j" x1="162.37" x2="242.53" y1="112.08" y2="112.08" gradientUnits="userSpaceOnUse" xlink:href="#b"/><filter id="be" color-interpolation-filters="sRGB"><feGaussianBlur result="blur" stdDeviation="1.5 1.5"/></filter><radialGradient id="v" cx="202.45" cy="112.08" r="40.076" gradientTransform="matrix(1 0 0 2.3371 0 -149.86)" gradientUnits="userSpaceOnUse" xlink:href="#i"/><filter id="bd" color-interpolation-filters="sRGB"><feGaussianBlur result="blur" stdDeviation="1.5 1.5"/></filter><radialGradient id="u" cx="273.47" cy="218.36" r="20.643" gradientTransform="matrix(1.2635 0 0 .48283 -52.813 117.63)" gradientUnits="userSpaceOnUse"><stop stop-color="#4d9af2" offset="0"/><stop stop-color="#2e8af0" stop-opacity="0" offset="1"/></radialGradient><radialGradient id="t" cx="263.86" cy="75.331" r="1.0501" gradientTransform="matrix(1 0 0 23.731 -129.63 -1599.4)" gradientUnits="userSpaceOnUse" xlink:href="#d"/><radialGradient id="s" cx="263.86" cy="75.331" r="1.0501" gradientTransform="matrix(1 0 0 23.731 -62.618 -1728.8)" gradientUnits="userSpaceOnUse" xlink:href="#d"/><radialGradient id="r" cx="263.86" cy="75.331" r="1.0501" gradientTransform="matrix(1 0 0 23.731 60.391 -1634.3)" gradientUnits="userSpaceOnUse" xlink:href="#d"/><filter id="bc" color-interpolation-filters="sRGB"><feColorMatrix result="fbSourceGraphic" values="1.266 0 0 0.385673 -0.133 0 1.266 0 0.385673 -0.133 0 0 1.266 0.385673 -0.133 0 0 0 1 0"/><feColorMatrix in="fbSourceGraphic" result="fbSourceGraphicAlpha" values="0 0 0 -1 0 0 0 0 -1 0 0 0 0 -1 0 0 0 0 1 0"/><feFlood flood-color="rgb(230,239,252)" in="fbSourceGraphic" result="flood"/><feComposite in="flood" in2="fbSourceGraphic" operator="in" result="composite1"/><feGaussianBlur in="composite1" result="blur" stdDeviation="2.4"/><feOffset dx="4.57967e-15" dy="4.57967e-15" result="offset"/><feComposite in="fbSourceGraphic" in2="offset" result="composite2"/></filter><filter id="bb" color-interpolation-filters="sRGB"><feGaussianBlur result="blur" stdDeviation="1.5 1.5"/></filter><linearGradient id="ay" x1="186.41" x2="208.47" y1="199.97" y2="148.85" gradientUnits="userSpaceOnUse" xlink:href="#c"/><linearGradient id="ax" x1="186.41" x2="205.98" y1="199.97" y2="168.04" gradientUnits="userSpaceOnUse" xlink:href="#c"/><linearGradient id="aw" x1="186.41" x2="199.24" y1="199.97" y2="176.24" gradientUnits="userSpaceOnUse" xlink:href="#c"/></defs><style type="text/css">
	.st0{fill:none;}
</style><g transform="translate(-138.15 -12.427)" fill-rule="evenodd"><circle cx="198.42" cy="106.9" r="40.108" fill="url(#p)" opacity=".61" stroke="#fff" stroke-opacity=".24645" stroke-width=".31903"/><circle cx="215.73" cy="283.41" r="20.34" fill="url(#o)" opacity=".48916" stroke="#fff" stroke-opacity=".24645" stroke-width=".16178"/><circle cx="430.05" cy="178.91" r="66.98" fill="url(#n)" opacity=".48916" stroke="#fff" stroke-opacity=".24645" stroke-width=".53278"/><circle cx="313.96" cy="176.37" r="144.2" fill="url(#q)"/></g><g id="ba" transform="translate(-27.539 19.743)"><g transform="matrix(1.3504 0 0 1.3504 -141.41 -31.006)" enable-background="new"><g transform="translate(0 13.104)" opacity=".372"><ellipse cx="292.71" cy="238.63" rx="39.883" ry="15.241" fill="#586886" fill-opacity=".59242" fill-rule="evenodd" filter="url(#bb)" opacity="1"/></g></g></g><g id="az" transform="translate(-138.15 -12.427)"><g transform="matrix(1.3504 0 0 1.3504 -30.794 -9.8521)"><g transform="translate(0 13.104)" fill-rule="evenodd"><path d="m332.59 228.24c-1e-5 8.4173-17.856 15.241-39.883 15.241s-39.883-6.8236-39.883-15.241 0.23025-5.4711 41.393-5.4711c38.142 0 38.372-2.9462 38.372 5.4711z" fill="#a5c4fa"/><ellipse cx="292.71" cy="225.71" rx="39.883" ry="15.241" fill="#cfe0ff"/><ellipse cx="292.71" cy="223.06" rx="26.081" ry="9.9668" fill="url(#u)"/></g></g></g><g transform="translate(-59.669 16.642)"><g transform="matrix(-1.5667 0 0 1.5667 624.55 -43.68)"><ellipse id="av" cx="214.43" cy="171.29" rx="34.748" ry="12.388" fill="none" stroke="url(#ay)" stroke-linejoin="round" stroke-width="1.2"/><ellipse id="bg" cx="214.43" cy="186.6" rx="25.048" ry="8.93" fill="none" stroke="url(#ax)" stroke-linejoin="round" stroke-width=".86501"/><ellipse id="bf" cx="214.43" cy="196.57" rx="14" ry="4.9913" fill="none" stroke="url(#aw)" stroke-linejoin="round" stroke-width=".48348"/></g></g><g id="m" transform="translate(-59.669 16.642)"><g transform="matrix(-1.4426 0 0 1.4426 593.14 71.206)"><g transform="matrix(.76087 .27788 0 .76087 58.942 -102.1)"><rect transform="translate(0 -48.949)" x="266.7" y="45.286" width="92.661" height="92.661" ry="15.126" fill="#335283" fill-opacity=".74882" fill-rule="evenodd"/><g transform="matrix(.30138 0 0 .30138 254.35 10.768)" fill="#d7e0f4"><g fill="#d7e0f4"><g fill="#d7e0f4"><path d="m104.26 117.96c-0.304 3.58 2.126 22.529 3.38 29.959 0.597 3.52 2.234 9.255 1.645 12.3-0.841 4.244-1.084 9.736-0.621 12.934 0.292 1.942 1.211 10.899-0.104 14.175-0.688 1.718-1.949 10.522-1.949 10.522-3.285 8.294-1.431 7.886-1.431 7.886 1.017 1.248 2.759 0.098 2.759 0.098 1.327 0.846 2.246-0.201 2.246-0.201 1.139 0.943 2.467-0.116 2.467-0.116 1.431 0.743 2.758-0.627 2.758-0.627 0.822 0.414 1.023-0.109 1.023-0.109 2.466-0.158-1.376-8.05-1.376-8.05-0.92-7.088 0.913-11.033 0.913-11.033 6.004-17.805 6.309-22.53 3.909-29.24-0.676-1.937-0.847-2.704-0.536-3.545 0.719-1.941 0.195-9.748 1.072-12.848 1.692-5.979 3.361-21.142 4.231-28.217 1.169-9.53-4.141-22.308-4.141-22.308-1.163-5.2 0.542-23.727 0.542-23.727 2.381 3.705 2.29 10.245 2.29 10.245-0.378 6.859 5.541 17.342 5.541 17.342 2.844 4.332 3.921 8.442 3.921 8.747 0 1.248-0.273 4.269-0.273 4.269l0.109 2.631c0.049 0.67 0.426 2.977 0.365 4.092-0.444 6.862 0.646 5.571 0.646 5.571 0.92 0 1.931-5.522 1.931-5.522 0 1.424-0.348 5.687 0.42 7.295 0.919 1.918 1.595-0.329 1.607-0.78 0.243-8.737 0.768-6.448 0.768-6.448 0.511 7.088 1.139 8.689 2.265 8.135 0.853-0.407 0.073-8.506 0.073-8.506 1.461 4.811 2.569 5.577 2.569 5.577 2.411 1.693 0.92-2.983 0.585-3.909-1.784-4.92-1.839-6.625-1.839-6.625 2.229 4.421 3.909 4.257 3.909 4.257 2.174-0.694-1.9-6.954-4.287-9.953-1.218-1.528-2.789-3.574-3.245-4.789-0.743-2.058-1.304-8.674-1.304-8.674-0.225-7.807-2.155-11.198-2.155-11.198-3.3-5.282-3.921-15.135-3.921-15.135l-0.146-16.635c-1.157-11.347-9.518-11.429-9.518-11.429-8.451-1.258-9.627-3.988-9.627-3.988-1.79-2.576-0.767-7.514-0.767-7.514 1.485-1.208 2.058-4.415 2.058-4.415 2.466-1.891 2.345-4.658 1.206-4.628-0.914 0.024-0.707-0.733-0.707-0.733 1.542-12.456-9.516-13.092-9.516-13.092h-1.688s-11.063 0.636-9.523 13.089c0 0 0.207 0.758-0.715 0.733-1.136-0.03-1.242 2.737 1.215 4.628 0 0 0.572 3.206 2.058 4.415 0 0 1.023 4.938-0.767 7.514 0 0-1.172 2.73-9.627 3.988 0 0-8.375 0.082-9.514 11.429l-0.158 16.635s-0.609 9.853-3.922 15.135c0 0-1.921 3.392-2.143 11.198 0 0-0.563 6.616-1.303 8.674-0.451 1.209-2.021 3.255-3.249 4.789-2.408 2.993-6.455 9.24-4.29 9.953 0 0 1.689 0.164 3.909-4.257 0 0-0.046 1.693-1.827 6.625-0.35 0.914-1.839 5.59 0.573 3.909 0 0 1.117-0.767 2.569-5.577 0 0-0.779 8.099 0.088 8.506 1.133 0.555 1.751-1.047 2.262-8.135 0 0 0.524-2.289 0.767 6.448 0.012 0.451 0.673 2.698 1.596 0.78 0.779-1.608 0.429-5.864 0.429-7.295 0 0 0.999 5.522 1.933 5.522 0 0 1.099 1.291 0.648-5.571-0.073-1.121 0.32-3.422 0.369-4.092l0.106-2.631s-0.274-3.014-0.274-4.269c0-0.311 1.078-4.415 3.921-8.747 0 0 5.913-10.488 5.532-17.342 0 0-0.082-6.54 2.299-10.245 0 0 1.69 18.526 0.545 23.727 0 0-5.319 12.778-4.146 22.308 0.864 7.094 2.53 22.237 4.226 28.217 0.886 3.094 0.362 10.899 1.072 12.848 0.32 0.847 0.152 1.627-0.536 3.545-2.387 6.71-2.083 11.436 3.921 29.24 0 0 1.848 3.945 0.914 11.033 0 0-3.836 7.892-1.379 8.05 0 0 0.192 0.523 1.023 0.109 0 0 1.327 1.37 2.761 0.627 0 0 1.328 1.06 2.463 0.116 0 0 0.91 1.047 2.237 0.201 0 0 1.742 1.175 2.777-0.098 0 0 1.839 0.408-1.435-7.886 0 0-1.254-8.793-1.945-10.522-1.318-3.275-0.387-12.251-0.106-14.175 0.453-3.216 0.21-8.695-0.618-12.934-0.606-3.038 1.035-8.774 1.641-12.3 1.245-7.423 3.685-26.373 3.38-29.959l1.008 0.354c0.722 2e-3 1.178-0.351 1.178-0.351z" fill="#d7e0f4"/></g></g></g><g transform="translate(0 -48.949)" fill-rule="evenodd"><circle cx="308.6" cy="64.121" r="6.446" fill="#1a5ffc" fill-opacity=".83412"/><g fill="#aac0ee" fill-opacity=".95686"><rect x="318.07" y="58.581" width="34.244" height="2.2158" ry="1.1079"/><rect x="318.07" y="63.013" width="34.244" height="2.2158" ry="1.1079"/><rect x="318.07" y="67.445" width="22.762" height="2.2158" ry="1.1079"/></g></g><g transform="translate(0 -24.374)" fill-rule="evenodd"><circle cx="308.6" cy="64.121" r="6.446" fill="#ed1c81" fill-opacity=".95686"/><g fill="#d7e0f4"><rect x="318.07" y="58.581" width="34.244" height="2.2158" ry="1.1079"/><rect x="318.07" y="63.013" width="34.244" height="2.2158" ry="1.1079"/><rect x="318.07" y="67.445" width="22.762" height="2.2158" ry="1.1079"/></g></g><circle cx="308.6" cy="64.121" r="6.446" fill="#1de8a0" fill-opacity=".98824" fill-rule="evenodd"/><g fill="#aac0ee" fill-opacity=".95686" fill-rule="evenodd"><rect x="318.07" y="58.581" width="34.244" height="2.2158" ry="1.1079"/><rect x="318.07" y="63.013" width="34.244" height="2.2158" ry="1.1079"/><rect x="318.07" y="67.445" width="22.762" height="2.2158" ry="1.1079"/></g></g></g></g><g id="l" transform="translate(-59.669 16.642)"><g transform="matrix(-.80747 .29429 0 .80747 460.13 -52.725)" enable-background="new"><rect x="270.73" y="131.5" width="65.266" height="65.266" ry="11.18" fill="#335183" fill-opacity=".74902" fill-rule="evenodd"/><g transform="matrix(.075913 0 0 .075913 284.01 144.78)" fill="#dde6f8" fill-opacity=".95686"><g fill="#dde6f8" fill-opacity=".95686"><g fill="#dde6f8" fill-opacity=".95686"><path d="M 255,489.6 219.3,453.9 C 86.7,336.6 0,257.55 0,160.65 0,81.6 61.2,20.4 140.25,20.4 183.6,20.4 226.95,40.8 255,73.95 283.05,40.8 326.4,20.4 369.75,20.4 448.8,20.4 510,81.6 510,160.65 510,257.55 423.3,336.6 290.7,453.9 Z" fill="#dde6f8" fill-opacity=".95686"/></g></g></g></g></g><g transform="translate(-59.669 16.642)" display="none" opacity=".372"><g transform="translate(1.0474 -.65441)" display="inline" fill="url(#v)" fill-rule="evenodd" filter="url(#bd)"><path d="m210.81 49.617c-0.52626-0.04663-1.2061-0.14344-1.5108-0.21514l-0.55396-0.13036 0.0296-0.39955c0.0163-0.21975 0.0389-1.376 0.0504-2.5695 0.0246-2.5669 1e-3 -2.6448-0.81577-2.7532-0.32941-0.0437-0.59169-0.15324-0.77608-0.32413-0.26697-0.24741-0.27621-0.28808-0.22278-0.98024 0.0682-0.88381 0.31241-1.4698 1.0526-2.5262 0.63752-0.90981 0.66147-1.0585 0.32718-2.0301-0.25436-0.73932-0.75233-1.6264-1.3952-2.4854-0.68278-0.91232-0.71592-0.98536-0.78558-1.7312-0.0506-0.54208 0.18581-2.3897 0.32759-2.56 0.0162-0.01944 0.18282 0.08165 0.3703 0.22464 0.5235 0.39929 1.0741 0.54897 2.475 0.67283 1.5543 0.13743 2.7735 0.03595 5.0708-0.4221 0.9924-0.19787 1.6832-0.28844 1.8606-0.24392 0.72476 0.1819 1.5 1.5428 2.7568 4.8398 0.81816 2.1463 0.98512 2.5096 1.3558 2.95 0.22525 0.2677 0.29746 0.29686 0.5533 0.22348 0.37204-0.1067 0.89975-0.47304 2.1685-1.5054 1.1149-0.90715 1.7987-1.2882 2.5331-1.4114l0.48844-0.08196-0.46819-0.01185c-0.6473-0.01638-1.3688 0.38323-2.8387 1.5723-1.181 0.95533-1.7749 1.3367-2.0816 1.3367-0.27148 0-0.76686-0.97488-1.6122-3.1726-0.9798-2.5474-1.4931-3.6149-2.0334-4.2287-0.70639-0.8025-0.70635-0.8025-2.7132-0.39397-2.009 0.40897-4.1434 0.54374-5.6552 0.3571-1.873-0.23122-2.431-0.76873-3.1937-3.0766-0.29971-0.90685-0.32353-1.0678-0.26386-1.7834 0.15072-1.8073 0.9387-3.6358 2.1049-4.8846 1.4275-1.5285 3.1608-2.4604 5.8951-3.1692 1.2312-0.31917 1.8776-0.3575 3.244-0.19233 5.5243 0.66778 8.9758 2.992 10.322 6.951 0.28898 0.84965 0.31331 1.5514 0.14654 4.2263-0.43365 6.9555-1.5326 10.826-3.9531 13.925-1.3127 1.6802-3.9742 3.9557-5.6119 4.7982-1.9123 0.98368-4.2891 1.4148-6.6474 1.2059z" opacity="1"/><path d="m208.6 105.17c0.0103-0.7479 0.30717-8.6405 0.32566-8.6571 0.0468-0.0421 4.2186-0.3458 6.8493-0.49862 6.7226-0.39053 7.9109-0.46504 9.7446-0.61099 3.7403-0.29773 4.752-0.58315 5.0189-1.4159 0.26685-0.83284 0.32581-2.7174 0.19496-6.2316-0.0701-1.8834-0.12678-5.9626-0.12589-9.0647 2e-3 -5.855 0.0605-6.9711 0.51209-9.7194 0.67846-4.1288 2.0295-6.884 3.9791-8.1147 0.80382-0.50743 1.453-0.67376 2.6793-0.68649l1.1289-0.01172 0.56504 0.55395c0.72714 0.71287 1.1506 1.4758 1.6503 2.9732 1.737 5.2051 1.8831 16.065 0.35032 26.034-1.0779 7.01-2.7728 11.672-4.5783 12.593-2.0663 1.0542-10.016 2.0176-21.95 2.6601-4.365 0.235-6.3454 0.29649-6.344 0.19697z" opacity="1"/><path d="m208.9 96.137c3e-3 -0.12464 0.35608-7.3236 0.78539-15.998l0.78057-15.771 0.7432-0.8728c0.40875-0.48004 0.76917-0.87249 0.80093-0.8721 0.0317 4.03e-4 0.21302 0.3879 0.40281 0.86113s0.38218 0.88336 0.42753 0.91138c0.0993 0.06137 2.791-1.9726 4.5836-3.4636 0.71018-0.5907 1.9371-1.7176 2.7265-2.5042s1.4352-1.4118 1.4352-1.3892c0 0.10194-1.059 2.6799-1.717 4.1798-1.3106 2.9875-3.5734 7.5794-4.2157 8.5551-0.90763 1.3787-2.207 4.0527-2.3284 4.7914-0.2088 1.2712-0.29423 3.1424-0.19506 4.2724l0.0988 1.1257-0.44949 1.396c-0.89631 2.7835-1.2196 4.843-1.715 10.925-0.13987 1.7173-0.27603 3.2469-0.30258 3.3993-0.0266 0.15234-4e-3 0.27698 0.0499 0.27698 0.054 0 0.10015-0.12464 0.10254-0.27698 2e-3 -0.15234 0.0869-1.1608 0.18776-2.241 0.15829-1.6949 0.23491-2.1227 0.55918-3.1223 0.61219-1.8871 1.3341-3.6406 2.206-5.3586 0.75736-1.4922 0.84641-1.6236 1.1721-1.7289 0.44391-0.14347 1.0072-0.93893 1.0072-1.4223 0-0.38767-0.144-0.5253-0.83995-0.80272-0.59622-0.23768-0.70569-0.41059-0.94291-1.4893-0.38101-1.7326-0.12876-4.1705 0.6377-6.1631 0.95204-2.4752 3.0138-5.0893 4.3558-5.5227 1.3148-0.42464 2.6218 0.02551 3.1316 1.0786l0.219 0.45239-0.5939 0.78415c-1.9916 2.6295-3.8328 5.6698-5.4753 9.041-0.48526 0.99596-0.85626 1.8344-0.82444 1.8633 0.0318 0.02885 0.0745 0.0071 0.0948-0.04826 0.17762-0.48441 2.0832-4.2129 2.7025-5.2877 1.586-2.7527 3.9494-6.1756 4.0902-5.9239 0.46476 0.83047 0.44925 11.148-0.0194 12.91-0.24395 0.91688-1.009 1.1269-1.8597 0.51062-0.27288-0.19771-0.60109-0.40167-0.72935-0.45325-0.78602-0.31607-1.3772 1.2749-0.79236 2.1324l0.23342 0.34223 0.79895-0.02345c2.3237-0.06821 3.5371-0.92764 3.9146-2.7726 0.58593-2.8639 0.28154-12.45-0.59556-18.756l-0.13982-1.0052 0.33631-1.1099c0.42853-1.4142 0.81347-3.3164 1.0606-5.2411 0.15846-1.2341 0.70481-7.6306 0.70481-8.2516 0-0.22624 1.2705 0.65072 2.2308 1.5398l0.70955 0.65694-0.0697 0.66139c-0.19301 1.8321-0.92815 5.3731-1.7124 8.248-0.53931 1.9771-1.362 4.6541-1.4789 4.812-0.0452 0.06101-0.37872 0.19122-0.74127 0.28936-0.36255 0.09814-0.63518 0.20243-0.60585 0.23175 0.0799 0.07994 1.3435-0.28202 1.4505-0.41553 0.17221-0.21477 1.2373-3.8244 1.8767-6.3604 0.62889-2.4942 1.0438-4.5388 1.2778-6.2961 0.0666-0.50041 0.14974-0.8975 0.18471-0.88241 0.035 0.01508 2.3119 2.135 5.0599 4.7109l4.9963 4.6834-1.0748 0.06391c-1.1688 0.06951-1.4221 0.12947-2.1896 0.51837-2.7347 1.3858-4.2623 5.0742-4.8271 11.655-0.24703 2.8783-0.28748 5.946-0.14011 10.626 0.0768 2.4374 0.13956 5.7913 0.13956 7.4532 0 3.496-0.0533 3.8459-0.64507 4.2331-0.75973 0.49705-3.0626 0.74182-11.34 1.2054-4.1237 0.23091-7.4165 0.44555-8.5466 0.55709-0.54598 0.05389-1.0332 0.09798-1.0827 0.09798-0.0495 0-0.0879-0.10198-0.0852-0.22662z" opacity="1"/><path d="m219.33 84.892c-0.12103-0.13445-0.2091-0.41183-0.23559-0.74194-0.0347-0.43242 6.3e-4 -0.5906 0.19653-0.87973 0.32965-0.48654 0.63002-0.50008 1.2134-0.05467 0.82721 0.63162 1.275 0.67517 1.8116 0.17616 0.33858-0.3149 0.44696-0.63716 0.58283-1.733 0.17271-1.393 0.24134-7.2729 0.10915-9.3511-0.19838-3.1186-0.42909-3.8503-1.3924-4.4166-0.43097-0.25333-0.5744-0.28245-1.3871-0.28162-0.78416 8.06e-4 -0.97475 0.03685-1.4125 0.26714-1.0306 0.54222-2.9173 2.8818-3.6795 4.5628-0.84565 1.865-1.2672 3.874-1.1722 5.5864 0.0585 1.0541 0.36727 2.5284 0.58429 2.7899 0.0618 0.07451 0.38004 0.23304 0.70711 0.3523 0.45459 0.16575 0.60911 0.2743 0.65592 0.46078 0.12504 0.49822-0.59344 1.5408-1.0618 1.5408-0.53755 0-1.1927-1.477-1.4743-3.3237-0.28426-1.8643-0.13055-4.8354 0.31111-6.0132 1.1041-2.9444 4.1554-7.314 7.7318-11.072l0.85104-0.8943 0.50922-1.8122c1.5424-5.4891 1.8892-8.4481 1.4344-12.237-0.10309-0.85863-0.17912-1.5702-0.16895-1.5814 0.0102-0.01112 0.32127 0.33763 0.69135 0.77501l0.67286 0.79522-0.24891 3.2538c-0.4353 5.69-0.72848 7.6659-1.5679 10.567l-0.3093 1.0691 0.20763 1.5999c0.55722 4.2936 0.76149 7.7007 0.76015 12.679-1e-3 4.7053-0.0728 5.516-0.57208 6.4863-0.48479 0.94205-1.632 1.5145-3.1977 1.5955-0.8828 0.04571-0.97179 0.03293-1.1501-0.16519zm3.3664-19.597c-0.17076-1.1047-0.33263-2.0307-0.35971-2.0578-0.0271-0.02708-0.13184 0.03889-0.23281 0.1466-0.43071 0.45951-2.8324 3.2553-2.8324 3.2972 0 0.02526 0.50989 0.06801 1.1331 0.095 1.2512 0.05419 1.8434 0.24262 2.2914 0.729l0.2518 0.27341 0.0296-0.23748c0.0163-0.13062-0.11013-1.1413-0.28089-2.246z" opacity="1"/><path d="m217.06 67.623c0-0.03835 0.48152-1.077 1.07-2.3081 1.264-2.6442 2.3273-5.0409 3.2002-7.2136 0.42215-1.0507 0.82443-1.8591 1.2089-2.4293 1.2565-1.8634 1.5654-2.8928 1.5835-5.2771 0.0106-1.4059 0.0249-1.5405 0.10768-1.0163 0.11548 0.73146 0.03 2.9494-0.16715 4.3371-0.26506 1.8657-0.72105 3.8888-1.4855 6.5909l-0.41317 1.4604-1.0199 1.1079c-1.4583 1.5841-2.2247 2.4715-3.1748 3.6762-0.97843 1.2406-0.9097 1.1596-0.9097 1.0717z" opacity="1"/><path d="m212.44 63.202c-0.7898-1.9998-1.2487-3.8081-1.3875-5.4674l-0.0677-0.80915 0.89239-0.12829c3.4535-0.49646 7.4308-3.1171 11.412-7.5196l0.72871-0.80575-0.0407 1.964c-0.0378 1.8232-0.0606 2.0218-0.3181 2.7698-0.58281 1.6931-1.5877 3.1117-3.6772 5.1911-0.80941 0.8055-2.0849 1.9715-2.8344 2.591-1.5241 1.2598-4.1095 3.2465-4.225 3.2465-0.0413 0-0.25859-0.46457-0.48284-1.0324z" opacity="1"/><path d="m195.52 90.747-1.3759-0.48777-0.38668-0.57576-0.38668-0.57576-3.6007-1.1248c-1.9804-0.61866-3.6323-1.1363-3.671-1.1503-0.0458-0.01659 0.23499-0.33596 0.80724-0.9181 0.9822-0.99919 1.383-1.4783 1.9546-2.3369 0.4592-0.68968 0.77115-1.2785 1.0546-1.9907 0.35733-0.89792 0.65208-2.1905 0.7383-3.2377 0.0194-0.23543 0.0494-0.45331 0.0668-0.48418 0.0352-0.06267 1.1298 0.55165 2.197 1.2329 1.251 0.79867 2.8322 1.9838 3.969 2.9751l0.42999 0.3749 0.036 0.43086c0.0465 0.55658-7e-3 1.909-0.12904 3.2762-0.10437 1.1666-0.17715 2.4477-0.23101 4.0665-0.0187 0.56088-0.048 1.0183-0.0653 1.0165-0.0172-0.0018-0.65051-0.22273-1.4073-0.491z" opacity="1"/><path d="m195.12 91.761c-0.43918-0.67743-0.78571-1.2445-0.77007-1.2601 0.0156-0.01564 0.59069 0.17057 1.2779 0.41378l1.2495 0.44222 0.0543 0.54092c0.0519 0.51768 0.0571 0.52578 0.12095 0.18841 0.0367-0.19388 0.0898-1.327 0.11799-2.518 0.0282-1.191 0.10417-2.7093 0.1688-3.3741 0.2516-2.5879-0.0782-10.025-0.60299-13.597-0.44771-3.0477-0.54939-4.5766-0.48449-7.2851 0.0986-4.1164 0.79427-7.5061 2.3215-11.312 0.58332-1.4537 1.9317-4.2547 2.1191-4.4021 0.11929-0.09382 1.6475-0.60141 2.5804-0.85708 1.5713-0.43062 3.3237-0.60537 3.3237-0.33144 0 0.07468 0.18006 0.21698 0.40013 0.31622 0.22008 0.09924 0.37726 0.21745 0.34929 0.2627-0.028 0.04524-0.10604 0.06129-0.17351 0.03566-0.14142-0.05372-0.33616 0.24607-1.5081 2.3216-0.46919 0.83093-1.7168 2.9671-2.7724 4.7471l-1.9193 3.2363 0.24591 0.67748c0.13525 0.37261 0.28914 0.75825 0.34197 0.85697 0.0656 0.12247 0.0473 0.31897-0.0574 0.61857-0.1301 0.3723-0.28406 0.531-1.0122 1.0434l-0.85876 0.60431 0.0685 1.6619c0.0377 0.91402 0.0996 1.9343 0.13754 2.2673 0.10948 0.95998-9e-3 1.2969-0.72151 2.0584-1.2257 1.3093-1.6193 3.2671-0.81796 4.0684 0.30303 0.30303 0.75495 0.41236 1.4346 0.34706l0.47799-0.04593 0.4548 9.5264c0.25014 5.2395 0.45175 9.5332 0.44801 9.5414-4e-3 0.0083-0.32406-0.04672-0.71183-0.1222-1.3984-0.27219-3.0294-0.12518-3.9776 0.35853-0.21763 0.11103-0.4206 0.20187-0.45104 0.20187-0.0304 0-0.41467-0.55426-0.85385-1.2317z" opacity="1"/><path d="m207.57 48.832c-0.43543-0.1901-0.8039-0.3595-0.81882-0.37647-0.0494-0.05617-0.6449-3.4358-0.80406-4.5632-0.45552-3.2268-0.51248-4.3567-0.59919-11.885l-0.0441-3.8273 0.27758 0.81732c0.15266 0.44953 0.40131 1.0285 0.55256 1.2866l0.27499 0.46924-0.1689 0.8789c-0.18967 0.98695-0.21654 2.1531-0.0589 2.5579 0.0576 0.1479 0.36782 0.62396 0.6894 1.0579 0.89153 1.203 1.6422 2.7816 1.6422 3.4532 0 0.08841-0.22816 0.47676-0.50703 0.86301-0.88478 1.2255-1.2674 2.3261-1.1185 3.217 0.0809 0.48407 0.50784 0.8153 1.181 0.91624 0.24591 0.03687 0.47216 0.1076 0.50279 0.15716 0.0306 0.04956 0.0973 0.6376 0.14805 1.3067 0.11749 1.5479-0.0627 4.0219-0.29268 4.0175-0.0355-7.05e-4 -0.42088-0.15676-0.85632-0.34686z" opacity="1"/><path d="m198.4 96.796c-0.53315-0.81577-0.96937-1.5093-0.96937-1.5413 0-0.14028 1.132-0.55832 1.5337-0.56638 0.52099-0.01046 0.83771 0.14215 1.5879 0.7651 0.30428 0.25268 0.59662 0.45942 0.64964 0.45942 0.12484 0 0.0508-0.07-0.73691-0.69703-1.0145-0.8075-1.5094-0.875-2.6209-0.35746-0.29888 0.13917-0.55362 0.24073-0.56608 0.2257-0.0125-0.01503-0.29805-0.45761-0.63462-0.98352-0.70416-1.1003-0.73575-1.0074 0.48512-1.4268 0.93413-0.3209 2.2903-0.3154 3.864 0.01566l1.195 0.25137-0.0442 0.76353c-0.0701 1.2105-0.62949 2.2171-2.1787 3.9205l-0.59518 0.65439z" opacity="1"/><path d="m197.43 133.91c-2.5754-1.589-3.8081-2.5623-4.9418-3.9019l-0.42334-0.50018 0.0623-0.85953c0.34017-4.696 0.55045-6.9288 0.9821-10.428 0.3093-2.5073 1.4868-10.847 1.5388-10.899 0.0163-0.0163 1.3174 0.34587 2.8914 0.80479l2.8618 0.83439 0.0328 1.004c0.042 1.286-0.1487 7.9858-0.33684 11.831-0.26469 5.4105-0.65515 12.229-0.73008 12.75l-0.0738 0.51311z" opacity="1"/><path d="m208.19 103.81c-1.6072-0.80643-4.2176-0.93849-8.1253-0.41106-0.52486 0.0708-1.3648 0.19979-2.1539 0.33066l-0.34572 0.0573-0.28377-0.19341c-1.9844-1.3524-4.4756-4.1202-6.0113-6.6785-0.34549-0.57554-0.74798-1.3917-0.88335-1.7913-0.10335-0.30507-0.10976-0.34024-0.11088-0.609l-1e-3 -0.28524 0.0822-0.07357c0.0687-0.0615 0.10385-0.07356 0.21402-0.0735 0.24409 1.44e-4 0.58847 0.21328 1.567 0.96988 2.0437 1.5801 2.8589 2.1383 3.8801 2.6569 1.0134 0.51467 1.8609 0.75464 2.6635 0.75421 0.19561-1.01e-4 0.4293-0.01145 0.51932-0.0252l0.16367-0.02501 0.33454-0.3462c1.1878-1.2291 1.7643-1.9706 2.1712-2.792 0.31632-0.63863 0.45802-1.2312 0.45916-1.92l6.8e-4 -0.41266 0.31756 0.01682c0.61475 0.03257 0.97635 0.1209 1.4507 0.35437 0.15234 0.07499 0.41295 0.18947 0.57913 0.25441 0.99134 0.38738 2.0135 1.0731 3.3741 2.2636 0.24928 0.21811 0.51186 0.45183 0.58352 0.51938l0.13029 0.12282-0.12351 3.7318c-0.0679 2.0525-0.12656 3.7387-0.13029 3.7471-4e-3 8e-3 -0.14837-0.0557-0.32143-0.14257z" opacity="1"/><path d="m220.87 205.67c-4e-3 -1.5839-2.0111-31.847-2.5349-38.227l-0.31424-3.8273-1.3766-4.1295c-1.4599-4.3794-2.6766-8.4746-3.5012-11.784-0.62245-2.4983-1.4231-6.5304-1.3162-6.6287 0.0437-0.0402 0.66869 0.0207 1.3888 0.13539 1.929 0.30713 10.465 0.30174 12.288-8e-3 2.1885-0.37155 4.6218-0.9994 6.0644-1.5648 0.69144-0.27097 1.3095-0.44057 1.3734-0.37689 0.23767 0.23682 0.25472 7.8354 0.0309 13.781-0.35272 9.3704-0.35438 9.2855 0.23257 11.885 0.90881 4.0247 1.0556 5.7283 1.0586 12.288 2e-3 4.2559-0.13724 8.2485-0.45288 12.993-0.2506 3.7669-0.52255 8.2522-0.60431 9.9673l-0.14866 3.1184-5.5424 1.1284c-3.0483 0.62063-5.7904 1.1906-6.0935 1.2667-0.30309 0.0761-0.55126 0.0686-0.55149-0.0166z" opacity="1"/><path d="m215.03 141.15c-0.94173-0.0964-2.0838-0.22956-2.538-0.29599l-0.82575-0.12078-0.34006-3.6684c-0.18704-2.0176-0.4334-4.7562-0.54746-6.0857-0.23037-2.685-0.49826-24.386-0.31028-25.135 0.11834-0.4715 0.1469-0.47587 4.7072-0.71975 5.7528-0.30765 11.213-0.75592 14.861-1.2202 1.5511-0.19734 2.8438-0.34161 2.8727-0.3206 0.0289 0.021 0.32523 2.4771 0.65848 5.458 1.2093 10.817 2.6085 21.25 3.4118 25.44 0.3428 1.788 0.31541 1.8651-0.952 2.6814-2.7016 1.7401-6.3088 3.0756-10.014 3.7074-2.1502 0.36665-8.544 0.52952-10.984 0.2798z" opacity="1"/><path d="m201.52 192.16-5.7589-0.30023-0.1304-11.1c-0.2138-18.2-0.66786-30.705-1.2332-33.964-0.65235-3.7598-1.3462-13.77-1.0393-14.993l0.13346-0.53176 0.95118 0.79493c1.0542 0.881 4.8826 3.312 5.0121 3.1826 0.15675-0.15675 0.88256-13.964 1.0476-19.929 0.0912-3.297 0.20905-6.0377 0.26186-6.0905 0.0528-0.0528 1.7663 0.39416 3.8077 0.99326 2.0414 0.5991 3.738 1.0629 3.7703 1.0306 0.0323-0.0322-1.3043-1.7917-2.97-3.91s-3.0287-3.9092-3.0287-3.9799c0-0.26864 4.5341 0.0601 5.2877 0.38333 0.67741 0.29058 0.7554 0.40059 0.7554 1.0655v0.74151l0.9374-0.10566 0.9374-0.10565-0.1183 5.6694c-0.18086 8.6682 0.1537 17.561 0.99501 26.448 0.32736 3.458 0.3273 3.9875-1e-3 9.7697-1.3445 23.667-1.7458 33.082-1.5929 37.369 0.056 1.569 0.0359 3.9938-0.0445 5.3885l-0.14625 2.5358-1.0373-0.031c-0.57049-0.0171-3.6288-0.16611-6.7961-0.33123z" opacity="1"/><path d="m204.01 109.86c-6.7625-1.9831-9.3546-2.7386-18.517-5.3969-4.9355-1.4319-9.0777-2.7051-9.2048-2.8293-0.32163-0.31405-13.985-21.951-13.91-22.027 0.0337-0.03372 5.2803 1.5771 11.659 3.5796 6.3788 2.0025 12.591 3.9496 13.806 4.3269 1.2143 0.37725 2.9456 0.91882 3.8474 1.2035l1.6396 0.51761 1.1989 1.8586c0.65938 1.0222 1.2725 1.9986 1.3624 2.1697 0.09 0.17108 0.88052 1.3687 1.7568 2.6613l1.5933 2.3502-0.55415 0.04295c-1.2448 0.09649-3.2214-0.89101-5.9794-2.9873-1.8016-1.3694-2.0671-1.5107-2.368-1.261-0.32972 0.27365-0.26648 0.69353 0.27448 1.8223 1.1739 2.4496 3.9123 5.777 6.136 7.4559l0.76878 0.58043 1.8209-0.29418c1.0015-0.1618 1.9962-0.31207 2.2104-0.33394 0.35426-0.0362 0.66102 0.30582 3.3937 3.7834 1.6523 2.1027 2.9834 3.8416 2.9578 3.864-0.0255 0.0225-1.777-0.46661-3.8922-1.0869z" opacity="1"/><path d="m184.62 86.363-0.87238-0.27688 0.60217-1.0567c0.74264-1.3032 0.70016-1.6073 0.64175-2.4113-0.0377-0.51909 0.28782-1.4591-0.10533-1.6879-0.49855-0.29015-1.3158 0.22593-1.899 0.37229-0.57346 0.14393-1.4772 0.5353-1.4556 2.4121 0.013 1.1277-0.0259 1.5048-0.1474 1.4303-0.0907-0.05571-1.3129 0.481-2.1003-0.16144-1.511-1.2327-1.7385-3.0797-2.3264-3.9687-0.35389-0.53513-0.35554-0.55157-0.15241-1.5216 0.27995-1.3369 0.70659-2.1626 1.5595-3.0181 1.167-1.1706 2.4875-1.4776 5.276-1.2267 1.3157 0.1184 1.8301 0.24315 3.2093 0.77843 0.90337 0.35059 2.1129 0.87435 2.6879 1.1639l1.0454 0.52647-0.0967 0.87978c-0.21443 1.9504-0.88792 3.7412-1.9832 5.2735-0.85073 1.1901-2.4484 2.8028-2.7583 2.7844-0.13899-0.0083-0.64527-0.13963-1.1251-0.29191z" opacity="1"/><path d="m198.43 73.086c-0.33258-0.28607-0.38955-0.44157-0.37838-1.0327 0.0196-1.0353 0.54932-2.3087 1.221-2.935 0.53606-0.49986 0.59126-0.63127 0.97359-2.318 1.4716-6.4926 3.7548-12.489 6.4987-17.067 0.34285-0.57206 0.5616-0.80313 0.70736-0.74719 0.11606 0.04454 0.36531 0.1197 0.55388 0.16703 0.18858 0.04733 0.34287 0.11158 0.34287 0.14278 0 0.0312-0.42805 0.80944-0.95121 1.7294-2.8298 4.9761-5.0629 10.826-6.3182 16.55-0.25743 1.1739-0.25734 1.2226 3e-3 1.9965 0.21702 0.64421 0.24539 0.96949 0.15095 1.731-0.064 0.51573-0.18739 1.0705-0.27429 1.2329-0.48488 0.90601-1.7868 1.1892-2.5296 0.55029z" opacity="1"/><path d="m207.85 95.5c-1.6671-1.4176-3.5451-2.4318-4.9057-2.6494-0.51781-0.0828-0.58928-0.13656-0.52699-0.3964 0.0396-0.16534 1.3618-6.6408 2.938-14.39l2.866-14.089-0.31317-1.2991-0.31318-1.2991 1.6587-2.1826c1.6542-2.1766 1.6587-2.181 1.6587-1.6235 0 0.77081 0.22973 2.0069 0.6632 3.5684l0.36614 1.319-0.80634 0.91843-0.80633 0.91842-0.77361 15.71c-0.42548 8.6404-0.79098 15.825-0.81223 15.966-0.0312 0.20714-0.20199 0.11718-0.89325-0.47062z" opacity="1"/><path d="m222.6 67.237c-0.24723-0.29789-1.0716-0.54605-2.1298-0.64114l-0.91014-0.08178 1.3335-1.543c0.73344-0.84867 1.3496-1.4896 1.3694-1.4244 0.0897 0.29698 0.59804 3.8133 0.55716 3.8542-0.0253 0.02529-0.12435-0.04843-0.22012-0.16382z" opacity="1"/><path d="m211.42 89.803c0.28096-3.3385 0.75185-6.0452 1.4357-8.2523l0.37792-1.2198 0.2403 0.78341c0.2638 0.85998 0.77581 1.9274 0.98721 2.058 0.0741 0.04578-0.14548 0.61098-0.48788 1.256-0.77167 1.4537-1.5217 3.1794-2.1501 4.9474l-0.481 1.3532z" opacity="1"/><path d="m210.21 55.613c-0.4038-0.62948-0.8914-1.5622-1.0836-2.0728-0.41919-1.1137-0.67229-2.7495-0.55078-3.5598l0.0883-0.5889 0.87713 0.18826c0.48241 0.10354 1.5689 0.19051 2.4143 0.19326 3.8244 0.01245 6.4334-1.2122 9.8832-4.639 1.3744-1.3653 1.6025-1.5406 1.6672-1.2819 0.11502 0.45976 0.51522 3.6106 0.51522 4.0565 0 0.30748-0.34435 0.75756-1.5552 2.0328-3.4784 3.6633-6.6466 5.7926-9.7126 6.5276-1.7774 0.42608-1.7054 0.45033-2.5433-0.85591z" opacity="1"/><path d="m206.54 59.962c0.11029-3.0563 0.54606-4.7336 1.6949-6.5239l0.44055-0.68654 0.26204 0.74407c0.22742 0.6458 0.75538 1.6101 1.6417 2.9984 0.24056 0.37682 0.23847 0.38165-0.73885 1.7093-1.1576 1.5725-2.6095 3.3524-3.0612 3.7528l-0.32138 0.28488z" opacity="1"/><path d="m201.58 92.657c-0.27498-0.11134-0.28664-0.1891-0.18547-1.2373 0.0594-0.61517 0.27273-3.7785 0.47412-7.0297 0.5447-8.793 0.85648-12.095 1.5132-16.024 0.404-2.4173 1.2841-5.9701 2.0326-8.2049 0.60728-1.8133 1.3324-3.5955 1.1532-2.8341-0.16742 0.7111-0.25224 5.1278-0.0985 5.1278 0.0816 0 0.33322-0.23049 0.55922-0.5122l0.4109-0.5122 0.32205 1.26 0.32206 1.26-2.9269 14.364c-1.6098 7.9001-2.9269 14.39-2.9269 14.422 0 0.09125-0.3278 0.05149-0.64952-0.07878z" opacity="1"/><path d="m199.9 65.778c-0.17133-2.5874-0.18478-2.5161 0.58193-3.0841 0.37185-0.27544 0.69132-0.48557 0.70992-0.46697 0.0186 0.01861-0.24359 1.1402-0.58266 2.4923l-0.6165 2.4585z" opacity="1"/><path d="m201.2 90.373c-0.0488-0.19585-0.25923-4.0957-0.46771-8.6664-0.37903-8.3096-0.37904-8.3103-0.0933-8.5104 0.33353-0.23361 0.68315-1.133 0.80586-2.0731 0.0616-0.47181 5e-3 -0.90326-0.19705-1.5031-0.27923-0.82889-0.27952-0.85915-0.0196-2.0446 0.70118-3.1974 1.6247-6.1817 2.8849-9.3222 0.89927-2.2411 2.7908-6.1396 3.801-7.8341l0.59443-0.99707-0.0865 0.64097c-0.0476 0.35253-0.02 1.0512 0.0613 1.5526 0.14646 0.9033 0.14326 0.919-0.35105 1.7198-0.94611 1.5328-2.711 6.0352-3.6028 9.1909-1.4386 5.0909-2.0219 9.5147-2.7236 20.657-0.23666 3.7582-0.44986 6.9934-0.47377 7.1893l-0.0435 0.3561z" opacity="1"/><path d="m201.58 60.532c-0.0575-0.15668-0.18438-0.48458-0.28194-0.72867-0.17116-0.42826-0.12968-0.52416 1.1856-2.7407 0.7496-1.2633 1.3849-2.2749 1.4118-2.248 0.0269 0.02687-0.15447 0.52305-0.40297 1.1026s-0.75691 1.9191-1.1298 2.9767c-0.50868 1.4427-0.70411 1.8518-0.78257 1.638z" opacity="1"/><path d="m220.53 38.806c-0.33631-0.51327-0.785-1.5224-1.3322-2.9963-1.085-2.9224-1.9901-4.5104-2.75-4.8251-0.24168-0.10011-0.56894-0.05964-2.0934 0.25885-1.7222 0.3598-1.899 0.37772-3.7709 0.38198-2.1636 0.0049-2.7236-0.08334-3.4497-0.54382-0.61879-0.39242-1.009-1.0416-1.4771-2.4575-0.39329-1.1896-0.40201-1.2458-0.3073-1.9771 0.19999-1.5442 0.76926-3.058 1.5498-4.1213 1.3505-1.8398 3.7372-3.1766 7.0295-3.9374 0.9373-0.21659 0.9849-0.21789 2.3228-0.06351 2.9667 0.34232 5.1177 1.0165 6.8771 2.1555 2.2578 1.4616 3.9735 4.2297 3.9723 6.4087-1e-3 1.9392-0.33466 5.93-0.66785 7.9905l-0.16694 1.0324-0.51402 0.0022c-0.81793 0.0035-1.5153 0.38424-3.032 1.6554-0.79269 0.66433-1.7028 1.2605-1.9273 1.2623-0.0629 5.03e-4 -0.18116-0.10108-0.26287-0.22578z" display="inline" opacity="1"/></g></g><g id="e" transform="translate(-59.669 16.642)"><g transform="matrix(-1.3614 0 0 1.3614 581.24 .017781)" fill-rule="evenodd" filter="url(#bc)"><path d="m210.81 49.617c-0.52626-0.04663-1.2061-0.14344-1.5108-0.21514l-0.55396-0.13036 0.0296-0.39955c0.0163-0.21975 0.0389-1.376 0.0504-2.5695 0.0246-2.5669 1e-3 -2.6448-0.81577-2.7532-0.32941-0.0437-0.59169-0.15324-0.77608-0.32413-0.26697-0.24741-0.27621-0.28808-0.22278-0.98024 0.0682-0.88381 0.31241-1.4698 1.0526-2.5262 0.63752-0.90981 0.66147-1.0585 0.32718-2.0301-0.25436-0.73932-0.75233-1.6264-1.3952-2.4854-0.68278-0.91232-0.71592-0.98536-0.78558-1.7312-0.0506-0.54208 0.18581-2.3897 0.32759-2.56 0.0162-0.01944 0.18282 0.08165 0.3703 0.22464 0.5235 0.39929 1.0741 0.54897 2.475 0.67283 1.5543 0.13743 2.7735 0.03595 5.0708-0.4221 0.9924-0.19787 1.6832-0.28844 1.8606-0.24392 0.72476 0.1819 1.5 1.5428 2.7568 4.8398 0.81816 2.1463 0.98512 2.5096 1.3558 2.95 0.22525 0.2677 0.29746 0.29686 0.5533 0.22348 0.37204-0.1067 0.89975-0.47304 2.1685-1.5054 1.1149-0.90715 1.7987-1.2882 2.5331-1.4114l0.48844-0.08196-0.46819-0.01185c-0.6473-0.01638-1.3688 0.38323-2.8387 1.5723-1.181 0.95533-1.7749 1.3367-2.0816 1.3367-0.27148 0-0.76686-0.97488-1.6122-3.1726-0.9798-2.5474-1.4931-3.6149-2.0334-4.2287-0.70639-0.8025-0.70635-0.8025-2.7132-0.39397-2.009 0.40897-4.1434 0.54374-5.6552 0.3571-1.873-0.23122-2.431-0.76873-3.1937-3.0766-0.29971-0.90685-0.32353-1.0678-0.26386-1.7834 0.15072-1.8073 0.9387-3.6358 2.1049-4.8846 1.4275-1.5285 3.1608-2.4604 5.8951-3.1692 1.2312-0.31917 1.8776-0.3575 3.244-0.19233 5.5243 0.66778 8.9758 2.992 10.322 6.951 0.28898 0.84965 0.31331 1.5514 0.14654 4.2263-0.43365 6.9555-1.5326 10.826-3.9531 13.925-1.3127 1.6802-3.9742 3.9557-5.6119 4.7982-1.9123 0.98368-4.2891 1.4148-6.6474 1.2059z" fill="url(#at)"/><path d="m208.38 105.55c0.0103-0.7479 0.3657-9.062 0.38419-9.0786 0.0468-0.0421 4.3723-0.30944 7.003-0.46227 6.7226-0.39053 7.9109-0.46504 9.7446-0.61099 3.7403-0.29773 4.752-0.58315 5.0189-1.4159 0.26685-0.83284 0.32581-2.7174 0.19496-6.2316-0.0701-1.8834-0.43457-5.9626-0.43368-9.0647 2e-3 -5.855 0.36829-6.9711 0.81988-9.7194 0.67846-4.1288 2.0295-6.884 3.9791-8.1147 0.80382-0.50743 1.453-0.67376 2.6793-0.68649l1.1289-0.01172 0.56504 0.55395c0.72714 0.71287 1.1506 1.4758 1.6503 2.9732 1.737 5.2051 1.8831 16.065 0.35032 26.034-1.0779 7.01-2.7728 11.672-4.5783 12.593-2.0663 1.0542-10.016 2.0176-21.95 2.6601-4.365 0.235-6.5577 0.68162-6.5563 0.5821z" fill="url(#aq)"/><path d="m208.9 96.137c3e-3 -0.12464 0.35608-7.3236 0.78539-15.998l0.64437-15.845 0.72551-0.83739c0.40875-0.48004 1.0513-1.2316 1.0831-1.2312 0.0317 4.03e-4 0.41123 0.38645 0.60102 0.85969s0.12827 0.44808 0.10107 0.91138c0.0993 0.06137 2.4645-1.6462 4.2571-3.1372 0.71018-0.5907 2.0459-1.7539 2.8353-2.5405s2.6323-3.0804 2.6323-3.0578c0 0.10194-2.0383 4.4572-2.6964 5.9572-1.3106 2.9875-3.5734 7.5794-4.2157 8.5551-0.90763 1.3787-2.207 4.0527-2.3284 4.7914-0.2088 1.2712-0.29423 3.1424-0.19506 4.2724l0.10502 1.4931-0.27434 1.0648c-0.89631 2.7835-1.401 4.8067-1.8963 10.889-0.13987 1.7173-0.27603 3.2469-0.30258 3.3993-0.0266 0.15234-0.0297 0.12308 0.0243 0.12308s-0.0266 0.02926-0.0243-0.12308c2e-3 -0.15234 0.0342-0.40414 0.19913-2.2282 0.15829-1.6949 0.21768-2.454 0.33676-3.4535 0.23468-1.97 1.3898-3.3735 2.2618-5.0915 1.0523-2.0437 0.53862-1.8159 1.4799-1.6776 0.44391-0.14347 1.0072-0.93893 1.0072-1.4223 0-0.38767-0.144-0.5253-0.83995-0.80272-0.59622-0.23768-0.70569-0.41059-0.94291-1.4893-0.38101-1.7326-0.12876-4.1705 0.6377-6.1631 0.95204-2.4752 3.0138-5.0893 4.3558-5.5227 1.3148-0.42464 2.7669-0.06517 3.2767 0.98787l0.0739 0.54308-0.72086 0.72974c-1.9916 2.6295-5.2971 9.0441-5.2971 9.0441s-0.78094 1.8663-0.87574 1.9146c0.0318 0.02885 0.0745 0.0071 0.0948-0.04826 0.17762-0.48441 0.84011-2.0926 2.8958-5.8478 1.4834-2.5219 3.7668-6.0441 3.9076-5.7924 0.46476 0.83047 0.43859 11.577-0.0301 13.338-0.24395 0.91688-1.009 1.1269-1.8597 0.51062-0.27288-0.19771-0.60109-0.40167-0.72935-0.45325-0.78602-0.31607-1.3772 1.2749-0.79236 2.1324l0.23342 0.34223 0.79895-0.02345c2.3237-0.06821 3.5371-0.92764 3.9146-2.7726 0.58593-2.8639 0.26601-12.391-0.70438-18.683l-0.16326-1.0586 0.34161-1.129c0.42853-1.4142 0.83161-3.2802 1.0787-5.2048 0.15846-1.2341 0.66854-7.8482 0.66854-8.4693 0-0.22624 1.4156 0.83208 2.3759 1.7212l0.70955 0.65694-0.0697 0.66139c-0.19301 1.8321-0.92815 5.3731-1.7124 8.248-0.53931 1.9771-1.362 4.6541-1.4789 4.812-0.0452 0.06101-0.37872 0.2819-0.74127 0.38004-0.36255 0.09814-0.63518 0.11174-0.60585 0.14107 0.0799 0.07994 1.2401-0.3876 1.3471-0.52111 0.17221-0.21477 1.2287-3.7338 1.8682-6.2698 0.62889-2.4942 1.0107-4.5237 1.2446-6.281 0.0666-0.50041 0.11769-1.1857 0.15309-1.1706 0.035 0.01508 2.489 2.4231 5.237 4.999l5.2099 4.8849-1.2158 0.18894c-1.1688 0.06951-1.4584 0.23829-2.2258 0.62719-2.7347 1.3858-4.0809 4.6389-4.6457 11.22-0.24703 2.8783-0.25121 5.946-0.10384 10.626 0.0768 2.4374 0.13956 5.8639 0.13956 7.5257 0 3.496-0.30721 4.0273-0.89898 4.4144-0.75973 0.49705-3.0626 0.70555-11.34 1.1691-4.1237 0.23091-7.4165 0.40928-8.5466 0.52082-0.54598 0.05389-1.0604 0.14332-1.1099 0.14332-0.0495 0-0.0516-0.11105-0.0489-0.23569z" fill="url(#ar)"/><path d="m219.33 84.892c-0.12103-0.13445-0.2091-0.41183-0.23559-0.74194-0.0347-0.43242 6.3e-4 -0.5906 0.19653-0.87973 0.32965-0.48654 0.63002-0.50008 1.2134-0.05467 0.82721 0.63162 1.275 0.67517 1.8116 0.17616 0.33858-0.3149 0.44696-0.63716 0.58283-1.733 0.17271-1.393 0.24134-7.2729 0.10915-9.3511-0.19838-3.1186-0.42909-3.8503-1.3924-4.4166-0.43097-0.25333-0.5744-0.28245-1.3871-0.28162-0.78416 8.06e-4 -0.97475 0.03685-1.4125 0.26714-1.0306 0.54222-2.9173 2.8818-3.6795 4.5628-0.84565 1.865-1.2672 3.874-1.1722 5.5864 0.0585 1.0541 0.36727 2.5284 0.58429 2.7899 0.0618 0.07451 0.38004 0.23304 0.70711 0.3523 0.45459 0.16575 0.60911 0.2743 0.65592 0.46078 0.12504 0.49822-0.59344 1.5408-1.0618 1.5408-0.53755 0-1.1927-1.477-1.4743-3.3237-0.28426-1.8643-0.13055-4.8354 0.31111-6.0132 1.1041-2.9444 4.1554-7.314 7.7318-11.072l0.85104-0.8943 0.50922-1.8122c1.5424-5.4891 1.6456-8.4481 1.1907-12.237-0.10309-0.85863-0.26889-1.6857-0.25872-1.6968 0.0102-0.01112 0.65471 0.45305 1.0248 0.89043l0.67286 0.79522-0.24891 3.2538c-0.4353 5.69-0.72848 7.6659-1.5679 10.567l-0.3093 1.0691 0.20763 1.5999c0.55722 4.2936 0.76149 7.7007 0.76015 12.679-1e-3 4.7053-0.0728 5.516-0.57208 6.4863-0.48479 0.94205-1.632 1.5145-3.1977 1.5955-0.8828 0.04571-0.97179 0.03293-1.1501-0.16519zm3.3664-19.597c-0.17076-1.1047-0.33263-2.0307-0.35971-2.0578-0.0271-0.02708-0.13184 0.03889-0.23281 0.1466-0.43071 0.45951-2.8324 3.2553-2.8324 3.2972 0 0.02526 0.50989 0.06801 1.1331 0.095 1.2512 0.05419 1.8434 0.24262 2.2914 0.729l0.2518 0.27341 0.0296-0.23748c0.0163-0.13062-0.11013-1.1413-0.28089-2.246z" fill="url(#j)"/><path d="m217.06 67.623c0-0.03835 0.27633-1.0257 0.86485-2.2568 1.264-2.6442 2.2503-5.0281 3.3028-7.2392 0.48666-1.0224 0.74749-1.9489 1.132-2.519 1.2565-1.8634 1.4372-2.9569 1.4552-5.3412 0.0106-1.4059 0.1094-2.9985 0.19218-2.4742 0.11548 0.73146 0.25329 4.5356 0.0561 5.9233-0.26506 1.8657-0.72105 3.8888-1.4855 6.5909l-0.41317 1.4604-1.0199 1.1079c-1.4583 1.5841-2.2247 2.4715-3.1748 3.6762-0.97843 1.2406-0.9097 1.1596-0.9097 1.0717z" fill="url(#af)"/><path d="m212.44 63.202c-0.7898-1.9998-1.2487-3.8081-1.3875-5.4674l-0.14932-1.1628 0.9468 0.09842c0.41651 0.0433 7.2404-2.9811 11.222-7.3835l0.83753-1.105 0.0681 2.2542c-0.0378 1.8232-0.0606 2.0218-0.3181 2.7698-0.58281 1.6931-1.5877 3.1117-3.6772 5.1911-0.80941 0.8055-2.0849 1.9715-2.8344 2.591-1.5241 1.2598-4.1095 3.2465-4.225 3.2465-0.0413 0-0.25859-0.46457-0.48284-1.0324z" fill="url(#ab)"/><path d="m195.18 90.785-0.88857-0.2441-0.54057-0.8579-0.38668-0.57576-3.6007-1.1248c-1.9804-0.61866-3.6323-1.1363-3.671-1.1503-0.0458-0.01659-0.0471-0.41291 0.5251-0.99505 0.9822-0.99919 1.383-1.504 1.9546-2.3626 0.4592-0.68968 0.0631-1.176 1.0033-1.8881 0.35733-0.89792 0.67773-2.3444 0.76395-3.3916 0.0194-0.23543 0.22141-0.44744 0.23881-0.47831 0.0352-0.06267 1.2656 0.69968 2.3327 1.3809 1.251 0.79867 2.8322 1.9838 3.969 2.9751l0.92186 0.45184-0.27633 0.53345c0.0465 0.55658 0.12125 1.7294-7.9e-4 3.0966-0.10437 1.1666-0.27975 2.5246-0.33361 4.1435-0.0187 0.56088-0.048 1.0824-0.0653 1.0807-0.0172-0.0018-0.88135-0.20991-1.6381-0.47818z" fill="url(#ak)"/><path d="m195.12 91.761c-0.43918-0.67743-0.78571-1.2445-0.77007-1.2601 0.0156-0.01564 0.59069 0.17057 1.2779 0.41378l1.5316 0.44222-0.0996 0.54092c0.0519 0.51768-0.0711 0.52578-7e-3 0.18841 0.0367-0.19388 0.0898-1.327 0.11799-2.518 0.0282-1.191 0.10417-2.7093 0.1688-3.3741 0.2516-2.5879-0.0782-10.025-0.60299-13.597-0.44771-3.0477-0.54939-4.5766-0.48449-7.2851 0.0986-4.1164 0.79427-7.5061 2.3215-11.312 0.58332-1.4537 1.9317-4.2547 2.1191-4.4021 0.11929-0.09382 1.6475-0.60141 2.5804-0.85708 1.5713-0.43062 3.3237-0.60537 3.3237-0.33144 0 0.07468 0.18006 0.21698 0.40013 0.31622 0.22008 0.09924 0.37726 0.21745 0.34929 0.2627-0.028 0.04524-0.10604 0.06129-0.17351 0.03566-0.14142-0.05372-0.17293 0.24607-1.3449 2.3216-0.46919 0.83093-1.1772 3.1345-2.4278 4.7834l-2.4271 3.2 0.24591 0.67748c0.13525 0.37261 0.28914 0.75825 0.34197 0.85697 0.0656 0.12247 0.0473 0.31897-0.0574 0.61857-0.1301 0.3723-0.28406 0.531-1.0122 1.0434l-0.85876 0.60431 0.0685 1.6619c0.21724 0.68318 0.0996 1.9343 0.13754 2.2673 0.10948 0.95998-9e-3 1.2969-0.72151 2.0584-1.2257 1.3093-1.6193 3.2671-0.81796 4.0684 0.30303 0.30303 0.75495 0.41236 1.4346 0.34706l0.47799-0.04593 0.59989 9.5264c0.32967 5.2351 0.30666 9.6783 0.30292 9.6865-4e-3 0.0083-0.36033-0.01045-0.7481-0.08592-1.3984-0.27219-2.9569-0.14331-3.905 0.3404-0.21763 0.11103-0.32991 0.23814-0.36035 0.23814-0.0304 0-0.54194-0.75377-0.98112-1.4312z" fill="url(#ao)"/><path d="m207.16 48.884c-0.43543-0.1901-0.60439-0.39578-0.61931-0.41274-0.0494-0.05617-0.28217-3.4902-0.44133-4.6176-0.45552-3.2268-0.51248-4.3567-0.59919-11.885l-0.0441-3.8273 0.27758 0.81732c0.15266 0.44953 0.40131 1.0285 0.55256 1.2866l0.27499 0.46924-0.1689 0.8789c-0.18967 0.98695-0.21654 2.1531-0.0589 2.5579 0.0576 0.1479 0.36782 0.62396 0.6894 1.0579 0.89153 1.203 1.6422 2.7816 1.6422 3.4532 0 0.08841-0.18969 0.54089-0.46856 0.92713-0.88478 1.2255-1.3059 2.2619-1.157 3.1529 0.0809 0.48407 0.53349 0.7127 1.2066 0.81364 0.24591 0.03687 0.44651 0.21019 0.47714 0.25976 0.0306 0.04956 0.0973 0.6376 0.14805 1.3067 0.11749 1.5479 0.108 4.1531-0.12198 4.1487-0.0355-7.05e-4 -0.7004-0.01594-1.1358-0.20604z" fill="url(#as)"/><path d="m198.4 96.796c-0.53315-0.81577-1.0238-1.6182-1.0238-1.6501 0-0.14028 1.1683-0.59459 1.57-0.60266 0.52099-0.01046 0.9284 0.16029 1.6786 0.78324 0.30428 0.25268 0.57709 0.58638 0.57709 0.58638 0.0367 0.11932 0.0508-0.07-0.73691-0.69703-1.0145-0.8075-1.5638-0.875-2.6209-0.30305-0.29888 0.13917-0.55362 0.18632-0.56608 0.17129-0.0125-0.01503-0.29805-0.45761-0.63462-0.98352-0.70416-1.1003-0.73575-1.0074 0.48512-1.4268 0.93413-0.3209 2.2903-0.3154 3.864 0.01566l1.195 0.25137-0.0442 0.76353c-0.0701 1.2105-0.62949 2.2171-2.1787 3.9205l-0.59518 0.65439z" fill="url(#x)"/><path d="m197.43 133.91c-2.5754-1.589-3.8081-2.5623-4.9418-3.9019l-0.42334-0.50018 0.0623-0.85953c0.34017-4.696 0.55045-6.9288 0.9821-10.428 0.3093-2.5073 1.4868-10.847 1.5388-10.899 0.0163-0.0163 1.3174 0.34587 2.8914 0.80479l2.8618 0.83439 0.0328 1.004c0.042 1.286-0.1487 7.9858-0.33684 11.831-0.26469 5.4105-0.65515 12.229-0.73008 12.75l-0.0738 0.51311z" fill="url(#al)"/><path d="m207.78 103.84c-1.6072-0.80643-4.8588-0.86154-7.6892-0.46236-0.52486 0.0708-1.3904 0.22544-2.1796 0.35631l-0.34572 0.0573-0.28377-0.19341c-1.9844-1.3524-4.4756-4.1202-6.0113-6.6785-0.34549-0.57554-0.74798-1.3917-0.88335-1.7913-0.10335-0.30507-0.10976-0.34024-0.11088-0.609l-1e-3 -0.28524 0.0822-0.07357c0.0687-0.0615 0.10385-0.07356 0.21402-0.0735 0.24409 1.44e-4 0.58847 0.21328 1.567 0.96988 2.0437 1.5801 2.8589 2.1383 3.8801 2.6569 1.0134 0.51467 1.8609 0.75464 2.6635 0.75421 0.19561-1.01e-4 0.4293-0.01145 0.51932-0.0252l0.16844-0.15826 0.22095-0.32177c1.1878-1.2291 1.728-1.898 2.1349-2.7195 0.31632-0.63863 0.40361-1.1949 0.40475-1.8838l0.0574-0.41335 0.4603 0.01752c0.61475 0.03257 0.97635 0.1209 1.4507 0.35437 0.15234 0.07499 0.41295 0.18947 0.57913 0.25441 0.99134 0.38738 2.0135 1.0731 3.3741 2.2636 0.24928 0.21811 0.51186 0.45183 0.58352 0.51938l0.13029 0.12282-0.12351 3.7318c-0.0679 2.0525-0.12656 4.1747-0.13029 4.1832-4e-3 8e-3 -0.14853-0.13261-0.32159-0.21948z" fill="url(#y)"/><path d="m220.87 205.67c-4e-3 -1.5839-2.0111-31.847-2.5349-38.227l-0.31424-3.8273-1.3766-4.1295c-1.4599-4.3794-2.6766-8.4746-3.5012-11.784-0.62245-2.4983-1.4231-6.5304-1.3162-6.6287 0.0437-0.0402 0.66869 0.0207 1.3888 0.13539 1.929 0.30713 10.465 0.30174 12.288-8e-3 2.1885-0.37155 4.6218-0.9994 6.0644-1.5648 0.69144-0.27097 1.3095-0.44057 1.3734-0.37689 0.23767 0.23682 0.25472 7.8354 0.0309 13.781-0.35272 9.3704-0.35438 9.2855 0.23257 11.885 0.90881 4.0247 1.0556 5.7283 1.0586 12.288 2e-3 4.2559-0.13724 8.2485-0.45288 12.993-0.2506 3.7669-0.52255 8.2522-0.60431 9.9673l-0.14866 3.1184-5.5424 1.1284c-3.0483 0.62063-5.7904 1.1906-6.0935 1.2667-0.30309 0.0761-0.55126 0.0686-0.55149-0.0166z" fill="url(#k)"/><path d="m215.03 141.15c-0.94173-0.0964-2.0838-0.22956-2.538-0.29599l-0.82575-0.12078-0.34006-3.6684c-0.18704-2.0176-0.4334-4.7562-0.54746-6.0857-0.23037-2.685-0.70939-24.892-0.52141-25.641 0.11834-0.4715 0.28548-0.26049 4.8458-0.50437 5.7528-0.30765 11.104-0.75592 14.753-1.2202 1.5511-0.19734 2.9889-0.26906 3.0178-0.24805 0.0289 0.021 0.3615 2.6948 0.69475 5.6757 1.2093 10.817 2.6085 21.25 3.4118 25.44 0.3428 1.788 0.31541 1.8651-0.952 2.6814-2.7016 1.7401-6.3088 3.0756-10.014 3.7074-2.1502 0.36665-8.544 0.52952-10.984 0.2798z" fill="url(#am)"/><path d="m201.52 192.16-5.7589-0.30023-0.1304-11.1c-0.2138-18.2-0.66786-30.705-1.2332-33.964-0.65235-3.7598-1.3462-13.77-1.0393-14.993l0.13346-0.53176 0.95118 0.79493c1.0542 0.881 4.8826 3.312 5.0121 3.1826 0.15675-0.15675 0.88256-13.964 1.0476-19.929 0.0912-3.297 0.20905-6.0377 0.26186-6.0905 0.0528-0.0528 1.7663 0.39416 3.8077 0.99326 2.0414 0.5991 3.738 1.0629 3.7703 1.0306 0.0323-0.0322-1.3043-1.7917-2.97-3.91s-3.3621-4.1144-3.3621-4.185c0-0.26864 4.8676 0.26529 5.6212 0.58852 0.67741 0.29058 0.7554 0.40059 0.7554 1.0655v0.74151l0.9374-0.10566 0.9374-0.10565-0.1183 5.6694c-0.18086 8.6682 0.1537 17.561 0.99501 26.448 0.32736 3.458 0.3273 3.9875-1e-3 9.7697-1.3445 23.667-1.7458 33.082-1.5929 37.369 0.056 1.569 0.0359 3.9938-0.0445 5.3885l-0.14625 2.5358-1.0373-0.031c-0.57049-0.0171-3.6288-0.16611-6.7961-0.33123z" fill="url(#k)"/><path d="m203.85 110.12c-6.7625-1.9831-9.2007-2.9951-18.363-5.6534-4.9355-1.4319-9.0777-2.7051-9.2048-2.8293-0.32163-0.31405-13.985-21.951-13.91-22.027 0.0337-0.03372 5.2803 1.5771 11.659 3.5796 6.3788 2.0025 12.591 3.7188 13.806 4.096 1.2143 0.37725 2.947 0.99135 3.8474 1.2805l1.6838 0.54063 1.2573 1.8612c0.65938 1.0222 1.375 2.0242 1.465 2.1953 0.09 0.17108 0.80358 1.3943 1.6799 2.6869l1.5984 2.5617-0.68749 0.06229c-1.2448 0.09649-3.324-0.91666-6.082-3.013-1.8016-1.3694-2.0194-1.4827-2.3203-1.233 0 0-0.10893 0.51162 0.43203 1.6404 1.1739 2.4496 3.8097 5.5974 6.0334 7.2763l0.82043 0.64071 1.5897-0.22622c1.0044-0.14292 2.4322-0.36337 2.6464-0.38524 0.35426-0.0362 0.60972 0.33147 3.3424 3.809 1.6523 2.1027 3.4194 4.3545 3.3939 4.377-0.0255 0.0225-2.5722-0.62051-4.6874-1.2408z" fill="url(#ad)"/><path d="m184.62 86.363-0.87238-0.27688 0.60217-1.0567c0.74264-1.3032 0.70016-1.6073 0.64175-2.4113-0.0377-0.51909 0.28782-1.4591-0.10533-1.6879-0.49855-0.29015-1.3158 0.22593-1.899 0.37229-0.57346 0.14393-1.4772 0.5353-1.4556 2.4121 0.013 1.1277-0.0259 1.5048-0.1474 1.4303 0 0-1.3129 0.481-2.1003-0.16144-1.511-1.2327-1.7385-3.0797-2.3264-3.9687-0.35389-0.53513-0.35554-0.55157-0.15241-1.5216 0.27995-1.3369 0.70659-2.1626 1.5595-3.0181 1.167-1.1706 2.4875-1.4776 5.276-1.2267 1.3157 0.1184 1.8301 0.24315 3.2093 0.77843 0.90337 0.35059 2.1129 0.87435 2.6879 1.1639l1.0454 0.52647-0.0967 0.87978c-0.21443 1.9504-0.88792 3.7412-1.9832 5.2735-0.85073 1.1901-2.4484 2.8028-2.7583 2.7844-0.13899-0.0083-0.64527-0.13963-1.1251-0.29191z" fill="url(#z)"/><path d="m198.43 73.086c-0.33258-0.28607-0.38955-0.44157-0.37838-1.0327 0.0196-1.0353 0.54932-2.3087 1.221-2.935 0.53606-0.49986 0.59126-0.63127 0.97359-2.318 1.4716-6.4926 3.7548-12.489 6.4987-17.067 0.34285-0.57206 0.5616-0.80313 0.70736-0.74719 0.11606 0.04454 0.36531 0.1197 0.55388 0.16703 0.18858 0.04733 0.34287 0.11158 0.34287 0.14278 0 0.0312-0.42805 0.80944-0.95121 1.7294-2.8298 4.9761-5.0629 10.826-6.3182 16.55-0.25743 1.1739-0.25734 1.2226 3e-3 1.9965 0.21702 0.64421 0.24539 0.96949 0.15095 1.731-0.064 0.51573-0.18739 1.0705-0.27429 1.2329-0.48488 0.90601-1.7868 1.1892-2.5296 0.55029z" fill="url(#j)"/><path d="m207.6 95.525c-1.6671-1.4176-3.3143-2.2779-4.6749-2.4955-0.51781-0.0828-0.81156-0.01032-0.74927-0.27016 0.0396-0.16534 1.3747-6.9527 2.9808-14.696l2.9274-14.113-0.45152-1.0185-0.31955-1.6828 1.6138-2.0553c1.6883-2.1502 2.0691-2.8992 2.0691-2.3417 0 0.77081 0.28103 2.4943 0.7145 4.0558l0.36614 1.2933-0.93459 1.1749-0.80633 0.91842-0.44017 15.71c-0.24229 8.6475-1.0218 16.595-1.0431 16.735-0.0312 0.20714-0.56108-0.62665-1.2523-1.2144z" fill="url(#ac)"/><path d="m222.6 67.237c-0.24723-0.29789-1.0716-0.54605-2.1298-0.64114l-0.91014-0.08178 1.3335-1.543c0.73344-0.84867 1.3496-1.4896 1.3694-1.4244 0.0897 0.29698 0.59804 3.8133 0.55716 3.8542-0.0253 0.02529-0.12435-0.04843-0.22012-0.16382z" fill="url(#ae)"/><path d="m211.2 89.534c0.0886-3.2359 0.81598-5.7887 1.4998-7.9959l0.53181-1.207 0.2403 0.78341c0.2638 0.85998 0.77581 1.9274 0.98721 2.058 0.0741 0.04578-0.14548 0.61098-0.48788 1.256-0.77167 1.4537-1.5217 3.1794-2.1501 4.9474l-0.481 1.3532z" fill="url(#ag)"/><path d="m210.21 55.613c-0.4038-0.62948-0.8914-1.5622-1.0836-2.0728-0.41919-1.1137-0.67229-2.7495-0.55078-3.5598l0.1721-0.70929 0.76768 0.1291c0.48241 0.10354 1.5945 0.13921 2.44 0.14197 3.8244 0.01245 6.1769-1.0326 9.6267-4.4595 1.3744-1.3653 1.5512-1.9254 1.6159-1.6667 0.11502 0.45976 0.82301 4.0466 0.82301 4.4925 0 0.30748-0.34435 0.75756-1.5552 2.0328-3.4784 3.6633-6.6466 5.7926-9.7126 6.5276-1.7774 0.42608-1.7054 0.45033-2.5433-0.85591z" fill="url(#an)"/><path d="m206.54 59.962c0.11029-3.0563 0.54606-4.7336 1.6949-6.5239l0.5403-1.1944 0.36179 1.2428c0.22742 0.6458 0.82793 1.5466 1.7142 2.935 0.24056 0.37682-0.0336 0.4542-1.0109 1.7818-1.1576 1.5725-2.6095 3.3524-3.0612 3.7528l-0.32138 0.28488z" fill="url(#aa)"/><path d="m201.1 92.313c-0.27498-0.11134-0.14155-0.31606-0.0404-1.3643-0.0494-0.25244 0.59919-3.307 0.80058-6.5581 0.5447-8.793 0.49375-12.131 1.1505-16.061 0.404-2.4173 1.4655-5.9338 2.2139-8.1686 0.60728-1.8133 2.2756-5.8807 2.0963-5.1193-0.16742 0.7111-0.89651 7.1772-0.89651 7.1772 0.0351 0.07366 0.31508-0.30302 0.54108-0.58475l0.4109-0.56661 0.37646 1.6227 0.32206 1.26-2.9269 14.364c-1.6098 7.9001-2.9269 14.589-2.9269 14.621 0 0.09125-0.79935-0.07547-1.1211-0.20574z" fill="url(#ap)"/><path d="m199.73 65.769c-0.17133-2.5874-0.43518-2.6778 0.46756-3.1006 0.37185-0.27544 1.1833-0.997 1.2019-0.9784 0.0186 0.01861-0.45346 1.6772-0.79253 3.0294l-0.85357 3.5262z" fill="url(#ah)"/><path d="m201.08 90.373c-0.0562-0.19585-0.23577-4.0957-0.47574-8.6664-0.43629-8.3096-0.65289-8.1652-0.21511-8.3291 0.38392-0.23361 1.0403-1.3144 1.1815-2.2545 0.0709-0.47181-0.12183-0.90326-0.32388-1.5031-0.27923-0.82889-0.27952-0.85915-0.0196-2.0446 0.70118-3.1974 1.4433-6.1817 2.7035-9.3222 0.89927-2.2411 2.7364-6.0852 3.7466-7.7797l0.61841-1.3111 0.4579 0.10882c-0.0476 0.35253-0.14738 1.843-0.0661 2.3444 0.14646 0.9033 0.0832 0.96434-0.41115 1.7652-0.94611 1.5328-2.8561 5.9898-3.7479 9.1456-1.4386 5.0909-1.7346 9.5147-2.5422 20.657-0.27241 3.7582-0.51782 6.9934-0.54534 7.1893l-0.36322 0.95461z" fill="url(#aj)"/><path d="m201.56 60.995c-0.0575-0.15668-0.4655-1.2373-0.56306-1.4813-0.17116-0.42826 0.0608-0.36092 1.376-2.5774 0.7496-1.2633 1.7385-3.0004 1.7654-2.6924 0.0269 0.02687-0.19982 1.0581-0.44832 1.6377s-0.95641 1.9554-1.3293 3.013c-0.50868 1.4427-0.72225 2.3143-0.80071 2.1005z" fill="url(#ai)"/><path d="m220.53 39.126c-0.33631-0.51327-0.84912-1.484-1.3963-2.9578-1.085-2.9224-1.9259-4.5488-2.6859-4.8636-0.24168-0.10011-0.56894-0.05964-2.0934 0.25885-1.7222 0.3598-1.899 0.37772-3.7709 0.38198-2.1636 0.0049-2.7236-0.08334-3.4497-0.54382-0.61879-0.39242-1.009-1.0416-1.4771-2.4575-0.39329-1.1896-0.40201-1.2458-0.3073-1.9771 0.19999-1.5442 0.76926-3.058 1.5498-4.1213 1.3505-1.8398 3.7372-3.1766 7.0295-3.9374 0.9373-0.21659 0.9849-0.21789 2.3228-0.06351 2.9667 0.34232 5.1177 1.0165 6.8771 2.1555 2.2578 1.4616 3.9735 4.2297 3.9723 6.4087-1e-3 1.9392-0.33466 5.93-0.66785 7.9905l-0.24389 1.0324-0.43707 0.0022c-0.81793 0.0041-1.5153 0.38424-3.032 1.6554-0.79269 0.66433-1.7028 1.2605-1.9273 1.2623-0.0629 5.03e-4 -0.18116-0.10108-0.26287-0.22578z" fill="url(#w)"/></g><g transform="matrix(.29465 -.093841 -.25784 .37187 354.64 70.379)"><circle cx="84.037" cy="179.95" r="34.648" fill="none"/><path d="m61.61 193.43h11.15l0.37798-17.576c0.03792-1.7633 4.8315-1.1425 4.8192 0l-0.18899 17.481 11.623 0.0945v-17.198c0-1.9409 4.5357-1.2166 4.5357 0v17.765h10.961s0.28478-17.702 0.0945-22.112c-0.23106-5.3551-8.0652-12.696-16.536-3.8742-4.4724-5.3152-10.649-6.1654-16.631 0.0945v-2.8348h-10.016z" fill="#fff" fill-opacity=".99052"/><path d="m97.724 173.61v3.1689h2.3117l0.0334-3.063h2.8129l-0.0334-1.7944-2.8243-0.0334 0.0334-3.0677-2.2841-0.0334-0.06682 3.0238-3.0238-0.0334v1.844z" fill="#5379b1"/></g></g><g transform="translate(-59.669 16.642)" opacity=".291"><g transform="matrix(-1.3614 0 0 1.3614 581.23 .017781)" fill="url(#au)" fill-rule="evenodd" filter="url(#be)"><path d="m210.81 49.617c-0.52626-0.04663-1.2061-0.14344-1.5108-0.21514l-0.55396-0.13036 0.0296-0.39955c0.0163-0.21975 0.0389-1.376 0.0504-2.5695 0.0246-2.5669 1e-3 -2.6448-0.81577-2.7532-0.32941-0.0437-0.59169-0.15324-0.77608-0.32413-0.26697-0.24741-0.27621-0.28808-0.22278-0.98024 0.0682-0.88381 0.31241-1.4698 1.0526-2.5262 0.63752-0.90981 0.66147-1.0585 0.32718-2.0301-0.25436-0.73932-0.75233-1.6264-1.3952-2.4854-0.68278-0.91232-0.71592-0.98536-0.78558-1.7312-0.0506-0.54208 0.18581-2.3897 0.32759-2.56 0.0162-0.01944 0.18282 0.08165 0.3703 0.22464 0.5235 0.39929 1.0741 0.54897 2.475 0.67283 1.5543 0.13743 2.7735 0.03595 5.0708-0.4221 0.9924-0.19787 1.6832-0.28844 1.8606-0.24392 0.72476 0.1819 1.5 1.5428 2.7568 4.8398 0.81816 2.1463 0.98512 2.5096 1.3558 2.95 0.22525 0.2677 0.29746 0.29686 0.5533 0.22348 0.37204-0.1067 0.89975-0.47304 2.1685-1.5054 1.1149-0.90715 1.7987-1.2882 2.5331-1.4114l0.48844-0.08196-0.46819-0.01185c-0.6473-0.01638-1.3688 0.38323-2.8387 1.5723-1.181 0.95533-1.7749 1.3367-2.0816 1.3367-0.27148 0-0.76686-0.97488-1.6122-3.1726-0.9798-2.5474-1.4931-3.6149-2.0334-4.2287-0.70639-0.8025-0.70635-0.8025-2.7132-0.39397-2.009 0.40897-4.1434 0.54374-5.6552 0.3571-1.873-0.23122-2.431-0.76873-3.1937-3.0766-0.29971-0.90685-0.32353-1.0678-0.26386-1.7834 0.15072-1.8073 0.9387-3.6358 2.1049-4.8846 1.4275-1.5285 3.1608-2.4604 5.8951-3.1692 1.2312-0.31917 1.8776-0.3575 3.244-0.19233 5.5243 0.66778 8.9758 2.992 10.322 6.951 0.28898 0.84965 0.31331 1.5514 0.14654 4.2263-0.43365 6.9555-1.5326 10.826-3.9531 13.925-1.3127 1.6802-3.9742 3.9557-5.6119 4.7982-1.9123 0.98368-4.2891 1.4148-6.6474 1.2059z" opacity="1"/><path d="m208.6 105.17c0.0103-0.7479 0.30717-8.6405 0.32566-8.6571 0.0468-0.0421 4.2186-0.3458 6.8493-0.49862 6.7226-0.39053 7.9109-0.46504 9.7446-0.61099 3.7403-0.29773 4.752-0.58315 5.0189-1.4159 0.26685-0.83284 0.32581-2.7174 0.19496-6.2316-0.0701-1.8834-0.12678-5.9626-0.12589-9.0647 2e-3 -5.855 0.0605-6.9711 0.51209-9.7194 0.67846-4.1288 2.0295-6.884 3.9791-8.1147 0.80382-0.50743 1.453-0.67376 2.6793-0.68649l1.1289-0.01172 0.56504 0.55395c0.72714 0.71287 1.1506 1.4758 1.6503 2.9732 1.737 5.2051 1.8831 16.065 0.35032 26.034-1.0779 7.01-2.7728 11.672-4.5783 12.593-2.0663 1.0542-10.016 2.0176-21.95 2.6601-4.365 0.235-6.3454 0.29649-6.344 0.19697z" opacity="1"/><path d="m208.9 96.137c3e-3 -0.12464 0.35608-7.3236 0.78539-15.998l0.78057-15.771 0.7432-0.8728c0.40875-0.48004 0.76917-0.87249 0.80093-0.8721 0.0317 4.03e-4 0.21302 0.3879 0.40281 0.86113s0.38218 0.88336 0.42753 0.91138c0.0993 0.06137 2.791-1.9726 4.5836-3.4636 0.71018-0.5907 1.9371-1.7176 2.7265-2.5042s1.4352-1.4118 1.4352-1.3892c0 0.10194-1.059 2.6799-1.717 4.1798-1.3106 2.9875-3.5734 7.5794-4.2157 8.5551-0.90763 1.3787-2.207 4.0527-2.3284 4.7914-0.2088 1.2712-0.29423 3.1424-0.19506 4.2724l0.0988 1.1257-0.44949 1.396c-0.89631 2.7835-1.2196 4.843-1.715 10.925-0.13987 1.7173-0.27603 3.2469-0.30258 3.3993-0.0266 0.15234-4e-3 0.27698 0.0499 0.27698 0.054 0 0.10015-0.12464 0.10254-0.27698 2e-3 -0.15234 0.0869-1.1608 0.18776-2.241 0.15829-1.6949 0.23491-2.1227 0.55918-3.1223 0.61219-1.8871 1.3341-3.6406 2.206-5.3586 0.75736-1.4922 0.84641-1.6236 1.1721-1.7289 0.44391-0.14347 1.0072-0.93893 1.0072-1.4223 0-0.38767-0.144-0.5253-0.83995-0.80272-0.59622-0.23768-0.70569-0.41059-0.94291-1.4893-0.38101-1.7326-0.12876-4.1705 0.6377-6.1631 0.95204-2.4752 3.0138-5.0893 4.3558-5.5227 1.3148-0.42464 2.6218 0.02551 3.1316 1.0786l0.219 0.45239-0.5939 0.78415c-1.9916 2.6295-3.8328 5.6698-5.4753 9.041-0.48526 0.99596-0.85626 1.8344-0.82444 1.8633 0.0318 0.02885 0.0745 0.0071 0.0948-0.04826 0.17762-0.48441 2.0832-4.2129 2.7025-5.2877 1.586-2.7527 3.9494-6.1756 4.0902-5.9239 0.46476 0.83047 0.44925 11.148-0.0194 12.91-0.24395 0.91688-1.009 1.1269-1.8597 0.51062-0.27288-0.19771-0.60109-0.40167-0.72935-0.45325-0.78602-0.31607-1.3772 1.2749-0.79236 2.1324l0.23342 0.34223 0.79895-0.02345c2.3237-0.06821 3.5371-0.92764 3.9146-2.7726 0.58593-2.8639 0.28154-12.45-0.59556-18.756l-0.13982-1.0052 0.33631-1.1099c0.42853-1.4142 0.81347-3.3164 1.0606-5.2411 0.15846-1.2341 0.70481-7.6306 0.70481-8.2516 0-0.22624 1.2705 0.65072 2.2308 1.5398l0.70955 0.65694-0.0697 0.66139c-0.19301 1.8321-0.92815 5.3731-1.7124 8.248-0.53931 1.9771-1.362 4.6541-1.4789 4.812-0.0452 0.06101-0.37872 0.19122-0.74127 0.28936-0.36255 0.09814-0.63518 0.20243-0.60585 0.23175 0.0799 0.07994 1.3435-0.28202 1.4505-0.41553 0.17221-0.21477 1.2373-3.8244 1.8767-6.3604 0.62889-2.4942 1.0438-4.5388 1.2778-6.2961 0.0666-0.50041 0.14974-0.8975 0.18471-0.88241 0.035 0.01508 2.3119 2.135 5.0599 4.7109l4.9963 4.6834-1.0748 0.06391c-1.1688 0.06951-1.4221 0.12947-2.1896 0.51837-2.7347 1.3858-4.2623 5.0742-4.8271 11.655-0.24703 2.8783-0.28748 5.946-0.14011 10.626 0.0768 2.4374 0.13956 5.7913 0.13956 7.4532 0 3.496-0.0533 3.8459-0.64507 4.2331-0.75973 0.49705-3.0626 0.74182-11.34 1.2054-4.1237 0.23091-7.4165 0.44555-8.5466 0.55709-0.54598 0.05389-1.0332 0.09798-1.0827 0.09798-0.0495 0-0.0879-0.10198-0.0852-0.22662z" opacity="1"/><path d="m219.33 84.892c-0.12103-0.13445-0.2091-0.41183-0.23559-0.74194-0.0347-0.43242 6.3e-4 -0.5906 0.19653-0.87973 0.32965-0.48654 0.63002-0.50008 1.2134-0.05467 0.82721 0.63162 1.275 0.67517 1.8116 0.17616 0.33858-0.3149 0.44696-0.63716 0.58283-1.733 0.17271-1.393 0.24134-7.2729 0.10915-9.3511-0.19838-3.1186-0.42909-3.8503-1.3924-4.4166-0.43097-0.25333-0.5744-0.28245-1.3871-0.28162-0.78416 8.06e-4 -0.97475 0.03685-1.4125 0.26714-1.0306 0.54222-2.9173 2.8818-3.6795 4.5628-0.84565 1.865-1.2672 3.874-1.1722 5.5864 0.0585 1.0541 0.36727 2.5284 0.58429 2.7899 0.0618 0.07451 0.38004 0.23304 0.70711 0.3523 0.45459 0.16575 0.60911 0.2743 0.65592 0.46078 0.12504 0.49822-0.59344 1.5408-1.0618 1.5408-0.53755 0-1.1927-1.477-1.4743-3.3237-0.28426-1.8643-0.13055-4.8354 0.31111-6.0132 1.1041-2.9444 4.1554-7.314 7.7318-11.072l0.85104-0.8943 0.50922-1.8122c1.5424-5.4891 1.8892-8.4481 1.4344-12.237-0.10309-0.85863-0.17912-1.5702-0.16895-1.5814 0.0102-0.01112 0.32127 0.33763 0.69135 0.77501l0.67286 0.79522-0.24891 3.2538c-0.4353 5.69-0.72848 7.6659-1.5679 10.567l-0.3093 1.0691 0.20763 1.5999c0.55722 4.2936 0.76149 7.7007 0.76015 12.679-1e-3 4.7053-0.0728 5.516-0.57208 6.4863-0.48479 0.94205-1.632 1.5145-3.1977 1.5955-0.8828 0.04571-0.97179 0.03293-1.1501-0.16519zm3.3664-19.597c-0.17076-1.1047-0.33263-2.0307-0.35971-2.0578-0.0271-0.02708-0.13184 0.03889-0.23281 0.1466-0.43071 0.45951-2.8324 3.2553-2.8324 3.2972 0 0.02526 0.50989 0.06801 1.1331 0.095 1.2512 0.05419 1.8434 0.24262 2.2914 0.729l0.2518 0.27341 0.0296-0.23748c0.0163-0.13062-0.11013-1.1413-0.28089-2.246z" opacity="1"/><path d="m217.06 67.623c0-0.03835 0.48152-1.077 1.07-2.3081 1.264-2.6442 2.3273-5.0409 3.2002-7.2136 0.42215-1.0507 0.82443-1.8591 1.2089-2.4293 1.2565-1.8634 1.5654-2.8928 1.5835-5.2771 0.0106-1.4059 0.0249-1.5405 0.10768-1.0163 0.11548 0.73146 0.03 2.9494-0.16715 4.3371-0.26506 1.8657-0.72105 3.8888-1.4855 6.5909l-0.41317 1.4604-1.0199 1.1079c-1.4583 1.5841-2.2247 2.4715-3.1748 3.6762-0.97843 1.2406-0.9097 1.1596-0.9097 1.0717z" opacity="1"/><path d="m212.44 63.202c-0.7898-1.9998-1.2487-3.8081-1.3875-5.4674l-0.0677-0.80915 0.89239-0.12829c3.4535-0.49646 7.4308-3.1171 11.412-7.5196l0.72871-0.80575-0.0407 1.964c-0.0378 1.8232-0.0606 2.0218-0.3181 2.7698-0.58281 1.6931-1.5877 3.1117-3.6772 5.1911-0.80941 0.8055-2.0849 1.9715-2.8344 2.591-1.5241 1.2598-4.1095 3.2465-4.225 3.2465-0.0413 0-0.25859-0.46457-0.48284-1.0324z" opacity="1"/><path d="m195.52 90.747-1.3759-0.48777-0.38668-0.57576-0.38668-0.57576-3.6007-1.1248c-1.9804-0.61866-3.6323-1.1363-3.671-1.1503-0.0458-0.01659 0.23499-0.33596 0.80724-0.9181 0.9822-0.99919 1.383-1.4783 1.9546-2.3369 0.4592-0.68968 0.77115-1.2785 1.0546-1.9907 0.35733-0.89792 0.65208-2.1905 0.7383-3.2377 0.0194-0.23543 0.0494-0.45331 0.0668-0.48418 0.0352-0.06267 1.1298 0.55165 2.197 1.2329 1.251 0.79867 2.8322 1.9838 3.969 2.9751l0.42999 0.3749 0.036 0.43086c0.0465 0.55658-7e-3 1.909-0.12904 3.2762-0.10437 1.1666-0.17715 2.4477-0.23101 4.0665-0.0187 0.56088-0.048 1.0183-0.0653 1.0165-0.0172-0.0018-0.65051-0.22273-1.4073-0.491z" opacity="1"/><path d="m195.12 91.761c-0.43918-0.67743-0.78571-1.2445-0.77007-1.2601 0.0156-0.01564 0.59069 0.17057 1.2779 0.41378l1.2495 0.44222 0.0543 0.54092c0.0519 0.51768 0.0571 0.52578 0.12095 0.18841 0.0367-0.19388 0.0898-1.327 0.11799-2.518 0.0282-1.191 0.10417-2.7093 0.1688-3.3741 0.2516-2.5879-0.0782-10.025-0.60299-13.597-0.44771-3.0477-0.54939-4.5766-0.48449-7.2851 0.0986-4.1164 0.79427-7.5061 2.3215-11.312 0.58332-1.4537 1.9317-4.2547 2.1191-4.4021 0.11929-0.09382 1.6475-0.60141 2.5804-0.85708 1.5713-0.43062 3.3237-0.60537 3.3237-0.33144 0 0.07468 0.18006 0.21698 0.40013 0.31622 0.22008 0.09924 0.37726 0.21745 0.34929 0.2627-0.028 0.04524-0.10604 0.06129-0.17351 0.03566-0.14142-0.05372-0.33616 0.24607-1.5081 2.3216-0.46919 0.83093-1.7168 2.9671-2.7724 4.7471l-1.9193 3.2363 0.24591 0.67748c0.13525 0.37261 0.28914 0.75825 0.34197 0.85697 0.0656 0.12247 0.0473 0.31897-0.0574 0.61857-0.1301 0.3723-0.28406 0.531-1.0122 1.0434l-0.85876 0.60431 0.0685 1.6619c0.0377 0.91402 0.0996 1.9343 0.13754 2.2673 0.10948 0.95998-9e-3 1.2969-0.72151 2.0584-1.2257 1.3093-1.6193 3.2671-0.81796 4.0684 0.30303 0.30303 0.75495 0.41236 1.4346 0.34706l0.47799-0.04593 0.4548 9.5264c0.25014 5.2395 0.45175 9.5332 0.44801 9.5414-4e-3 0.0083-0.32406-0.04672-0.71183-0.1222-1.3984-0.27219-3.0294-0.12518-3.9776 0.35853-0.21763 0.11103-0.4206 0.20187-0.45104 0.20187-0.0304 0-0.41467-0.55426-0.85385-1.2317z" opacity="1"/><path d="m207.57 48.832c-0.43543-0.1901-0.8039-0.3595-0.81882-0.37647-0.0494-0.05617-0.6449-3.4358-0.80406-4.5632-0.45552-3.2268-0.51248-4.3567-0.59919-11.885l-0.0441-3.8273 0.27758 0.81732c0.15266 0.44953 0.40131 1.0285 0.55256 1.2866l0.27499 0.46924-0.1689 0.8789c-0.18967 0.98695-0.21654 2.1531-0.0589 2.5579 0.0576 0.1479 0.36782 0.62396 0.6894 1.0579 0.89153 1.203 1.6422 2.7816 1.6422 3.4532 0 0.08841-0.22816 0.47676-0.50703 0.86301-0.88478 1.2255-1.2674 2.3261-1.1185 3.217 0.0809 0.48407 0.50784 0.8153 1.181 0.91624 0.24591 0.03687 0.47216 0.1076 0.50279 0.15716 0.0306 0.04956 0.0973 0.6376 0.14805 1.3067 0.11749 1.5479-0.0627 4.0219-0.29268 4.0175-0.0355-7.05e-4 -0.42088-0.15676-0.85632-0.34686z" opacity="1"/><path d="m198.4 96.796c-0.53315-0.81577-0.96937-1.5093-0.96937-1.5413 0-0.14028 1.132-0.55832 1.5337-0.56638 0.52099-0.01046 0.83771 0.14215 1.5879 0.7651 0.30428 0.25268 0.59662 0.45942 0.64964 0.45942 0.12484 0 0.0508-0.07-0.73691-0.69703-1.0145-0.8075-1.5094-0.875-2.6209-0.35746-0.29888 0.13917-0.55362 0.24073-0.56608 0.2257-0.0125-0.01503-0.29805-0.45761-0.63462-0.98352-0.70416-1.1003-0.73575-1.0074 0.48512-1.4268 0.93413-0.3209 2.2903-0.3154 3.864 0.01566l1.195 0.25137-0.0442 0.76353c-0.0701 1.2105-0.62949 2.2171-2.1787 3.9205l-0.59518 0.65439z" opacity="1"/><path d="m197.43 133.91c-2.5754-1.589-3.8081-2.5623-4.9418-3.9019l-0.42334-0.50018 0.0623-0.85953c0.34017-4.696 0.55045-6.9288 0.9821-10.428 0.3093-2.5073 1.4868-10.847 1.5388-10.899 0.0163-0.0163 1.3174 0.34587 2.8914 0.80479l2.8618 0.83439 0.0328 1.004c0.042 1.286-0.1487 7.9858-0.33684 11.831-0.26469 5.4105-0.65515 12.229-0.73008 12.75l-0.0738 0.51311z" opacity="1"/><path d="m208.19 103.81c-1.6072-0.80643-4.2176-0.93849-8.1253-0.41106-0.52486 0.0708-1.3648 0.19979-2.1539 0.33066l-0.34572 0.0573-0.28377-0.19341c-1.9844-1.3524-4.4756-4.1202-6.0113-6.6785-0.34549-0.57554-0.74798-1.3917-0.88335-1.7913-0.10335-0.30507-0.10976-0.34024-0.11088-0.609l-1e-3 -0.28524 0.0822-0.07357c0.0687-0.0615 0.10385-0.07356 0.21402-0.0735 0.24409 1.44e-4 0.58847 0.21328 1.567 0.96988 2.0437 1.5801 2.8589 2.1383 3.8801 2.6569 1.0134 0.51467 1.8609 0.75464 2.6635 0.75421 0.19561-1.01e-4 0.4293-0.01145 0.51932-0.0252l0.16367-0.02501 0.33454-0.3462c1.1878-1.2291 1.7643-1.9706 2.1712-2.792 0.31632-0.63863 0.45802-1.2312 0.45916-1.92l6.8e-4 -0.41266 0.31756 0.01682c0.61475 0.03257 0.97635 0.1209 1.4507 0.35437 0.15234 0.07499 0.41295 0.18947 0.57913 0.25441 0.99134 0.38738 2.0135 1.0731 3.3741 2.2636 0.24928 0.21811 0.51186 0.45183 0.58352 0.51938l0.13029 0.12282-0.12351 3.7318c-0.0679 2.0525-0.12656 3.7387-0.13029 3.7471-4e-3 8e-3 -0.14837-0.0557-0.32143-0.14257z" opacity="1"/><path d="m220.87 205.67c-4e-3 -1.5839-2.0111-31.847-2.5349-38.227l-0.31424-3.8273-1.3766-4.1295c-1.4599-4.3794-2.6766-8.4746-3.5012-11.784-0.62245-2.4983-1.4231-6.5304-1.3162-6.6287 0.0437-0.0402 0.66869 0.0207 1.3888 0.13539 1.929 0.30713 10.465 0.30174 12.288-8e-3 2.1885-0.37155 4.6218-0.9994 6.0644-1.5648 0.69144-0.27097 1.3095-0.44057 1.3734-0.37689 0.23767 0.23682 0.25472 7.8354 0.0309 13.781-0.35272 9.3704-0.35438 9.2855 0.23257 11.885 0.90881 4.0247 1.0556 5.7283 1.0586 12.288 2e-3 4.2559-0.13724 8.2485-0.45288 12.993-0.2506 3.7669-0.52255 8.2522-0.60431 9.9673l-0.14866 3.1184-5.5424 1.1284c-3.0483 0.62063-5.7904 1.1906-6.0935 1.2667-0.30309 0.0761-0.55126 0.0686-0.55149-0.0166z" opacity="1"/><path d="m215.03 141.15c-0.94173-0.0964-2.0838-0.22956-2.538-0.29599l-0.82575-0.12078-0.34006-3.6684c-0.18704-2.0176-0.4334-4.7562-0.54746-6.0857-0.23037-2.685-0.49826-24.386-0.31028-25.135 0.11834-0.4715 0.1469-0.47587 4.7072-0.71975 5.7528-0.30765 11.213-0.75592 14.861-1.2202 1.5511-0.19734 2.8438-0.34161 2.8727-0.3206 0.0289 0.021 0.32523 2.4771 0.65848 5.458 1.2093 10.817 2.6085 21.25 3.4118 25.44 0.3428 1.788 0.31541 1.8651-0.952 2.6814-2.7016 1.7401-6.3088 3.0756-10.014 3.7074-2.1502 0.36665-8.544 0.52952-10.984 0.2798z" opacity="1"/><path d="m201.52 192.16-5.7589-0.30023-0.1304-11.1c-0.2138-18.2-0.66786-30.705-1.2332-33.964-0.65235-3.7598-1.3462-13.77-1.0393-14.993l0.13346-0.53176 0.95118 0.79493c1.0542 0.881 4.8826 3.312 5.0121 3.1826 0.15675-0.15675 0.88256-13.964 1.0476-19.929 0.0912-3.297 0.20905-6.0377 0.26186-6.0905 0.0528-0.0528 1.7663 0.39416 3.8077 0.99326 2.0414 0.5991 3.738 1.0629 3.7703 1.0306 0.0323-0.0322-1.3043-1.7917-2.97-3.91s-3.0287-3.9092-3.0287-3.9799c0-0.26864 4.5341 0.0601 5.2877 0.38333 0.67741 0.29058 0.7554 0.40059 0.7554 1.0655v0.74151l0.9374-0.10566 0.9374-0.10565-0.1183 5.6694c-0.18086 8.6682 0.1537 17.561 0.99501 26.448 0.32736 3.458 0.3273 3.9875-1e-3 9.7697-1.3445 23.667-1.7458 33.082-1.5929 37.369 0.056 1.569 0.0359 3.9938-0.0445 5.3885l-0.14625 2.5358-1.0373-0.031c-0.57049-0.0171-3.6288-0.16611-6.7961-0.33123z" opacity="1"/><path d="m204.01 109.86c-6.7625-1.9831-9.3546-2.7386-18.517-5.3969-4.9355-1.4319-9.0777-2.7051-9.2048-2.8293-0.32163-0.31405-13.985-21.951-13.91-22.027 0.0337-0.03372 5.2803 1.5771 11.659 3.5796 6.3788 2.0025 12.591 3.9496 13.806 4.3269 1.2143 0.37725 2.9456 0.91882 3.8474 1.2035l1.6396 0.51761 1.1989 1.8586c0.65938 1.0222 1.2725 1.9986 1.3624 2.1697 0.09 0.17108 0.88052 1.3687 1.7568 2.6613l1.5933 2.3502-0.55415 0.04295c-1.2448 0.09649-3.2214-0.89101-5.9794-2.9873-1.8016-1.3694-2.0671-1.5107-2.368-1.261-0.32972 0.27365-0.26648 0.69353 0.27448 1.8223 1.1739 2.4496 3.9123 5.777 6.136 7.4559l0.76878 0.58043 1.8209-0.29418c1.0015-0.1618 1.9962-0.31207 2.2104-0.33394 0.35426-0.0362 0.66102 0.30582 3.3937 3.7834 1.6523 2.1027 2.9834 3.8416 2.9578 3.864-0.0255 0.0225-1.777-0.46661-3.8922-1.0869z" opacity="1"/><path d="m184.62 86.363-0.87238-0.27688 0.60217-1.0567c0.74264-1.3032 0.70016-1.6073 0.64175-2.4113-0.0377-0.51909 0.28782-1.4591-0.10533-1.6879-0.49855-0.29015-1.3158 0.22593-1.899 0.37229-0.57346 0.14393-1.4772 0.5353-1.4556 2.4121 0.013 1.1277-0.0259 1.5048-0.1474 1.4303-0.0907-0.05571-1.3129 0.481-2.1003-0.16144-1.511-1.2327-1.7385-3.0797-2.3264-3.9687-0.35389-0.53513-0.35554-0.55157-0.15241-1.5216 0.27995-1.3369 0.70659-2.1626 1.5595-3.0181 1.167-1.1706 2.4875-1.4776 5.276-1.2267 1.3157 0.1184 1.8301 0.24315 3.2093 0.77843 0.90337 0.35059 2.1129 0.87435 2.6879 1.1639l1.0454 0.52647-0.0967 0.87978c-0.21443 1.9504-0.88792 3.7412-1.9832 5.2735-0.85073 1.1901-2.4484 2.8028-2.7583 2.7844-0.13899-0.0083-0.64527-0.13963-1.1251-0.29191z" opacity="1"/><path d="m198.43 73.086c-0.33258-0.28607-0.38955-0.44157-0.37838-1.0327 0.0196-1.0353 0.54932-2.3087 1.221-2.935 0.53606-0.49986 0.59126-0.63127 0.97359-2.318 1.4716-6.4926 3.7548-12.489 6.4987-17.067 0.34285-0.57206 0.5616-0.80313 0.70736-0.74719 0.11606 0.04454 0.36531 0.1197 0.55388 0.16703 0.18858 0.04733 0.34287 0.11158 0.34287 0.14278 0 0.0312-0.42805 0.80944-0.95121 1.7294-2.8298 4.9761-5.0629 10.826-6.3182 16.55-0.25743 1.1739-0.25734 1.2226 3e-3 1.9965 0.21702 0.64421 0.24539 0.96949 0.15095 1.731-0.064 0.51573-0.18739 1.0705-0.27429 1.2329-0.48488 0.90601-1.7868 1.1892-2.5296 0.55029z" opacity="1"/><path d="m207.85 95.5c-1.6671-1.4176-3.5451-2.4318-4.9057-2.6494-0.51781-0.0828-0.58928-0.13656-0.52699-0.3964 0.0396-0.16534 1.3618-6.6408 2.938-14.39l2.866-14.089-0.31317-1.2991-0.31318-1.2991 1.6587-2.1826c1.6542-2.1766 1.6587-2.181 1.6587-1.6235 0 0.77081 0.22973 2.0069 0.6632 3.5684l0.36614 1.319-0.80634 0.91843-0.80633 0.91842-0.77361 15.71c-0.42548 8.6404-0.79098 15.825-0.81223 15.966-0.0312 0.20714-0.20199 0.11718-0.89325-0.47062z" opacity="1"/><path d="m222.6 67.237c-0.24723-0.29789-1.0716-0.54605-2.1298-0.64114l-0.91014-0.08178 1.3335-1.543c0.73344-0.84867 1.3496-1.4896 1.3694-1.4244 0.0897 0.29698 0.59804 3.8133 0.55716 3.8542-0.0253 0.02529-0.12435-0.04843-0.22012-0.16382z" opacity="1"/><path d="m211.42 89.803c0.28096-3.3385 0.75185-6.0452 1.4357-8.2523l0.37792-1.2198 0.2403 0.78341c0.2638 0.85998 0.77581 1.9274 0.98721 2.058 0.0741 0.04578-0.14548 0.61098-0.48788 1.256-0.77167 1.4537-1.5217 3.1794-2.1501 4.9474l-0.481 1.3532z" opacity="1"/><path d="m210.21 55.613c-0.4038-0.62948-0.8914-1.5622-1.0836-2.0728-0.41919-1.1137-0.67229-2.7495-0.55078-3.5598l0.0883-0.5889 0.87713 0.18826c0.48241 0.10354 1.5689 0.19051 2.4143 0.19326 3.8244 0.01245 6.4334-1.2122 9.8832-4.639 1.3744-1.3653 1.6025-1.5406 1.6672-1.2819 0.11502 0.45976 0.51522 3.6106 0.51522 4.0565 0 0.30748-0.34435 0.75756-1.5552 2.0328-3.4784 3.6633-6.6466 5.7926-9.7126 6.5276-1.7774 0.42608-1.7054 0.45033-2.5433-0.85591z" opacity="1"/><path d="m206.54 59.962c0.11029-3.0563 0.54606-4.7336 1.6949-6.5239l0.44055-0.68654 0.26204 0.74407c0.22742 0.6458 0.75538 1.6101 1.6417 2.9984 0.24056 0.37682 0.23847 0.38165-0.73885 1.7093-1.1576 1.5725-2.6095 3.3524-3.0612 3.7528l-0.32138 0.28488z" opacity="1"/><path d="m201.58 92.657c-0.27498-0.11134-0.28664-0.1891-0.18547-1.2373 0.0594-0.61517 0.27273-3.7785 0.47412-7.0297 0.5447-8.793 0.85648-12.095 1.5132-16.024 0.404-2.4173 1.2841-5.9701 2.0326-8.2049 0.60728-1.8133 1.3324-3.5955 1.1532-2.8341-0.16742 0.7111-0.25224 5.1278-0.0985 5.1278 0.0816 0 0.33322-0.23049 0.55922-0.5122l0.4109-0.5122 0.32205 1.26 0.32206 1.26-2.9269 14.364c-1.6098 7.9001-2.9269 14.39-2.9269 14.422 0 0.09125-0.3278 0.05149-0.64952-0.07878z" opacity="1"/><path d="m199.9 65.778c-0.17133-2.5874-0.18478-2.5161 0.58193-3.0841 0.37185-0.27544 0.69132-0.48557 0.70992-0.46697 0.0186 0.01861-0.24359 1.1402-0.58266 2.4923l-0.6165 2.4585z" opacity="1"/><path d="m201.2 90.373c-0.0488-0.19585-0.25923-4.0957-0.46771-8.6664-0.37903-8.3096-0.37904-8.3103-0.0933-8.5104 0.33353-0.23361 0.68315-1.133 0.80586-2.0731 0.0616-0.47181 5e-3 -0.90326-0.19705-1.5031-0.27923-0.82889-0.27952-0.85915-0.0196-2.0446 0.70118-3.1974 1.6247-6.1817 2.8849-9.3222 0.89927-2.2411 2.7908-6.1396 3.801-7.8341l0.59443-0.99707-0.0865 0.64097c-0.0476 0.35253-0.02 1.0512 0.0613 1.5526 0.14646 0.9033 0.14326 0.919-0.35105 1.7198-0.94611 1.5328-2.711 6.0352-3.6028 9.1909-1.4386 5.0909-2.0219 9.5147-2.7236 20.657-0.23666 3.7582-0.44986 6.9934-0.47377 7.1893l-0.0435 0.3561z" opacity="1"/><path d="m201.58 60.532c-0.0575-0.15668-0.18438-0.48458-0.28194-0.72867-0.17116-0.42826-0.12968-0.52416 1.1856-2.7407 0.7496-1.2633 1.3849-2.2749 1.4118-2.248 0.0269 0.02687-0.15447 0.52305-0.40297 1.1026s-0.75691 1.9191-1.1298 2.9767c-0.50868 1.4427-0.70411 1.8518-0.78257 1.638z" opacity="1"/><path d="m220.53 38.806c-0.33631-0.51327-0.785-1.5224-1.3322-2.9963-1.085-2.9224-1.9901-4.5104-2.75-4.8251-0.24168-0.10011-0.56894-0.05964-2.0934 0.25885-1.7222 0.3598-1.899 0.37772-3.7709 0.38198-2.1636 0.0049-2.7236-0.08334-3.4497-0.54382-0.61879-0.39242-1.009-1.0416-1.4771-2.4575-0.39329-1.1896-0.40201-1.2458-0.3073-1.9771 0.19999-1.5442 0.76926-3.058 1.5498-4.1213 1.3505-1.8398 3.7372-3.1766 7.0295-3.9374 0.9373-0.21659 0.9849-0.21789 2.3228-0.06351 2.9667 0.34232 5.1177 1.0165 6.8771 2.1555 2.2578 1.4616 3.9735 4.2297 3.9723 6.4087-1e-3 1.9392-0.33466 5.93-0.66785 7.9905l-0.16694 1.0324-0.51402 0.0022c-0.81793 0.0035-1.5153 0.38424-3.032 1.6554-0.79269 0.66433-1.7028 1.2605-1.9273 1.2623-0.0629 5.03e-4 -0.18116-0.10108-0.26287-0.22578z" opacity="1"/></g></g><g transform="translate(-27.539 19.743)"><path id="h" d="m134.23 164.39v47.709" fill="none" stroke="url(#t)" stroke-linecap="round" stroke-linejoin="bevel" stroke-width="2.1"/><path id="g" d="m201.24 34.953v47.709" fill="none" stroke="url(#s)" stroke-linecap="round" stroke-linejoin="bevel" stroke-width="2.1"/><path id="f" d="m324.25 129.5v47.709" fill="none" stroke="url(#r)" stroke-linecap="round" stroke-linejoin="bevel" stroke-width="2.1"/></g><animateTransform additive="sum" attributeName="transform" dur="2.5s" xlink:href="#az" keyTimes="0; 0.5; 1" repeatCount="indefinite" type="translate" values="0 0; 0 10; 0 0"/><animate attributeName="opacity" attributeType="CSS" dur="2.5s" xlink:href="#ba" keyTimes="0; 0.5; 1" repeatCount="indefinite" values="0.5; 1; 0.5"/><animateTransform additive="sum" attributeName="transform" dur="4s" xlink:href="#m" keyTimes="0; 0.5; 1" repeatCount="indefinite" type="translate" values="0 0; 0 10; 0 0"/><animateTransform additive="sum" attributeName="transform" dur="0.3s" xlink:href="#m" keyTimes="0; 1" repeatCount="1" type="scale" values="1.5; 1"/><animateTransform additive="sum" attributeName="transform" dur="4s" xlink:href="#l" keyTimes="0; 0.5; 1" repeatCount="indefinite" type="translate" values="0 0; 0 25; 0 0"/><animateTransform additive="sum" attributeName="transform" dur="0.3s" xlink:href="#l" keyTimes="0; 1" repeatCount="1" type="scale" values="1.5; 1"/><animateTransform additive="sum" attributeName="transform" dur="2.5s" xlink:href="#e" keyTimes="0; 0.5; 1" repeatCount="indefinite" type="translate" values="0 0; 0 10; 0 0"/><animate attributeName="opacity" attributeType="CSS" dur="3s" xlink:href="#e" keyTimes="0; 0.1; 0.2; 0.5; 0.9; 1" repeatCount="indefinite" values="0.5; 1; 0.5; 1; 1; 0.5"/><animateTransform additive="sum" attributeName="transform" dur="0.3s" xlink:href="#e" keyTimes="0; 1" repeatCount="1" type="scale" values="1.2; 1"/><animateTransform additive="sum" attributeName="transform" dur="4s" xlink:href="#h" keyTimes="0; 1" repeatCount="indefinite" type="translate" values="0 -200; 0 400"/><animate attributeName="opacity" attributeType="CSS" dur="4s" xlink:href="#h" keyTimes="0; 0.1; 0.2; 0.5; 1" repeatCount="indefinite" values="0; 0; 1; 0; 0"/><animateTransform additive="sum" attributeName="transform" dur="4s" xlink:href="#g" keyTimes="0; 1" repeatCount="indefinite" type="translate" values="0 -200; 0 400"/><animate attributeName="opacity" attributeType="CSS" dur="4s" xlink:href="#g" keyTimes="0; 0.1; 0.2; 0.5; 1" repeatCount="indefinite" values="0; 0; 1; 0; 0"/><animateTransform additive="sum" attributeName="transform" dur="4s" xlink:href="#f" keyTimes="0; 1" repeatCount="indefinite" type="translate" values="0 -200; 0 400"/><animate attributeName="opacity" attributeType="CSS" dur="4s" xlink:href="#f" keyTimes="0; 0.1; 0.2; 0.5; 1" repeatCount="indefinite" values="0; 0; 1; 0; 0"/><animateTransform additive="sum" attributeName="transform" dur="2.5s" xlink:href="#av" keyTimes="0; 0.5; 1" repeatCount="indefinite" type="translate" values="0 0; 0 -5; 0 0"/><animateTransform additive="sum" attributeName="transform" dur="2.5s" xlink:href="#bg" keyTimes="0; 0.5; 1" repeatCount="indefinite" type="translate" values="0 0; 0 -3; 0 0"/><animateTransform additive="sum" attributeName="transform" dur="2.5s" xlink:href="#bf" keyTimes="0; 0.5; 1" repeatCount="indefinite" type="translate" values="0 0; 0 -1; 0 0"/></svg>
