<?xml version="1.0" encoding="UTF-8" standalone="no"?>
<!-- Created with Inkscape (http://www.inkscape.org/) -->

<svg
   xmlns:dc="http://purl.org/dc/elements/1.1/"
   xmlns:cc="http://creativecommons.org/ns#"
   xmlns:rdf="http://www.w3.org/1999/02/22-rdf-syntax-ns#"
   xmlns:svg="http://www.w3.org/2000/svg"
   xmlns="http://www.w3.org/2000/svg"
   xmlns:xlink="http://www.w3.org/1999/xlink"
   xmlns:sodipodi="http://sodipodi.sourceforge.net/DTD/sodipodi-0.dtd"
   xmlns:inkscape="http://www.inkscape.org/namespaces/inkscape"
   version="1.1"
   id="svg915"
   width="266.66666"
   height="66.666664"
   viewBox="0 0 266.66666 66.666664"
   sodipodi:docname="medinet-logo-white.svg"
   inkscape:version="0.92.2 5c3e80d, 2017-08-06">
  <metadata
     id="metadata921">
    <rdf:RDF>
      <cc:Work
         rdf:about="">
        <dc:format>image/svg+xml</dc:format>
        <dc:type
           rdf:resource="http://purl.org/dc/dcmitype/StillImage" />
        <dc:title></dc:title>
      </cc:Work>
    </rdf:RDF>
  </metadata>
  <defs
     id="defs919">
    <linearGradient
       inkscape:collect="always"
       id="linearGradient1495">
      <stop
         style="stop-color:#fbfbfb;stop-opacity:1"
         offset="0"
         id="stop1491" />
      <stop
         style="stop-color:#ffffff;stop-opacity:0.50236964"
         offset="1"
         id="stop1493" />
    </linearGradient>
    <linearGradient
       inkscape:collect="always"
       xlink:href="#linearGradient1495"
       id="linearGradient1497"
       x1="182.51682"
       y1="33.154179"
       x2="185.34485"
       y2="33.154179"
       gradientUnits="userSpaceOnUse" />
  </defs>
  <sodipodi:namedview
     pagecolor="#ffffff"
     bordercolor="#666666"
     borderopacity="1"
     objecttolerance="10"
     gridtolerance="10"
     guidetolerance="10"
     inkscape:pageopacity="0"
     inkscape:pageshadow="2"
     inkscape:window-width="1440"
     inkscape:window-height="855"
     id="namedview917"
     showgrid="false"
     inkscape:zoom="4.1615818"
     inkscape:cx="174.56373"
     inkscape:cy="38.643638"
     inkscape:window-x="0"
     inkscape:window-y="1"
     inkscape:window-maximized="1"
     inkscape:current-layer="layer4" />
  <g
     inkscape:groupmode="layer"
     id="layer4"
     inkscape:label="Layer 1"
     style="display:inline">
    <path
       style="fill:url(#linearGradient1497);stroke-width:1.33333325;fill-opacity:1"
       d="M 19.238849,62.158972 C 0.45236024,53.411105 -4.8990417,28.209858 8.6649253,12.363413 20.736646,-1.7396774 42.459527,-2.9506117 55.829481,9.7342413 c 6.489963,6.1574047 9.43998,13.4148047 9.474568,23.3085827 0.03383,9.675254 -1.946747,15.225877 -7.819586,21.914671 -9.131636,10.400357 -24.970877,13.382816 -38.245614,7.201477 z m 3.70023,-24.492307 c 0.303834,-6.935888 0.852946,-8.999999 2.394254,-8.999999 1.541308,0 2.09042,2.064111 2.394253,8.999999 l 0.394253,9 h 5.211493 5.211494 l 0.394253,-8.893737 c 0.249615,-5.630905 1.005701,-9.095774 2.06092,-9.444444 1.228301,-0.405861 1.666667,1.93336 1.666667,8.893737 v 9.444444 h 5.999999 6 V 36.179811 c 0,-8.703272 -0.48628,-11.105061 -2.859161,-14.121691 -2.523668,-3.208322 -3.501501,-3.544785 -8.333333,-2.867415 -6.919793,0.970078 -7.127088,0.969965 -13.159202,-0.0072 -3.149503,-0.510182 -5.756335,-0.200452 -7,0.831698 -1.377291,1.143087 -1.981636,1.188228 -1.981636,0.148056 0,-0.823126 -2.1,-1.496593 -4.666667,-1.496593 H 12 v 13.999999 14 h 5.272413 5.272413 z m 22.654409,-9.072777 c -1.439817,-1.631398 -1.382336,-2.328852 0.333334,-4.044521 1.875347,-1.875348 2.273111,-1.873243 4.168415,0.02207 1.862434,1.862434 1.873015,2.317461 0.09524,4.095238 -2.405854,2.405855 -2.409478,2.405797 -4.596986,-0.07277 z m 27.739843,2.072777 V 14.666666 h 3.874007 c 3.502903,0 4.552857,1.206507 10.960641,12.594913 3.897651,6.927202 7.36762,12.31393 7.711043,11.970506 0.343424,-0.343423 3.678437,-5.861134 7.411138,-12.261579 6.1197,-10.493404 7.1761,-11.637173 10.74829,-11.637173 H 118 l 0.37564,15.666666 c 0.35714,14.894702 0.24447,15.666666 -2.28669,15.666666 -2.46301,0 -2.69078,-1.023164 -3.04231,-13.666666 l -0.37998,-13.666666 -7.74207,13.666666 c -4.25813,7.516666 -8.500779,13.666666 -9.428095,13.666666 -0.927317,0 -4.465912,-4.95 -7.863544,-11 C 77.238747,17.158206 77.424739,17.206559 77.375735,32.999999 c -0.03488,11.240413 -0.397465,13.666666 -2.042404,13.666666 -1.666666,0 -2,-2.666667 -2,-16 z m 50.075609,13.036659 c -1.29714,-1.851927 -2.07561,-5.852512 -2.07561,-10.666667 0,-10.512423 2.54167,-13.036658 13.12668,-13.036658 9.04447,0 12.20665,2.358685 12.20665,9.104988 v 4.228345 h -10.04184 c -10.8361,0 -12.82758,1.305093 -10.01392,6.562478 1.20147,2.244967 2.76299,2.770855 8.2275,2.770855 5.62325,0 6.86052,-0.443353 7.44193,-2.666667 0.89256,-3.413146 4.38633,-3.489003 4.38633,-0.09524 0,4.83371 -3.61757,6.761905 -12.68629,6.761905 -7.26786,0 -8.79583,-0.428316 -10.57143,-2.963341 z m 19.25772,-15.436658 c 0,-3.989078 -12.32238,-6.077618 -15.73333,-2.666667 -2.99773,2.997732 -1.60534,3.733333 7.06667,3.733333 4.76666,0 8.66666,-0.48 8.66666,-1.066666 z m 10.0756,15.436658 c -3.06514,-4.376124 -2.77741,-17.208736 0.47586,-21.22228 2.18525,-2.695942 3.71617,-3.141001 10.66666,-3.100954 L 172,19.426847 V 14.38009 c 0,-3.597117 0.57448,-5.046757 2,-5.046757 1.65728,0 2,2.528258 2,14.754321 0,14.081687 -1.08852,19.258698 -4.53294,21.558594 -0.80689,0.53877 -4.88304,0.98877 -9.05813,0.999999 -6.34613,0.01707 -7.93145,-0.465568 -9.66667,-2.942923 z m 17.1625,-3.131898 c 2.38062,-2.380625 2.77709,-10.139359 0.715,-13.992415 -1.03339,-1.930892 -2.80928,-2.579012 -7.06667,-2.579012 -3.12753,0 -6.40643,0.72 -7.28643,1.6 -2.07441,2.074411 -2.07441,13.392255 0,15.466666 2.29654,2.296539 11.16848,1.974373 13.6381,-0.495239 z m 9.0486,-7.571427 c 0.4929,-17.728542 2.91889,-17.496972 3.42661,0.327084 0.32456,11.394085 0.0747,13.339582 -1.71331,13.339582 -1.79073,0 -2.03837,-1.975361 -1.7133,-13.666666 z m 7.35929,2.724985 c 0.39868,-13.953877 2.33355,-16.391651 13.01009,-16.391651 10.388,0 11.89287,1.934885 12.48075,16.047072 0.44697,10.730045 0.33198,11.28626 -2.33334,11.28626 -2.59308,0 -2.80349,-0.730547 -2.80349,-9.733333 0,-10.95163 -1.14991,-12.933333 -7.50476,-12.933333 -6.72698,0 -8.49524,2.795117 -8.49524,13.428572 0,7.909067 -0.33568,9.23818 -2.33333,9.238694 -2.05812,5.29e-4 -2.29645,-1.29008 -2.02068,-10.942281 z m 30.22518,7.598853 c -1.62625,-2.481977 -2.04072,-5.410956 -1.60941,-11.373714 0.77083,-10.656465 2.80181,-12.61679 13.07157,-12.61679 9.46778,0 12.2693,2.140054 12.50442,9.552035 l 0.16225,5.114631 -10.33333,0.389418 c -8.82247,0.332482 -10.33334,0.73213 -10.33334,2.733334 0,3.687541 2.77246,5.543914 8.27972,5.543914 3.42974,0 5.82136,-0.866179 7.36299,-2.666667 4.58512,-5.355029 7.71439,-2.149329 3.61503,3.703326 -1.80487,2.576802 -3.27919,2.963341 -11.3026,2.963341 -8.3778,0 -9.42858,-0.307651 -11.4173,-3.342828 z m 19.46216,-15.057171 c 0,-3.951435 -11.06597,-6.00069 -14.4,-2.666667 -2.96136,2.961359 -1.63797,3.733333 6.4,3.733333 4.4,0 8,-0.48 8,-1.066666 z m 11.40894,15.436658 c -1.27628,-1.822159 -2.0756,-5.8272 -2.0756,-10.4 0,-4.090163 -0.67168,-8.108338 -1.49263,-8.92928 -1.10127,-1.101272 -1.01593,-2.569529 0.32549,-5.599999 1.87294,-4.231267 6.50047,-5.731459 6.50047,-2.107379 0,1.511111 1.62963,2 6.66667,2 6.22222,0 6.66666,0.222223 6.66666,3.333333 0,3.111111 -0.44444,3.333333 -6.66666,3.333333 h -6.66667 v 8 8 h 5.33333 c 3.85186,0 5.33334,-0.555556 5.33334,-2 0,-1.111111 1.18518,-2 2.66666,-2 3.19811,0 3.41507,2.338158 0.59107,6.369992 -3.0004,4.283666 -14.18173,4.283666 -17.18213,0 z M 179.5193,13.741529 c -1.59354,-1.593542 -0.86094,-4.408196 1.14736,-4.408196 1.1,0 2,0.86459 2,1.921311 0,2.227525 -1.90304,3.731207 -3.14736,2.486885 z"
       id="path1468"
       inkscape:connector-curvature="0" />
  </g>
</svg>
